<?xml version="1.0" encoding="utf-8" standalone="no"?>
<!DOCTYPE svg PUBLIC "-//W3C//DTD SVG 1.1//EN"
  "http://www.w3.org/Graphics/SVG/1.1/DTD/svg11.dtd">
<svg xmlns:xlink="http://www.w3.org/1999/xlink" width="1080pt" height="288pt" viewBox="0 0 1080 288" xmlns="http://www.w3.org/2000/svg" version="1.1">
 <metadata>
  <rdf:RDF xmlns:dc="http://purl.org/dc/elements/1.1/" xmlns:cc="http://creativecommons.org/ns#" xmlns:rdf="http://www.w3.org/1999/02/22-rdf-syntax-ns#">
   <cc:Work>
    <dc:type rdf:resource="http://purl.org/dc/dcmitype/StillImage"/>
    <dc:date>2025-03-26T19:21:13.013645</dc:date>
    <dc:format>image/svg+xml</dc:format>
    <dc:creator>
     <cc:Agent>
      <dc:title>Matplotlib v3.7.4, https://matplotlib.org/</dc:title>
     </cc:Agent>
    </dc:creator>
   </cc:Work>
  </rdf:RDF>
 </metadata>
 <defs>
  <style type="text/css">*{stroke-linejoin: round; stroke-linecap: butt}</style>
 </defs>
 <g id="figure_1">
  <g id="patch_1">
   <path d="M 0 288 
L 1080 288 
L 1080 0 
L 0 0 
z
" style="fill: #ffffff"/>
  </g>
  <g id="axes_1">
   <g id="patch_2">
    <path d="M 34.97 255.46 
L 1067.04 255.46 
L 1067.04 39.6 
L 34.97 39.6 
z
" style="fill: #ffffff"/>
   </g>
   <g id="matplotlib.axis_1">
    <g id="xtick_1">
     <g id="text_1">
      <!-- Age -->
      <g style="fill: #262626" transform="translate(89.688672 272.833594) scale(0.11 -0.11)">
       <defs>
        <path id="ArialMT-41" d="M -9 0 
L 1750 4581 
L 2403 4581 
L 4278 0 
L 3588 0 
L 3053 1388 
L 1138 1388 
L 634 0 
L -9 0 
z
M 1313 1881 
L 2866 1881 
L 2388 3150 
Q 2169 3728 2063 4100 
Q 1975 3659 1816 3225 
L 1313 1881 
z
" transform="scale(0.015625)"/>
        <path id="ArialMT-67" d="M 319 -275 
L 866 -356 
Q 900 -609 1056 -725 
Q 1266 -881 1628 -881 
Q 2019 -881 2231 -725 
Q 2444 -569 2519 -288 
Q 2563 -116 2559 434 
Q 2191 0 1641 0 
Q 956 0 581 494 
Q 206 988 206 1678 
Q 206 2153 378 2554 
Q 550 2956 876 3175 
Q 1203 3394 1644 3394 
Q 2231 3394 2613 2919 
L 2613 3319 
L 3131 3319 
L 3131 450 
Q 3131 -325 2973 -648 
Q 2816 -972 2473 -1159 
Q 2131 -1347 1631 -1347 
Q 1038 -1347 672 -1080 
Q 306 -813 319 -275 
z
M 784 1719 
Q 784 1066 1043 766 
Q 1303 466 1694 466 
Q 2081 466 2343 764 
Q 2606 1063 2606 1700 
Q 2606 2309 2336 2618 
Q 2066 2928 1684 2928 
Q 1309 2928 1046 2623 
Q 784 2319 784 1719 
z
" transform="scale(0.015625)"/>
        <path id="ArialMT-65" d="M 2694 1069 
L 3275 997 
Q 3138 488 2766 206 
Q 2394 -75 1816 -75 
Q 1088 -75 661 373 
Q 234 822 234 1631 
Q 234 2469 665 2931 
Q 1097 3394 1784 3394 
Q 2450 3394 2872 2941 
Q 3294 2488 3294 1666 
Q 3294 1616 3291 1516 
L 816 1516 
Q 847 969 1125 678 
Q 1403 388 1819 388 
Q 2128 388 2347 550 
Q 2566 713 2694 1069 
z
M 847 1978 
L 2700 1978 
Q 2663 2397 2488 2606 
Q 2219 2931 1791 2931 
Q 1403 2931 1139 2672 
Q 875 2413 847 1978 
z
" transform="scale(0.015625)"/>
       </defs>
       <use xlink:href="#ArialMT-41"/>
       <use xlink:href="#ArialMT-67" x="66.699219"/>
       <use xlink:href="#ArialMT-65" x="122.314453"/>
      </g>
     </g>
    </g>
    <g id="xtick_2">
     <g id="text_2">
      <!-- DailyRate -->
      <g style="fill: #262626" transform="translate(204.641484 272.833594) scale(0.11 -0.11)">
       <defs>
        <path id="ArialMT-44" d="M 494 0 
L 494 4581 
L 2072 4581 
Q 2606 4581 2888 4516 
Q 3281 4425 3559 4188 
Q 3922 3881 4101 3404 
Q 4281 2928 4281 2316 
Q 4281 1794 4159 1391 
Q 4038 988 3847 723 
Q 3656 459 3429 307 
Q 3203 156 2883 78 
Q 2563 0 2147 0 
L 494 0 
z
M 1100 541 
L 2078 541 
Q 2531 541 2789 625 
Q 3047 709 3200 863 
Q 3416 1078 3536 1442 
Q 3656 1806 3656 2325 
Q 3656 3044 3420 3430 
Q 3184 3816 2847 3947 
Q 2603 4041 2063 4041 
L 1100 4041 
L 1100 541 
z
" transform="scale(0.015625)"/>
        <path id="ArialMT-61" d="M 2588 409 
Q 2275 144 1986 34 
Q 1697 -75 1366 -75 
Q 819 -75 525 192 
Q 231 459 231 875 
Q 231 1119 342 1320 
Q 453 1522 633 1644 
Q 813 1766 1038 1828 
Q 1203 1872 1538 1913 
Q 2219 1994 2541 2106 
Q 2544 2222 2544 2253 
Q 2544 2597 2384 2738 
Q 2169 2928 1744 2928 
Q 1347 2928 1158 2789 
Q 969 2650 878 2297 
L 328 2372 
Q 403 2725 575 2942 
Q 747 3159 1072 3276 
Q 1397 3394 1825 3394 
Q 2250 3394 2515 3294 
Q 2781 3194 2906 3042 
Q 3031 2891 3081 2659 
Q 3109 2516 3109 2141 
L 3109 1391 
Q 3109 606 3145 398 
Q 3181 191 3288 0 
L 2700 0 
Q 2613 175 2588 409 
z
M 2541 1666 
Q 2234 1541 1622 1453 
Q 1275 1403 1131 1340 
Q 988 1278 909 1158 
Q 831 1038 831 891 
Q 831 666 1001 516 
Q 1172 366 1500 366 
Q 1825 366 2078 508 
Q 2331 650 2450 897 
Q 2541 1088 2541 1459 
L 2541 1666 
z
" transform="scale(0.015625)"/>
        <path id="ArialMT-69" d="M 425 3934 
L 425 4581 
L 988 4581 
L 988 3934 
L 425 3934 
z
M 425 0 
L 425 3319 
L 988 3319 
L 988 0 
L 425 0 
z
" transform="scale(0.015625)"/>
        <path id="ArialMT-6c" d="M 409 0 
L 409 4581 
L 972 4581 
L 972 0 
L 409 0 
z
" transform="scale(0.015625)"/>
        <path id="ArialMT-79" d="M 397 -1278 
L 334 -750 
Q 519 -800 656 -800 
Q 844 -800 956 -737 
Q 1069 -675 1141 -563 
Q 1194 -478 1313 -144 
Q 1328 -97 1363 -6 
L 103 3319 
L 709 3319 
L 1400 1397 
Q 1534 1031 1641 628 
Q 1738 1016 1872 1384 
L 2581 3319 
L 3144 3319 
L 1881 -56 
Q 1678 -603 1566 -809 
Q 1416 -1088 1222 -1217 
Q 1028 -1347 759 -1347 
Q 597 -1347 397 -1278 
z
" transform="scale(0.015625)"/>
        <path id="ArialMT-52" d="M 503 0 
L 503 4581 
L 2534 4581 
Q 3147 4581 3465 4457 
Q 3784 4334 3975 4021 
Q 4166 3709 4166 3331 
Q 4166 2844 3850 2509 
Q 3534 2175 2875 2084 
Q 3116 1969 3241 1856 
Q 3506 1613 3744 1247 
L 4541 0 
L 3778 0 
L 3172 953 
Q 2906 1366 2734 1584 
Q 2563 1803 2427 1890 
Q 2291 1978 2150 2013 
Q 2047 2034 1813 2034 
L 1109 2034 
L 1109 0 
L 503 0 
z
M 1109 2559 
L 2413 2559 
Q 2828 2559 3062 2645 
Q 3297 2731 3419 2920 
Q 3541 3109 3541 3331 
Q 3541 3656 3305 3865 
Q 3069 4075 2559 4075 
L 1109 4075 
L 1109 2559 
z
" transform="scale(0.015625)"/>
        <path id="ArialMT-74" d="M 1650 503 
L 1731 6 
Q 1494 -44 1306 -44 
Q 1000 -44 831 53 
Q 663 150 594 308 
Q 525 466 525 972 
L 525 2881 
L 113 2881 
L 113 3319 
L 525 3319 
L 525 4141 
L 1084 4478 
L 1084 3319 
L 1650 3319 
L 1650 2881 
L 1084 2881 
L 1084 941 
Q 1084 700 1114 631 
Q 1144 563 1211 522 
Q 1278 481 1403 481 
Q 1497 481 1650 503 
z
" transform="scale(0.015625)"/>
       </defs>
       <use xlink:href="#ArialMT-44"/>
       <use xlink:href="#ArialMT-61" x="72.216797"/>
       <use xlink:href="#ArialMT-69" x="127.832031"/>
       <use xlink:href="#ArialMT-6c" x="150.048828"/>
       <use xlink:href="#ArialMT-79" x="172.265625"/>
       <use xlink:href="#ArialMT-52" x="222.265625"/>
       <use xlink:href="#ArialMT-61" x="294.482422"/>
       <use xlink:href="#ArialMT-74" x="350.097656"/>
       <use xlink:href="#ArialMT-65" x="377.880859"/>
      </g>
     </g>
    </g>
    <g id="xtick_3">
     <g id="text_3">
      <!-- DistanceFromHome -->
      <g style="fill: #262626" transform="translate(308.593437 272.833594) scale(0.11 -0.11)">
       <defs>
        <path id="ArialMT-73" d="M 197 991 
L 753 1078 
Q 800 744 1014 566 
Q 1228 388 1613 388 
Q 2000 388 2187 545 
Q 2375 703 2375 916 
Q 2375 1106 2209 1216 
Q 2094 1291 1634 1406 
Q 1016 1563 777 1677 
Q 538 1791 414 1992 
Q 291 2194 291 2438 
Q 291 2659 392 2848 
Q 494 3038 669 3163 
Q 800 3259 1026 3326 
Q 1253 3394 1513 3394 
Q 1903 3394 2198 3281 
Q 2494 3169 2634 2976 
Q 2775 2784 2828 2463 
L 2278 2388 
Q 2241 2644 2061 2787 
Q 1881 2931 1553 2931 
Q 1166 2931 1000 2803 
Q 834 2675 834 2503 
Q 834 2394 903 2306 
Q 972 2216 1119 2156 
Q 1203 2125 1616 2013 
Q 2213 1853 2448 1751 
Q 2684 1650 2818 1456 
Q 2953 1263 2953 975 
Q 2953 694 2789 445 
Q 2625 197 2315 61 
Q 2006 -75 1616 -75 
Q 969 -75 630 194 
Q 291 463 197 991 
z
" transform="scale(0.015625)"/>
        <path id="ArialMT-6e" d="M 422 0 
L 422 3319 
L 928 3319 
L 928 2847 
Q 1294 3394 1984 3394 
Q 2284 3394 2536 3286 
Q 2788 3178 2913 3003 
Q 3038 2828 3088 2588 
Q 3119 2431 3119 2041 
L 3119 0 
L 2556 0 
L 2556 2019 
Q 2556 2363 2490 2533 
Q 2425 2703 2258 2804 
Q 2091 2906 1866 2906 
Q 1506 2906 1245 2678 
Q 984 2450 984 1813 
L 984 0 
L 422 0 
z
" transform="scale(0.015625)"/>
        <path id="ArialMT-63" d="M 2588 1216 
L 3141 1144 
Q 3050 572 2676 248 
Q 2303 -75 1759 -75 
Q 1078 -75 664 370 
Q 250 816 250 1647 
Q 250 2184 428 2587 
Q 606 2991 970 3192 
Q 1334 3394 1763 3394 
Q 2303 3394 2647 3120 
Q 2991 2847 3088 2344 
L 2541 2259 
Q 2463 2594 2264 2762 
Q 2066 2931 1784 2931 
Q 1359 2931 1093 2626 
Q 828 2322 828 1663 
Q 828 994 1084 691 
Q 1341 388 1753 388 
Q 2084 388 2306 591 
Q 2528 794 2588 1216 
z
" transform="scale(0.015625)"/>
        <path id="ArialMT-46" d="M 525 0 
L 525 4581 
L 3616 4581 
L 3616 4041 
L 1131 4041 
L 1131 2622 
L 3281 2622 
L 3281 2081 
L 1131 2081 
L 1131 0 
L 525 0 
z
" transform="scale(0.015625)"/>
        <path id="ArialMT-72" d="M 416 0 
L 416 3319 
L 922 3319 
L 922 2816 
Q 1116 3169 1280 3281 
Q 1444 3394 1641 3394 
Q 1925 3394 2219 3213 
L 2025 2691 
Q 1819 2813 1613 2813 
Q 1428 2813 1281 2702 
Q 1134 2591 1072 2394 
Q 978 2094 978 1738 
L 978 0 
L 416 0 
z
" transform="scale(0.015625)"/>
        <path id="ArialMT-6f" d="M 213 1659 
Q 213 2581 725 3025 
Q 1153 3394 1769 3394 
Q 2453 3394 2887 2945 
Q 3322 2497 3322 1706 
Q 3322 1066 3130 698 
Q 2938 331 2570 128 
Q 2203 -75 1769 -75 
Q 1072 -75 642 372 
Q 213 819 213 1659 
z
M 791 1659 
Q 791 1022 1069 705 
Q 1347 388 1769 388 
Q 2188 388 2466 706 
Q 2744 1025 2744 1678 
Q 2744 2294 2464 2611 
Q 2184 2928 1769 2928 
Q 1347 2928 1069 2612 
Q 791 2297 791 1659 
z
" transform="scale(0.015625)"/>
        <path id="ArialMT-6d" d="M 422 0 
L 422 3319 
L 925 3319 
L 925 2853 
Q 1081 3097 1340 3245 
Q 1600 3394 1931 3394 
Q 2300 3394 2536 3241 
Q 2772 3088 2869 2813 
Q 3263 3394 3894 3394 
Q 4388 3394 4653 3120 
Q 4919 2847 4919 2278 
L 4919 0 
L 4359 0 
L 4359 2091 
Q 4359 2428 4304 2576 
Q 4250 2725 4106 2815 
Q 3963 2906 3769 2906 
Q 3419 2906 3187 2673 
Q 2956 2441 2956 1928 
L 2956 0 
L 2394 0 
L 2394 2156 
Q 2394 2531 2256 2718 
Q 2119 2906 1806 2906 
Q 1569 2906 1367 2781 
Q 1166 2656 1075 2415 
Q 984 2175 984 1722 
L 984 0 
L 422 0 
z
" transform="scale(0.015625)"/>
        <path id="ArialMT-48" d="M 513 0 
L 513 4581 
L 1119 4581 
L 1119 2700 
L 3500 2700 
L 3500 4581 
L 4106 4581 
L 4106 0 
L 3500 0 
L 3500 2159 
L 1119 2159 
L 1119 0 
L 513 0 
z
" transform="scale(0.015625)"/>
       </defs>
       <use xlink:href="#ArialMT-44"/>
       <use xlink:href="#ArialMT-69" x="72.216797"/>
       <use xlink:href="#ArialMT-73" x="94.433594"/>
       <use xlink:href="#ArialMT-74" x="144.433594"/>
       <use xlink:href="#ArialMT-61" x="172.216797"/>
       <use xlink:href="#ArialMT-6e" x="227.832031"/>
       <use xlink:href="#ArialMT-63" x="283.447266"/>
       <use xlink:href="#ArialMT-65" x="333.447266"/>
       <use xlink:href="#ArialMT-46" x="389.0625"/>
       <use xlink:href="#ArialMT-72" x="450.146484"/>
       <use xlink:href="#ArialMT-6f" x="483.447266"/>
       <use xlink:href="#ArialMT-6d" x="539.0625"/>
       <use xlink:href="#ArialMT-48" x="622.363281"/>
       <use xlink:href="#ArialMT-6f" x="694.580078"/>
       <use xlink:href="#ArialMT-6d" x="750.195312"/>
       <use xlink:href="#ArialMT-65" x="833.496094"/>
      </g>
     </g>
    </g>
    <g id="xtick_4">
     <g id="text_4">
      <!-- Education -->
      <g style="fill: #262626" transform="translate(462.039375 272.833594) scale(0.11 -0.11)">
       <defs>
        <path id="ArialMT-45" d="M 506 0 
L 506 4581 
L 3819 4581 
L 3819 4041 
L 1113 4041 
L 1113 2638 
L 3647 2638 
L 3647 2100 
L 1113 2100 
L 1113 541 
L 3925 541 
L 3925 0 
L 506 0 
z
" transform="scale(0.015625)"/>
        <path id="ArialMT-64" d="M 2575 0 
L 2575 419 
Q 2259 -75 1647 -75 
Q 1250 -75 917 144 
Q 584 363 401 755 
Q 219 1147 219 1656 
Q 219 2153 384 2558 
Q 550 2963 881 3178 
Q 1213 3394 1622 3394 
Q 1922 3394 2156 3267 
Q 2391 3141 2538 2938 
L 2538 4581 
L 3097 4581 
L 3097 0 
L 2575 0 
z
M 797 1656 
Q 797 1019 1065 703 
Q 1334 388 1700 388 
Q 2069 388 2326 689 
Q 2584 991 2584 1609 
Q 2584 2291 2321 2609 
Q 2059 2928 1675 2928 
Q 1300 2928 1048 2622 
Q 797 2316 797 1656 
z
" transform="scale(0.015625)"/>
        <path id="ArialMT-75" d="M 2597 0 
L 2597 488 
Q 2209 -75 1544 -75 
Q 1250 -75 995 37 
Q 741 150 617 320 
Q 494 491 444 738 
Q 409 903 409 1263 
L 409 3319 
L 972 3319 
L 972 1478 
Q 972 1038 1006 884 
Q 1059 663 1231 536 
Q 1403 409 1656 409 
Q 1909 409 2131 539 
Q 2353 669 2445 892 
Q 2538 1116 2538 1541 
L 2538 3319 
L 3100 3319 
L 3100 0 
L 2597 0 
z
" transform="scale(0.015625)"/>
       </defs>
       <use xlink:href="#ArialMT-45"/>
       <use xlink:href="#ArialMT-64" x="66.699219"/>
       <use xlink:href="#ArialMT-75" x="122.314453"/>
       <use xlink:href="#ArialMT-63" x="177.929688"/>
       <use xlink:href="#ArialMT-61" x="227.929688"/>
       <use xlink:href="#ArialMT-74" x="283.544922"/>
       <use xlink:href="#ArialMT-69" x="311.328125"/>
       <use xlink:href="#ArialMT-6f" x="333.544922"/>
       <use xlink:href="#ArialMT-6e" x="389.160156"/>
      </g>
     </g>
    </g>
    <g id="xtick_5">
     <g id="text_5">
      <!-- EnvironmentSatisfaction -->
      <g style="fill: #262626" transform="translate(556.204766 272.833594) scale(0.11 -0.11)">
       <defs>
        <path id="ArialMT-76" d="M 1344 0 
L 81 3319 
L 675 3319 
L 1388 1331 
Q 1503 1009 1600 663 
Q 1675 925 1809 1294 
L 2547 3319 
L 3125 3319 
L 1869 0 
L 1344 0 
z
" transform="scale(0.015625)"/>
        <path id="ArialMT-53" d="M 288 1472 
L 859 1522 
Q 900 1178 1048 958 
Q 1197 738 1509 602 
Q 1822 466 2213 466 
Q 2559 466 2825 569 
Q 3091 672 3220 851 
Q 3350 1031 3350 1244 
Q 3350 1459 3225 1620 
Q 3100 1781 2813 1891 
Q 2628 1963 1997 2114 
Q 1366 2266 1113 2400 
Q 784 2572 623 2826 
Q 463 3081 463 3397 
Q 463 3744 659 4045 
Q 856 4347 1234 4503 
Q 1613 4659 2075 4659 
Q 2584 4659 2973 4495 
Q 3363 4331 3572 4012 
Q 3781 3694 3797 3291 
L 3216 3247 
Q 3169 3681 2898 3903 
Q 2628 4125 2100 4125 
Q 1550 4125 1298 3923 
Q 1047 3722 1047 3438 
Q 1047 3191 1225 3031 
Q 1400 2872 2139 2705 
Q 2878 2538 3153 2413 
Q 3553 2228 3743 1945 
Q 3934 1663 3934 1294 
Q 3934 928 3725 604 
Q 3516 281 3123 101 
Q 2731 -78 2241 -78 
Q 1619 -78 1198 103 
Q 778 284 539 648 
Q 300 1013 288 1472 
z
" transform="scale(0.015625)"/>
        <path id="ArialMT-66" d="M 556 0 
L 556 2881 
L 59 2881 
L 59 3319 
L 556 3319 
L 556 3672 
Q 556 4006 616 4169 
Q 697 4388 901 4523 
Q 1106 4659 1475 4659 
Q 1713 4659 2000 4603 
L 1916 4113 
Q 1741 4144 1584 4144 
Q 1328 4144 1222 4034 
Q 1116 3925 1116 3625 
L 1116 3319 
L 1763 3319 
L 1763 2881 
L 1116 2881 
L 1116 0 
L 556 0 
z
" transform="scale(0.015625)"/>
       </defs>
       <use xlink:href="#ArialMT-45"/>
       <use xlink:href="#ArialMT-6e" x="66.699219"/>
       <use xlink:href="#ArialMT-76" x="122.314453"/>
       <use xlink:href="#ArialMT-69" x="172.314453"/>
       <use xlink:href="#ArialMT-72" x="194.53125"/>
       <use xlink:href="#ArialMT-6f" x="227.832031"/>
       <use xlink:href="#ArialMT-6e" x="283.447266"/>
       <use xlink:href="#ArialMT-6d" x="339.0625"/>
       <use xlink:href="#ArialMT-65" x="422.363281"/>
       <use xlink:href="#ArialMT-6e" x="477.978516"/>
       <use xlink:href="#ArialMT-74" x="533.59375"/>
       <use xlink:href="#ArialMT-53" x="561.376953"/>
       <use xlink:href="#ArialMT-61" x="628.076172"/>
       <use xlink:href="#ArialMT-74" x="683.691406"/>
       <use xlink:href="#ArialMT-69" x="711.474609"/>
       <use xlink:href="#ArialMT-73" x="733.691406"/>
       <use xlink:href="#ArialMT-66" x="783.691406"/>
       <use xlink:href="#ArialMT-61" x="811.474609"/>
       <use xlink:href="#ArialMT-63" x="867.089844"/>
       <use xlink:href="#ArialMT-74" x="917.089844"/>
       <use xlink:href="#ArialMT-69" x="944.873047"/>
       <use xlink:href="#ArialMT-6f" x="967.089844"/>
       <use xlink:href="#ArialMT-6e" x="1022.705078"/>
      </g>
     </g>
    </g>
    <g id="xtick_6">
     <g id="text_6">
      <!-- HourlyRate -->
      <g style="fill: #262626" transform="translate(717.008672 272.833594) scale(0.11 -0.11)">
       <use xlink:href="#ArialMT-48"/>
       <use xlink:href="#ArialMT-6f" x="72.216797"/>
       <use xlink:href="#ArialMT-75" x="127.832031"/>
       <use xlink:href="#ArialMT-72" x="183.447266"/>
       <use xlink:href="#ArialMT-6c" x="216.748047"/>
       <use xlink:href="#ArialMT-79" x="238.964844"/>
       <use xlink:href="#ArialMT-52" x="288.964844"/>
       <use xlink:href="#ArialMT-61" x="361.181641"/>
       <use xlink:href="#ArialMT-74" x="416.796875"/>
       <use xlink:href="#ArialMT-65" x="444.580078"/>
      </g>
     </g>
    </g>
    <g id="xtick_7">
     <g id="text_7">
      <!-- JobInvolvement -->
      <g style="fill: #262626" transform="translate(835.007969 272.833594) scale(0.11 -0.11)">
       <defs>
        <path id="ArialMT-4a" d="M 184 1300 
L 731 1375 
Q 753 850 928 656 
Q 1103 463 1413 463 
Q 1641 463 1806 567 
Q 1972 672 2034 851 
Q 2097 1031 2097 1425 
L 2097 4581 
L 2703 4581 
L 2703 1459 
Q 2703 884 2564 568 
Q 2425 253 2123 87 
Q 1822 -78 1416 -78 
Q 813 -78 492 269 
Q 172 616 184 1300 
z
" transform="scale(0.015625)"/>
        <path id="ArialMT-62" d="M 941 0 
L 419 0 
L 419 4581 
L 981 4581 
L 981 2947 
Q 1338 3394 1891 3394 
Q 2197 3394 2470 3270 
Q 2744 3147 2920 2923 
Q 3097 2700 3197 2384 
Q 3297 2069 3297 1709 
Q 3297 856 2875 390 
Q 2453 -75 1863 -75 
Q 1275 -75 941 416 
L 941 0 
z
M 934 1684 
Q 934 1088 1097 822 
Q 1363 388 1816 388 
Q 2184 388 2453 708 
Q 2722 1028 2722 1663 
Q 2722 2313 2464 2622 
Q 2206 2931 1841 2931 
Q 1472 2931 1203 2611 
Q 934 2291 934 1684 
z
" transform="scale(0.015625)"/>
        <path id="ArialMT-49" d="M 597 0 
L 597 4581 
L 1203 4581 
L 1203 0 
L 597 0 
z
" transform="scale(0.015625)"/>
       </defs>
       <use xlink:href="#ArialMT-4a"/>
       <use xlink:href="#ArialMT-6f" x="50"/>
       <use xlink:href="#ArialMT-62" x="105.615234"/>
       <use xlink:href="#ArialMT-49" x="161.230469"/>
       <use xlink:href="#ArialMT-6e" x="189.013672"/>
       <use xlink:href="#ArialMT-76" x="244.628906"/>
       <use xlink:href="#ArialMT-6f" x="294.628906"/>
       <use xlink:href="#ArialMT-6c" x="350.244141"/>
       <use xlink:href="#ArialMT-76" x="372.460938"/>
       <use xlink:href="#ArialMT-65" x="422.460938"/>
       <use xlink:href="#ArialMT-6d" x="478.076172"/>
       <use xlink:href="#ArialMT-65" x="561.376953"/>
       <use xlink:href="#ArialMT-6e" x="616.992188"/>
       <use xlink:href="#ArialMT-74" x="672.607422"/>
      </g>
     </g>
    </g>
    <g id="xtick_8">
     <g id="text_8">
      <!-- JobLevel -->
      <g style="fill: #262626" transform="translate(980.521016 272.833594) scale(0.11 -0.11)">
       <defs>
        <path id="ArialMT-4c" d="M 469 0 
L 469 4581 
L 1075 4581 
L 1075 541 
L 3331 541 
L 3331 0 
L 469 0 
z
" transform="scale(0.015625)"/>
       </defs>
       <use xlink:href="#ArialMT-4a"/>
       <use xlink:href="#ArialMT-6f" x="50"/>
       <use xlink:href="#ArialMT-62" x="105.615234"/>
       <use xlink:href="#ArialMT-4c" x="161.230469"/>
       <use xlink:href="#ArialMT-65" x="216.845703"/>
       <use xlink:href="#ArialMT-76" x="272.460938"/>
       <use xlink:href="#ArialMT-65" x="322.460938"/>
       <use xlink:href="#ArialMT-6c" x="378.076172"/>
      </g>
     </g>
    </g>
   </g>
   <g id="matplotlib.axis_2">
    <g id="ytick_1">
     <g id="line2d_1">
      <path d="M 34.97 249.032006 
L 1067.04 249.032006 
" clip-path="url(#p2ba414a21a)" style="fill: none; stroke: #cccccc; stroke-linecap: round"/>
     </g>
     <g id="text_9">
      <!-- −3 -->
      <g style="fill: #262626" transform="translate(12.928281 252.968803) scale(0.11 -0.11)">
       <defs>
        <path id="ArialMT-2212" d="M 3381 1997 
L 356 1997 
L 356 2522 
L 3381 2522 
L 3381 1997 
z
" transform="scale(0.015625)"/>
        <path id="ArialMT-33" d="M 269 1209 
L 831 1284 
Q 928 806 1161 595 
Q 1394 384 1728 384 
Q 2125 384 2398 659 
Q 2672 934 2672 1341 
Q 2672 1728 2419 1979 
Q 2166 2231 1775 2231 
Q 1616 2231 1378 2169 
L 1441 2663 
Q 1497 2656 1531 2656 
Q 1891 2656 2178 2843 
Q 2466 3031 2466 3422 
Q 2466 3731 2256 3934 
Q 2047 4138 1716 4138 
Q 1388 4138 1169 3931 
Q 950 3725 888 3313 
L 325 3413 
Q 428 3978 793 4289 
Q 1159 4600 1703 4600 
Q 2078 4600 2393 4439 
Q 2709 4278 2876 4000 
Q 3044 3722 3044 3409 
Q 3044 3113 2884 2869 
Q 2725 2625 2413 2481 
Q 2819 2388 3044 2092 
Q 3269 1797 3269 1353 
Q 3269 753 2831 336 
Q 2394 -81 1725 -81 
Q 1122 -81 723 278 
Q 325 638 269 1209 
z
" transform="scale(0.015625)"/>
       </defs>
       <use xlink:href="#ArialMT-2212"/>
       <use xlink:href="#ArialMT-33" x="58.398438"/>
      </g>
     </g>
    </g>
    <g id="ytick_2">
     <g id="line2d_2">
      <path d="M 34.97 216.401148 
L 1067.04 216.401148 
" clip-path="url(#p2ba414a21a)" style="fill: none; stroke: #cccccc; stroke-linecap: round"/>
     </g>
     <g id="text_10">
      <!-- −2 -->
      <g style="fill: #262626" transform="translate(12.928281 220.337945) scale(0.11 -0.11)">
       <defs>
        <path id="ArialMT-32" d="M 3222 541 
L 3222 0 
L 194 0 
Q 188 203 259 391 
Q 375 700 629 1000 
Q 884 1300 1366 1694 
Q 2113 2306 2375 2664 
Q 2638 3022 2638 3341 
Q 2638 3675 2398 3904 
Q 2159 4134 1775 4134 
Q 1369 4134 1125 3890 
Q 881 3647 878 3216 
L 300 3275 
Q 359 3922 746 4261 
Q 1134 4600 1788 4600 
Q 2447 4600 2831 4234 
Q 3216 3869 3216 3328 
Q 3216 3053 3103 2787 
Q 2991 2522 2730 2228 
Q 2469 1934 1863 1422 
Q 1356 997 1212 845 
Q 1069 694 975 541 
L 3222 541 
z
" transform="scale(0.015625)"/>
       </defs>
       <use xlink:href="#ArialMT-2212"/>
       <use xlink:href="#ArialMT-32" x="58.398438"/>
      </g>
     </g>
    </g>
    <g id="ytick_3">
     <g id="line2d_3">
      <path d="M 34.97 183.77029 
L 1067.04 183.77029 
" clip-path="url(#p2ba414a21a)" style="fill: none; stroke: #cccccc; stroke-linecap: round"/>
     </g>
     <g id="text_11">
      <!-- −1 -->
      <g style="fill: #262626" transform="translate(12.928281 187.707087) scale(0.11 -0.11)">
       <defs>
        <path id="ArialMT-31" d="M 2384 0 
L 1822 0 
L 1822 3584 
Q 1619 3391 1289 3197 
Q 959 3003 697 2906 
L 697 3450 
Q 1169 3672 1522 3987 
Q 1875 4303 2022 4600 
L 2384 4600 
L 2384 0 
z
" transform="scale(0.015625)"/>
       </defs>
       <use xlink:href="#ArialMT-2212"/>
       <use xlink:href="#ArialMT-31" x="58.398438"/>
      </g>
     </g>
    </g>
    <g id="ytick_4">
     <g id="line2d_4">
      <path d="M 34.97 151.139431 
L 1067.04 151.139431 
" clip-path="url(#p2ba414a21a)" style="fill: none; stroke: #cccccc; stroke-linecap: round"/>
     </g>
     <g id="text_12">
      <!-- 0 -->
      <g style="fill: #262626" transform="translate(19.352969 155.076228) scale(0.11 -0.11)">
       <defs>
        <path id="ArialMT-30" d="M 266 2259 
Q 266 3072 433 3567 
Q 600 4063 929 4331 
Q 1259 4600 1759 4600 
Q 2128 4600 2406 4451 
Q 2684 4303 2865 4023 
Q 3047 3744 3150 3342 
Q 3253 2941 3253 2259 
Q 3253 1453 3087 958 
Q 2922 463 2592 192 
Q 2263 -78 1759 -78 
Q 1097 -78 719 397 
Q 266 969 266 2259 
z
M 844 2259 
Q 844 1131 1108 757 
Q 1372 384 1759 384 
Q 2147 384 2411 759 
Q 2675 1134 2675 2259 
Q 2675 3391 2411 3762 
Q 2147 4134 1753 4134 
Q 1366 4134 1134 3806 
Q 844 3388 844 2259 
z
" transform="scale(0.015625)"/>
       </defs>
       <use xlink:href="#ArialMT-30"/>
      </g>
     </g>
    </g>
    <g id="ytick_5">
     <g id="line2d_5">
      <path d="M 34.97 118.508573 
L 1067.04 118.508573 
" clip-path="url(#p2ba414a21a)" style="fill: none; stroke: #cccccc; stroke-linecap: round"/>
     </g>
     <g id="text_13">
      <!-- 1 -->
      <g style="fill: #262626" transform="translate(19.352969 122.44537) scale(0.11 -0.11)">
       <use xlink:href="#ArialMT-31"/>
      </g>
     </g>
    </g>
    <g id="ytick_6">
     <g id="line2d_6">
      <path d="M 34.97 85.877715 
L 1067.04 85.877715 
" clip-path="url(#p2ba414a21a)" style="fill: none; stroke: #cccccc; stroke-linecap: round"/>
     </g>
     <g id="text_14">
      <!-- 2 -->
      <g style="fill: #262626" transform="translate(19.352969 89.814512) scale(0.11 -0.11)">
       <use xlink:href="#ArialMT-32"/>
      </g>
     </g>
    </g>
    <g id="ytick_7">
     <g id="line2d_7">
      <path d="M 34.97 53.246857 
L 1067.04 53.246857 
" clip-path="url(#p2ba414a21a)" style="fill: none; stroke: #cccccc; stroke-linecap: round"/>
     </g>
     <g id="text_15">
      <!-- 3 -->
      <g style="fill: #262626" transform="translate(19.352969 57.183654) scale(0.11 -0.11)">
       <use xlink:href="#ArialMT-33"/>
      </g>
     </g>
    </g>
   </g>
   <g id="PolyCollection_1">
    <defs>
     <path id="mea144e1c94" d="M 99.72153 -54.088845 
L 99.22722 -54.088845 
L 99.061312 -55.910819 
L 98.816495 -57.732793 
L 98.474238 -59.554767 
L 98.020331 -61.376741 
L 97.448261 -63.198715 
L 96.761453 -65.020689 
L 95.973427 -66.842663 
L 95.10546 -68.664638 
L 94.182098 -70.486612 
L 93.225564 -72.308586 
L 92.250412 -74.13056 
L 91.259647 -75.952534 
L 90.243073 -77.774508 
L 89.178051 -79.596482 
L 88.032389 -81.418456 
L 86.768814 -83.24043 
L 85.350297 -85.062404 
L 83.745485 -86.884379 
L 81.933457 -88.706353 
L 79.90721 -90.528327 
L 77.675467 -92.350301 
L 75.262767 -94.172275 
L 72.70809 -95.994249 
L 70.062458 -97.816223 
L 67.385933 -99.638197 
L 64.744181 -101.460171 
L 62.20446 -103.282145 
L 59.830684 -105.10412 
L 57.677363 -106.926094 
L 55.782894 -108.748068 
L 54.163545 -110.570042 
L 52.810272 -112.392016 
L 51.69059 -114.21399 
L 50.756735 -116.035964 
L 49.959435 -117.857938 
L 49.264194 -119.679912 
L 48.665169 -121.501886 
L 48.191418 -123.323861 
L 47.902107 -125.145835 
L 47.870875 -126.967809 
L 48.1636 -128.789783 
L 48.816668 -130.611757 
L 49.823008 -132.433731 
L 51.130529 -134.255705 
L 52.653175 -136.077679 
L 54.290512 -137.899653 
L 55.949246 -139.721627 
L 57.560148 -141.543602 
L 59.086146 -143.365576 
L 60.520633 -145.18755 
L 61.878158 -147.009524 
L 63.181577 -148.831498 
L 64.450186 -150.653472 
L 65.692466 -152.475446 
L 66.905153 -154.29742 
L 68.078115 -156.119394 
L 69.202414 -157.941368 
L 70.277803 -159.763343 
L 71.316079 -161.585317 
L 72.338366 -163.407291 
L 73.367015 -165.229265 
L 74.41535 -167.051239 
L 75.479783 -168.873213 
L 76.538094 -170.695187 
L 77.555201 -172.517161 
L 78.494397 -174.339135 
L 79.329623 -176.161109 
L 80.05378 -177.983084 
L 80.679884 -179.805058 
L 81.235027 -181.627032 
L 81.750167 -183.449006 
L 82.250363 -185.27098 
L 82.749435 -187.092954 
L 83.250717 -188.914928 
L 83.752677 -190.736902 
L 84.256088 -192.558876 
L 84.769037 -194.38085 
L 85.307332 -196.202825 
L 85.890198 -198.024799 
L 86.533355 -199.846773 
L 87.242822 -201.668747 
L 88.012384 -203.490721 
L 88.825971 -205.312695 
L 89.66386 -207.134669 
L 90.509768 -208.956643 
L 91.355522 -210.778617 
L 92.201162 -212.600591 
L 93.050608 -214.422566 
L 93.905103 -216.24454 
L 94.757654 -218.066514 
L 95.591014 -219.888488 
L 96.380031 -221.710462 
L 97.09724 -223.532436 
L 97.719363 -225.35441 
L 98.232359 -227.176384 
L 98.633566 -228.998358 
L 98.930789 -230.820332 
L 99.139215 -232.642307 
L 99.277512 -234.464281 
L 99.671238 -234.464281 
L 99.671238 -234.464281 
L 99.809535 -232.642307 
L 100.017961 -230.820332 
L 100.315184 -228.998358 
L 100.716391 -227.176384 
L 101.229387 -225.35441 
L 101.85151 -223.532436 
L 102.568719 -221.710462 
L 103.357736 -219.888488 
L 104.191096 -218.066514 
L 105.043647 -216.24454 
L 105.898142 -214.422566 
L 106.747588 -212.600591 
L 107.593228 -210.778617 
L 108.438982 -208.956643 
L 109.28489 -207.134669 
L 110.122779 -205.312695 
L 110.936366 -203.490721 
L 111.705928 -201.668747 
L 112.415395 -199.846773 
L 113.058552 -198.024799 
L 113.641418 -196.202825 
L 114.179713 -194.38085 
L 114.692662 -192.558876 
L 115.196073 -190.736902 
L 115.698033 -188.914928 
L 116.199315 -187.092954 
L 116.698387 -185.27098 
L 117.198583 -183.449006 
L 117.713723 -181.627032 
L 118.268866 -179.805058 
L 118.89497 -177.983084 
L 119.619127 -176.161109 
L 120.454353 -174.339135 
L 121.393549 -172.517161 
L 122.410656 -170.695187 
L 123.468967 -168.873213 
L 124.5334 -167.051239 
L 125.581735 -165.229265 
L 126.610384 -163.407291 
L 127.632671 -161.585317 
L 128.670947 -159.763343 
L 129.746336 -157.941368 
L 130.870635 -156.119394 
L 132.043597 -154.29742 
L 133.256284 -152.475446 
L 134.498564 -150.653472 
L 135.767173 -148.831498 
L 137.070592 -147.009524 
L 138.428117 -145.18755 
L 139.862604 -143.365576 
L 141.388602 -141.543602 
L 142.999504 -139.721627 
L 144.658238 -137.899653 
L 146.295575 -136.077679 
L 147.818221 -134.255705 
L 149.125742 -132.433731 
L 150.132082 -130.611757 
L 150.78515 -128.789783 
L 151.077875 -126.967809 
L 151.046643 -125.145835 
L 150.757332 -123.323861 
L 150.283581 -121.501886 
L 149.684556 -119.679912 
L 148.989315 -117.857938 
L 148.192015 -116.035964 
L 147.25816 -114.21399 
L 146.138478 -112.392016 
L 144.785205 -110.570042 
L 143.165856 -108.748068 
L 141.271387 -106.926094 
L 139.118066 -105.10412 
L 136.74429 -103.282145 
L 134.204569 -101.460171 
L 131.562817 -99.638197 
L 128.886292 -97.816223 
L 126.24066 -95.994249 
L 123.685983 -94.172275 
L 121.273283 -92.350301 
L 119.04154 -90.528327 
L 117.015293 -88.706353 
L 115.203265 -86.884379 
L 113.598453 -85.062404 
L 112.179936 -83.24043 
L 110.916361 -81.418456 
L 109.770699 -79.596482 
L 108.705677 -77.774508 
L 107.689103 -75.952534 
L 106.698338 -74.13056 
L 105.723186 -72.308586 
L 104.766652 -70.486612 
L 103.84329 -68.664638 
L 102.975323 -66.842663 
L 102.187297 -65.020689 
L 101.500489 -63.198715 
L 100.928419 -61.376741 
L 100.474512 -59.554767 
L 100.132255 -57.732793 
L 99.887438 -55.910819 
L 99.72153 -54.088845 
z
" style="stroke: #3e3e3e; stroke-width: 3"/>
    </defs>
    <g clip-path="url(#p2ba414a21a)">
     <use xlink:href="#mea144e1c94" x="0" y="288" style="fill: #cb3335; stroke: #3e3e3e; stroke-width: 3"/>
    </g>
   </g>
   <g id="PolyCollection_2">
    <defs>
     <path id="m832a40ab67" d="M 229.635602 -65.036573 
L 227.330648 -65.036573 
L 226.703702 -66.484319 
L 225.823064 -67.932064 
L 224.631281 -69.37981 
L 223.077558 -70.827556 
L 221.126524 -72.275302 
L 218.767111 -73.723048 
L 216.01972 -75.170793 
L 212.939775 -76.618539 
L 209.616216 -78.066285 
L 206.164416 -79.514031 
L 202.714283 -80.961776 
L 199.395492 -82.409522 
L 196.322607 -83.857268 
L 193.582931 -85.305014 
L 191.229275 -86.752759 
L 189.278596 -88.200505 
L 187.716014 -89.648251 
L 186.502555 -91.095997 
L 185.58435 -92.543742 
L 184.901167 -93.991488 
L 184.392821 -95.439234 
L 184.003038 -96.88698 
L 183.681188 -98.334726 
L 183.382859 -99.782471 
L 183.070248 -101.230217 
L 182.713007 -102.677963 
L 182.289634 -104.125709 
L 181.789039 -105.573454 
L 181.211709 -107.0212 
L 180.569922 -108.468946 
L 179.886743 -109.916692 
L 179.193848 -111.364437 
L 178.528491 -112.812183 
L 177.930032 -114.259929 
L 177.436453 -115.707675 
L 177.081135 -117.155421 
L 176.89008 -118.603166 
L 176.879625 -120.050912 
L 177.054705 -121.498658 
L 177.407764 -122.946404 
L 177.918509 -124.394149 
L 178.554776 -125.841895 
L 179.27472 -127.289641 
L 180.030371 -128.737387 
L 180.772318 -130.185132 
L 181.454944 -131.632878 
L 182.041383 -133.080624 
L 182.50737 -134.52837 
L 182.84329 -135.976115 
L 183.054148 -137.423861 
L 183.157557 -138.871607 
L 183.180208 -140.319353 
L 183.153412 -141.767099 
L 183.108337 -143.214844 
L 183.071473 -144.66259 
L 183.060776 -146.110336 
L 183.082953 -147.558082 
L 183.132317 -149.005827 
L 183.191615 -150.453573 
L 183.234937 -151.901319 
L 183.232461 -153.349065 
L 183.156255 -154.79681 
L 182.985991 -156.244556 
L 182.713294 -157.692302 
L 182.343692 -159.140048 
L 181.895737 -160.587793 
L 181.397586 -162.035539 
L 180.882025 -163.483285 
L 180.381272 -164.931031 
L 179.92292 -166.378777 
L 179.527943 -167.826522 
L 179.211138 -169.274268 
L 178.983667 -170.722014 
L 178.856904 -172.16976 
L 178.846509 -173.617505 
L 178.975667 -175.065251 
L 179.276699 -176.512997 
L 179.790602 -177.960743 
L 180.564468 -179.408488 
L 181.647088 -180.856234 
L 183.08322 -182.30398 
L 184.907182 -183.751726 
L 187.136483 -185.199471 
L 189.76628 -186.647217 
L 192.765523 -188.094963 
L 196.075592 -189.542709 
L 199.612112 -190.990455 
L 203.270205 -192.4382 
L 206.932879 -193.885946 
L 210.48159 -195.333692 
L 213.807446 -196.781438 
L 216.821263 -198.229183 
L 219.460841 -199.676929 
L 221.694368 -201.124675 
L 223.519688 -202.572421 
L 224.959977 -204.020166 
L 226.056993 -205.467912 
L 226.863366 -206.915658 
L 227.435297 -208.363404 
L 229.530953 -208.363404 
L 229.530953 -208.363404 
L 230.102884 -206.915658 
L 230.909257 -205.467912 
L 232.006273 -204.020166 
L 233.446562 -202.572421 
L 235.271882 -201.124675 
L 237.505409 -199.676929 
L 240.144987 -198.229183 
L 243.158804 -196.781438 
L 246.48466 -195.333692 
L 250.033371 -193.885946 
L 253.696045 -192.4382 
L 257.354138 -190.990455 
L 260.890658 -189.542709 
L 264.200727 -188.094963 
L 267.19997 -186.647217 
L 269.829767 -185.199471 
L 272.059068 -183.751726 
L 273.88303 -182.30398 
L 275.319162 -180.856234 
L 276.401782 -179.408488 
L 277.175648 -177.960743 
L 277.689551 -176.512997 
L 277.990583 -175.065251 
L 278.119741 -173.617505 
L 278.109346 -172.16976 
L 277.982583 -170.722014 
L 277.755112 -169.274268 
L 277.438307 -167.826522 
L 277.04333 -166.378777 
L 276.584978 -164.931031 
L 276.084225 -163.483285 
L 275.568664 -162.035539 
L 275.070513 -160.587793 
L 274.622558 -159.140048 
L 274.252956 -157.692302 
L 273.980259 -156.244556 
L 273.809995 -154.79681 
L 273.733789 -153.349065 
L 273.731313 -151.901319 
L 273.774635 -150.453573 
L 273.833933 -149.005827 
L 273.883297 -147.558082 
L 273.905474 -146.110336 
L 273.894777 -144.66259 
L 273.857913 -143.214844 
L 273.812838 -141.767099 
L 273.786042 -140.319353 
L 273.808693 -138.871607 
L 273.912102 -137.423861 
L 274.12296 -135.976115 
L 274.45888 -134.52837 
L 274.924867 -133.080624 
L 275.511306 -131.632878 
L 276.193932 -130.185132 
L 276.935879 -128.737387 
L 277.69153 -127.289641 
L 278.411474 -125.841895 
L 279.047741 -124.394149 
L 279.558486 -122.946404 
L 279.911545 -121.498658 
L 280.086625 -120.050912 
L 280.07617 -118.603166 
L 279.885115 -117.155421 
L 279.529797 -115.707675 
L 279.036218 -114.259929 
L 278.437759 -112.812183 
L 277.772402 -111.364437 
L 277.079507 -109.916692 
L 276.396328 -108.468946 
L 275.754541 -107.0212 
L 275.177211 -105.573454 
L 274.676616 -104.125709 
L 274.253243 -102.677963 
L 273.896002 -101.230217 
L 273.583391 -99.782471 
L 273.285062 -98.334726 
L 272.963212 -96.88698 
L 272.573429 -95.439234 
L 272.065083 -93.991488 
L 271.3819 -92.543742 
L 270.463695 -91.095997 
L 269.250236 -89.648251 
L 267.687654 -88.200505 
L 265.736975 -86.752759 
L 263.383319 -85.305014 
L 260.643643 -83.857268 
L 257.570758 -82.409522 
L 254.251967 -80.961776 
L 250.801834 -79.514031 
L 247.350034 -78.066285 
L 244.026475 -76.618539 
L 240.94653 -75.170793 
L 238.199139 -73.723048 
L 235.839726 -72.275302 
L 233.888692 -70.827556 
L 232.334969 -69.37981 
L 231.143186 -67.932064 
L 230.262548 -66.484319 
L 229.635602 -65.036573 
z
" style="stroke: #3e3e3e; stroke-width: 3"/>
    </defs>
    <g clip-path="url(#p2ba414a21a)">
     <use xlink:href="#m832a40ab67" x="0" y="288" style="fill: #477ca8; stroke: #3e3e3e; stroke-width: 3"/>
    </g>
   </g>
   <g id="PolyCollection_3">
    <defs>
     <path id="mc30ec426bd" d="M 361.153423 -88.707633 
L 353.830327 -88.707633 
L 352.071442 -90.152655 
L 349.730408 -91.597677 
L 346.738919 -93.042699 
L 343.072791 -94.48772 
L 338.770127 -95.932742 
L 333.94387 -97.377764 
L 328.78443 -98.822786 
L 323.549371 -100.267807 
L 318.53964 -101.712829 
L 314.064913 -103.157851 
L 310.403591 -104.602873 
L 307.76479 -106.047894 
L 306.259759 -107.492916 
L 305.888375 -108.937938 
L 306.543111 -110.38296 
L 308.029105 -111.827981 
L 310.095666 -113.273003 
L 312.472661 -114.718025 
L 314.905 -116.163046 
L 317.179845 -117.608068 
L 319.143487 -119.05309 
L 320.707426 -120.498112 
L 321.845222 -121.943133 
L 322.582967 -123.388155 
L 322.986426 -124.833177 
L 323.147519 -126.278199 
L 323.171871 -127.72322 
L 323.168279 -129.168242 
L 323.240196 -130.613264 
L 323.478861 -132.058286 
L 323.957689 -133.503307 
L 324.727649 -134.948329 
L 325.813713 -136.393351 
L 327.212796 -137.838373 
L 328.893739 -139.283394 
L 330.79985 -140.728416 
L 332.854175 -142.173438 
L 334.967156 -143.61846 
L 337.045826 -145.063481 
L 339.003262 -146.508503 
L 340.766949 -147.953525 
L 342.28487 -149.398547 
L 343.52861 -150.843568 
L 344.49335 -152.28859 
L 345.195127 -153.733612 
L 345.666134 -155.178634 
L 345.948988 -156.623655 
L 346.090855 -158.068677 
L 346.138161 -159.513699 
L 346.132397 -160.958721 
L 346.107302 -162.403742 
L 346.087487 -163.848764 
L 346.088412 -165.293786 
L 346.117445 -166.738808 
L 346.175638 -168.183829 
L 346.259794 -169.628851 
L 346.364391 -171.073873 
L 346.483053 -172.518895 
L 346.60939 -173.963916 
L 346.737229 -175.408938 
L 346.860422 -176.85396 
L 346.972523 -178.298981 
L 347.06663 -179.744003 
L 347.135636 -181.189025 
L 347.172962 -182.634047 
L 347.173681 -184.079068 
L 347.13579 -185.52409 
L 347.061303 -186.969112 
L 346.956848 -188.414134 
L 346.833513 -189.859155 
L 346.70591 -191.304177 
L 346.590534 -192.749199 
L 346.503709 -194.194221 
L 346.4595 -195.639242 
L 346.46797 -197.084264 
L 346.534135 -198.529286 
L 346.657847 -199.974308 
L 346.83464 -201.419329 
L 347.057435 -202.864351 
L 347.318773 -204.309373 
L 347.613117 -205.754395 
L 347.938679 -207.199416 
L 348.298276 -208.644438 
L 348.698894 -210.08946 
L 349.14991 -211.534482 
L 349.660312 -212.979503 
L 350.235513 -214.424525 
L 350.874572 -215.869547 
L 351.568545 -217.314569 
L 352.300448 -218.75959 
L 353.046903 -220.204612 
L 353.781119 -221.649634 
L 354.476512 -223.094656 
L 355.110172 -224.539677 
L 355.665482 -225.984699 
L 356.133459 -227.429721 
L 356.512723 -228.874743 
L 356.808354 -230.319764 
L 357.030034 -231.764786 
L 357.953716 -231.764786 
L 357.953716 -231.764786 
L 358.175396 -230.319764 
L 358.471027 -228.874743 
L 358.850291 -227.429721 
L 359.318268 -225.984699 
L 359.873578 -224.539677 
L 360.507238 -223.094656 
L 361.202631 -221.649634 
L 361.936847 -220.204612 
L 362.683302 -218.75959 
L 363.415205 -217.314569 
L 364.109178 -215.869547 
L 364.748237 -214.424525 
L 365.323438 -212.979503 
L 365.83384 -211.534482 
L 366.284856 -210.08946 
L 366.685474 -208.644438 
L 367.045071 -207.199416 
L 367.370633 -205.754395 
L 367.664977 -204.309373 
L 367.926315 -202.864351 
L 368.14911 -201.419329 
L 368.325903 -199.974308 
L 368.449615 -198.529286 
L 368.51578 -197.084264 
L 368.52425 -195.639242 
L 368.480041 -194.194221 
L 368.393216 -192.749199 
L 368.27784 -191.304177 
L 368.150237 -189.859155 
L 368.026902 -188.414134 
L 367.922447 -186.969112 
L 367.84796 -185.52409 
L 367.810069 -184.079068 
L 367.810788 -182.634047 
L 367.848114 -181.189025 
L 367.91712 -179.744003 
L 368.011227 -178.298981 
L 368.123328 -176.85396 
L 368.246521 -175.408938 
L 368.37436 -173.963916 
L 368.500697 -172.518895 
L 368.619359 -171.073873 
L 368.723956 -169.628851 
L 368.808112 -168.183829 
L 368.866305 -166.738808 
L 368.895338 -165.293786 
L 368.896263 -163.848764 
L 368.876448 -162.403742 
L 368.851353 -160.958721 
L 368.845589 -159.513699 
L 368.892895 -158.068677 
L 369.034762 -156.623655 
L 369.317616 -155.178634 
L 369.788623 -153.733612 
L 370.4904 -152.28859 
L 371.45514 -150.843568 
L 372.69888 -149.398547 
L 374.216801 -147.953525 
L 375.980488 -146.508503 
L 377.937924 -145.063481 
L 380.016594 -143.61846 
L 382.129575 -142.173438 
L 384.1839 -140.728416 
L 386.090011 -139.283394 
L 387.770954 -137.838373 
L 389.170037 -136.393351 
L 390.256101 -134.948329 
L 391.026061 -133.503307 
L 391.504889 -132.058286 
L 391.743554 -130.613264 
L 391.815471 -129.168242 
L 391.811879 -127.72322 
L 391.836231 -126.278199 
L 391.997324 -124.833177 
L 392.400783 -123.388155 
L 393.138528 -121.943133 
L 394.276324 -120.498112 
L 395.840263 -119.05309 
L 397.803905 -117.608068 
L 400.07875 -116.163046 
L 402.511089 -114.718025 
L 404.888084 -113.273003 
L 406.954645 -111.827981 
L 408.440639 -110.38296 
L 409.095375 -108.937938 
L 408.723991 -107.492916 
L 407.21896 -106.047894 
L 404.580159 -104.602873 
L 400.918837 -103.157851 
L 396.44411 -101.712829 
L 391.434379 -100.267807 
L 386.19932 -98.822786 
L 381.03988 -97.377764 
L 376.213623 -95.932742 
L 371.910959 -94.48772 
L 368.244831 -93.042699 
L 365.253342 -91.597677 
L 362.912308 -90.152655 
L 361.153423 -88.707633 
z
" style="stroke: #3e3e3e; stroke-width: 3"/>
    </defs>
    <g clip-path="url(#p2ba414a21a)">
     <use xlink:href="#mc30ec426bd" x="0" y="288" style="fill: #59a257; stroke: #3e3e3e; stroke-width: 3"/>
    </g>
   </g>
   <g id="PolyCollection_4">
    <defs>
     <path id="m82984974f1" d="M 488.587266 -60.735656 
L 484.413984 -60.735656 
L 483.393873 -62.329579 
L 482.074684 -63.923503 
L 480.467461 -65.517426 
L 478.631523 -67.111349 
L 476.679841 -68.705272 
L 474.773025 -70.299195 
L 473.100269 -71.893119 
L 471.849416 -73.487042 
L 471.172322 -75.080965 
L 471.154066 -76.674888 
L 471.794322 -78.268811 
L 473.005942 -79.862735 
L 474.630698 -81.456658 
L 476.467003 -83.050581 
L 478.301302 -84.644504 
L 479.9348 -86.238427 
L 481.200066 -87.832351 
L 481.966664 -89.426274 
L 482.139308 -91.020197 
L 481.654643 -92.61412 
L 480.482521 -94.208043 
L 478.634853 -95.801967 
L 476.18058 -97.39589 
L 473.260848 -98.989813 
L 470.09577 -100.583736 
L 466.974723 -102.177659 
L 464.226248 -103.771582 
L 462.170342 -105.365506 
L 461.0628 -106.959429 
L 461.045635 -108.553352 
L 462.117232 -110.147275 
L 464.130568 -111.741198 
L 466.81936 -113.335122 
L 469.843499 -114.929045 
L 472.840067 -116.522968 
L 475.466267 -118.116891 
L 477.425691 -119.710814 
L 478.477154 -121.304738 
L 478.432731 -122.898661 
L 477.155866 -124.492584 
L 474.569677 -126.086507 
L 470.680113 -127.68043 
L 465.610079 -129.274354 
L 459.632216 -130.868277 
L 453.183059 -132.4622 
L 446.842768 -134.056123 
L 441.273059 -135.650046 
L 437.119544 -137.24397 
L 434.898542 -138.837893 
L 434.897125 -140.431816 
L 437.114353 -142.025739 
L 441.260853 -143.619662 
L 446.816676 -145.213586 
L 453.130143 -146.807509 
L 459.529673 -148.401432 
L 465.419991 -149.995355 
L 470.342962 -151.589278 
L 473.997499 -153.183202 
L 476.226734 -154.777125 
L 476.989075 -156.371048 
L 476.330854 -157.964971 
L 474.372476 -159.558894 
L 471.310371 -161.152818 
L 467.427392 -162.746741 
L 463.098233 -164.340664 
L 458.776222 -165.934587 
L 454.953804 -167.52851 
L 452.099079 -169.122434 
L 450.581319 -170.716357 
L 450.605062 -172.31028 
L 452.172265 -173.904203 
L 455.084659 -175.498126 
L 458.986508 -177.09205 
L 463.435958 -178.685973 
L 467.985582 -180.279896 
L 472.252038 -181.873819 
L 475.960514 -183.467742 
L 478.958979 -185.061666 
L 481.206401 -186.655589 
L 482.74492 -188.249512 
L 483.667456 -189.843435 
L 484.089795 -191.437358 
L 484.131807 -193.031282 
L 483.907993 -194.625205 
L 483.524482 -196.219128 
L 483.078495 -197.813051 
L 482.657018 -199.406974 
L 482.333194 -201.000898 
L 482.160968 -202.594821 
L 482.16994 -204.188744 
L 482.362747 -205.782667 
L 482.716591 -207.37659 
L 483.189157 -208.970514 
L 483.727647 -210.564437 
L 484.278744 -212.15836 
L 484.797138 -213.752283 
L 485.250946 -215.346206 
L 485.623424 -216.94013 
L 485.911456 -218.534053 
L 487.089794 -218.534053 
L 487.089794 -218.534053 
L 487.377826 -216.94013 
L 487.750304 -215.346206 
L 488.204112 -213.752283 
L 488.722506 -212.15836 
L 489.273603 -210.564437 
L 489.812093 -208.970514 
L 490.284659 -207.37659 
L 490.638503 -205.782667 
L 490.83131 -204.188744 
L 490.840282 -202.594821 
L 490.668056 -201.000898 
L 490.344232 -199.406974 
L 489.922755 -197.813051 
L 489.476768 -196.219128 
L 489.093257 -194.625205 
L 488.869443 -193.031282 
L 488.911455 -191.437358 
L 489.333794 -189.843435 
L 490.25633 -188.249512 
L 491.794849 -186.655589 
L 494.042271 -185.061666 
L 497.040736 -183.467742 
L 500.749212 -181.873819 
L 505.015668 -180.279896 
L 509.565292 -178.685973 
L 514.014742 -177.09205 
L 517.916591 -175.498126 
L 520.828985 -173.904203 
L 522.396188 -172.31028 
L 522.419931 -170.716357 
L 520.902171 -169.122434 
L 518.047446 -167.52851 
L 514.225028 -165.934587 
L 509.903017 -164.340664 
L 505.573858 -162.746741 
L 501.690879 -161.152818 
L 498.628774 -159.558894 
L 496.670396 -157.964971 
L 496.012175 -156.371048 
L 496.774516 -154.777125 
L 499.003751 -153.183202 
L 502.658288 -151.589278 
L 507.581259 -149.995355 
L 513.471577 -148.401432 
L 519.871107 -146.807509 
L 526.184574 -145.213586 
L 531.740397 -143.619662 
L 535.886897 -142.025739 
L 538.104125 -140.431816 
L 538.102708 -138.837893 
L 535.881706 -137.24397 
L 531.728191 -135.650046 
L 526.158482 -134.056123 
L 519.818191 -132.4622 
L 513.369034 -130.868277 
L 507.391171 -129.274354 
L 502.321137 -127.68043 
L 498.431573 -126.086507 
L 495.845384 -124.492584 
L 494.568519 -122.898661 
L 494.524096 -121.304738 
L 495.575559 -119.710814 
L 497.534983 -118.116891 
L 500.161183 -116.522968 
L 503.157751 -114.929045 
L 506.18189 -113.335122 
L 508.870682 -111.741198 
L 510.884018 -110.147275 
L 511.955615 -108.553352 
L 511.93845 -106.959429 
L 510.830908 -105.365506 
L 508.775002 -103.771582 
L 506.026527 -102.177659 
L 502.90548 -100.583736 
L 499.740402 -98.989813 
L 496.82067 -97.39589 
L 494.366397 -95.801967 
L 492.518729 -94.208043 
L 491.346607 -92.61412 
L 490.861942 -91.020197 
L 491.034586 -89.426274 
L 491.801184 -87.832351 
L 493.06645 -86.238427 
L 494.699948 -84.644504 
L 496.534247 -83.050581 
L 498.370552 -81.456658 
L 499.995308 -79.862735 
L 501.206928 -78.268811 
L 501.847184 -76.674888 
L 501.828928 -75.080965 
L 501.151834 -73.487042 
L 499.900981 -71.893119 
L 498.228225 -70.299195 
L 496.321409 -68.705272 
L 494.369727 -67.111349 
L 492.533789 -65.517426 
L 490.926566 -63.923503 
L 489.607377 -62.329579 
L 488.587266 -60.735656 
z
" style="stroke: #3e3e3e; stroke-width: 3"/>
    </defs>
    <g clip-path="url(#p2ba414a21a)">
     <use xlink:href="#m82984974f1" x="0" y="288" style="fill: #905998; stroke: #3e3e3e; stroke-width: 3"/>
    </g>
   </g>
   <g id="PolyCollection_5">
    <defs>
     <path id="mca7cc5035f" d="M 619.886286 -70.284747 
L 611.132464 -70.284747 
L 609.562743 -71.49597 
L 607.633284 -72.707193 
L 605.340176 -73.918416 
L 602.709692 -75.12964 
L 599.804001 -76.340863 
L 596.723377 -77.552086 
L 593.603641 -78.763309 
L 590.60819 -79.974532 
L 587.914846 -81.185756 
L 585.698776 -82.396979 
L 584.113645 -83.608202 
L 583.273718 -84.819425 
L 583.239701 -86.030648 
L 584.010616 -87.241872 
L 585.522979 -88.453095 
L 587.657317 -89.664318 
L 590.250764 -90.875541 
L 593.113509 -92.086764 
L 596.046397 -93.297988 
L 598.857141 -94.509211 
L 601.373184 -95.720434 
L 603.450297 -96.931657 
L 604.977001 -98.14288 
L 605.875765 -99.354104 
L 606.102436 -100.565327 
L 605.645312 -101.77655 
L 604.524891 -102.987773 
L 602.794543 -104.198996 
L 600.541608 -105.41022 
L 597.887688 -106.621443 
L 594.98667 -107.832666 
L 592.01909 -109.043889 
L 589.182107 -110.255112 
L 586.675278 -111.466335 
L 584.683381 -112.677559 
L 583.358445 -113.888782 
L 582.803637 -115.100005 
L 583.061616 -116.311228 
L 584.109281 -117.522451 
L 585.859793 -118.733675 
L 588.17142 -119.944898 
L 590.861597 -121.156121 
L 593.723785 -122.367344 
L 596.544494 -123.578567 
L 599.118209 -124.789791 
L 601.258796 -126.001014 
L 602.807053 -127.212237 
L 603.635068 -128.42346 
L 603.648787 -129.634683 
L 602.790337 -130.845907 
L 601.04134 -132.05713 
L 598.427635 -133.268353 
L 595.024791 -134.479576 
L 590.962782 -135.690799 
L 586.427605 -136.902023 
L 581.657494 -138.113246 
L 576.932063 -139.324469 
L 572.553882 -140.535692 
L 568.823643 -141.746915 
L 566.011615 -142.958139 
L 564.329333 -144.169362 
L 563.905875 -145.380585 
L 564.772646 -146.591808 
L 566.859231 -147.803031 
L 570.000988 -149.014255 
L 573.956965 -150.225478 
L 578.435023 -151.436701 
L 583.120011 -152.647924 
L 587.700762 -153.859147 
L 591.892493 -155.07037 
L 595.45258 -156.281594 
L 598.189423 -157.492817 
L 599.965547 -158.70404 
L 600.697081 -159.915263 
L 600.351993 -161.126486 
L 598.94895 -162.33771 
L 596.557665 -163.548933 
L 593.300284 -164.760156 
L 589.352252 -165.971379 
L 584.940401 -167.182602 
L 580.335993 -168.393826 
L 575.841225 -169.605049 
L 571.769013 -170.816272 
L 568.417566 -172.027495 
L 566.042736 -173.238718 
L 564.8322 -174.449942 
L 564.885691 -175.661165 
L 566.204771 -176.872388 
L 568.694117 -178.083611 
L 572.174294 -179.294834 
L 576.403988 -180.506058 
L 581.108114 -181.717281 
L 586.007419 -182.928504 
L 590.845302 -184.139727 
L 595.408464 -185.35095 
L 599.539435 -186.562174 
L 603.140584 -187.773397 
L 606.17065 -188.98462 
L 608.635776 -190.195843 
L 622.382974 -190.195843 
L 622.382974 -190.195843 
L 624.8481 -188.98462 
L 627.878166 -187.773397 
L 631.479315 -186.562174 
L 635.610286 -185.35095 
L 640.173448 -184.139727 
L 645.011331 -182.928504 
L 649.910636 -181.717281 
L 654.614762 -180.506058 
L 658.844456 -179.294834 
L 662.324633 -178.083611 
L 664.813979 -176.872388 
L 666.133059 -175.661165 
L 666.18655 -174.449942 
L 664.976014 -173.238718 
L 662.601184 -172.027495 
L 659.249737 -170.816272 
L 655.177525 -169.605049 
L 650.682757 -168.393826 
L 646.078349 -167.182602 
L 641.666498 -165.971379 
L 637.718466 -164.760156 
L 634.461085 -163.548933 
L 632.0698 -162.33771 
L 630.666757 -161.126486 
L 630.321669 -159.915263 
L 631.053203 -158.70404 
L 632.829327 -157.492817 
L 635.56617 -156.281594 
L 639.126257 -155.07037 
L 643.317988 -153.859147 
L 647.898739 -152.647924 
L 652.583727 -151.436701 
L 657.061785 -150.225478 
L 661.017762 -149.014255 
L 664.159519 -147.803031 
L 666.246104 -146.591808 
L 667.112875 -145.380585 
L 666.689417 -144.169362 
L 665.007135 -142.958139 
L 662.195107 -141.746915 
L 658.464868 -140.535692 
L 654.086687 -139.324469 
L 649.361256 -138.113246 
L 644.591145 -136.902023 
L 640.055968 -135.690799 
L 635.993959 -134.479576 
L 632.591115 -133.268353 
L 629.97741 -132.05713 
L 628.228413 -130.845907 
L 627.369963 -129.634683 
L 627.383682 -128.42346 
L 628.211697 -127.212237 
L 629.759954 -126.001014 
L 631.900541 -124.789791 
L 634.474256 -123.578567 
L 637.294965 -122.367344 
L 640.157153 -121.156121 
L 642.84733 -119.944898 
L 645.158957 -118.733675 
L 646.909469 -117.522451 
L 647.957134 -116.311228 
L 648.215113 -115.100005 
L 647.660305 -113.888782 
L 646.335369 -112.677559 
L 644.343472 -111.466335 
L 641.836643 -110.255112 
L 638.99966 -109.043889 
L 636.03208 -107.832666 
L 633.131062 -106.621443 
L 630.477142 -105.41022 
L 628.224207 -104.198996 
L 626.493859 -102.987773 
L 625.373438 -101.77655 
L 624.916314 -100.565327 
L 625.142985 -99.354104 
L 626.041749 -98.14288 
L 627.568453 -96.931657 
L 629.645566 -95.720434 
L 632.161609 -94.509211 
L 634.972353 -93.297988 
L 637.905241 -92.086764 
L 640.767986 -90.875541 
L 643.361433 -89.664318 
L 645.495771 -88.453095 
L 647.008134 -87.241872 
L 647.779049 -86.030648 
L 647.745032 -84.819425 
L 646.905105 -83.608202 
L 645.319974 -82.396979 
L 643.103904 -81.185756 
L 640.41056 -79.974532 
L 637.415109 -78.763309 
L 634.295373 -77.552086 
L 631.214749 -76.340863 
L 628.309058 -75.12964 
L 625.678574 -73.918416 
L 623.385466 -72.707193 
L 621.456007 -71.49597 
L 619.886286 -70.284747 
z
" style="stroke: #3e3e3e; stroke-width: 3"/>
    </defs>
    <g clip-path="url(#p2ba414a21a)">
     <use xlink:href="#mca7cc5035f" x="0" y="288" style="fill: #df7f20; stroke: #3e3e3e; stroke-width: 3"/>
    </g>
   </g>
   <g id="PolyCollection_6">
    <defs>
     <path id="m17f48e3ec4" d="M 745.749435 -64.07419 
L 743.286815 -64.07419 
L 742.648607 -65.515725 
L 741.767935 -66.95726 
L 740.596307 -68.398795 
L 739.093628 -69.840329 
L 737.235694 -71.281864 
L 735.021159 -72.723399 
L 732.476367 -74.164934 
L 729.65658 -75.606469 
L 726.642653 -77.048004 
L 723.533157 -78.489539 
L 720.432999 -79.931074 
L 717.440536 -81.372609 
L 714.635693 -82.814144 
L 712.071473 -84.255679 
L 709.770531 -85.697214 
L 707.727326 -87.138749 
L 705.915072 -88.580284 
L 704.295688 -90.021819 
L 702.830367 -91.463354 
L 701.488436 -92.904888 
L 700.252802 -94.346423 
L 699.121217 -95.787958 
L 698.103629 -97.229493 
L 697.216754 -98.671028 
L 696.477467 -100.112563 
L 695.89667 -101.554098 
L 695.474987 -102.995633 
L 695.201018 -104.437168 
L 695.05227 -105.878703 
L 694.998317 -107.320238 
L 695.005321 -108.761773 
L 695.040967 -110.203308 
L 695.078841 -111.644843 
L 695.101558 -113.086378 
L 695.102206 -114.527913 
L 695.084026 -115.969447 
L 695.058528 -117.410982 
L 695.042509 -118.852517 
L 695.05458 -120.294052 
L 695.111821 -121.735587 
L 695.227119 -123.177122 
L 695.407515 -124.618657 
L 695.653645 -126.060192 
L 695.960076 -127.501727 
L 696.316199 -128.943262 
L 696.707248 -130.384797 
L 697.115177 -131.826332 
L 697.519294 -133.267867 
L 697.896834 -134.709402 
L 698.223753 -136.150937 
L 698.476067 -137.592472 
L 698.631807 -139.034007 
L 698.673433 -140.475541 
L 698.590204 -141.917076 
L 698.379939 -143.358611 
L 698.049656 -144.800146 
L 697.614886 -146.241681 
L 697.097821 -147.683216 
L 696.524805 -149.124751 
L 695.923771 -150.566286 
L 695.322155 -152.007821 
L 694.745576 -153.449356 
L 694.217227 -154.890891 
L 693.75771 -156.332426 
L 693.384927 -157.773961 
L 693.113705 -159.215496 
L 692.954984 -160.657031 
L 692.914625 -162.098566 
L 692.992075 -163.5401 
L 693.179269 -164.981635 
L 693.46025 -166.42317 
L 693.811941 -167.864705 
L 694.206446 -169.30624 
L 694.615002 -170.747775 
L 695.013398 -172.18931 
L 695.388277 -173.630845 
L 695.743364 -175.07238 
L 696.104341 -176.513915 
L 696.521061 -177.95545 
L 697.065952 -179.396985 
L 697.828023 -180.83852 
L 698.902646 -182.280055 
L 700.3782 -183.72159 
L 702.321525 -185.163125 
L 704.76469 -186.604659 
L 707.695665 -188.046194 
L 711.054985 -189.487729 
L 714.739471 -190.929264 
L 718.612696 -192.370799 
L 722.520496 -193.812334 
L 726.308809 -195.253869 
L 729.840708 -196.695404 
L 733.009786 -198.136939 
L 735.747991 -199.578474 
L 738.02728 -201.020009 
L 739.855732 -202.461544 
L 741.269682 -203.903079 
L 742.323924 -205.344614 
L 743.081928 -206.786149 
L 745.954322 -206.786149 
L 745.954322 -206.786149 
L 746.712326 -205.344614 
L 747.766568 -203.903079 
L 749.180518 -202.461544 
L 751.00897 -201.020009 
L 753.288259 -199.578474 
L 756.026464 -198.136939 
L 759.195542 -196.695404 
L 762.727441 -195.253869 
L 766.515754 -193.812334 
L 770.423554 -192.370799 
L 774.296779 -190.929264 
L 777.981265 -189.487729 
L 781.340585 -188.046194 
L 784.27156 -186.604659 
L 786.714725 -185.163125 
L 788.65805 -183.72159 
L 790.133604 -182.280055 
L 791.208227 -180.83852 
L 791.970298 -179.396985 
L 792.515189 -177.95545 
L 792.931909 -176.513915 
L 793.292886 -175.07238 
L 793.647973 -173.630845 
L 794.022852 -172.18931 
L 794.421248 -170.747775 
L 794.829804 -169.30624 
L 795.224309 -167.864705 
L 795.576 -166.42317 
L 795.856981 -164.981635 
L 796.044175 -163.5401 
L 796.121625 -162.098566 
L 796.081266 -160.657031 
L 795.922545 -159.215496 
L 795.651323 -157.773961 
L 795.27854 -156.332426 
L 794.819023 -154.890891 
L 794.290674 -153.449356 
L 793.714095 -152.007821 
L 793.112479 -150.566286 
L 792.511445 -149.124751 
L 791.938429 -147.683216 
L 791.421364 -146.241681 
L 790.986594 -144.800146 
L 790.656311 -143.358611 
L 790.446046 -141.917076 
L 790.362817 -140.475541 
L 790.404443 -139.034007 
L 790.560183 -137.592472 
L 790.812497 -136.150937 
L 791.139416 -134.709402 
L 791.516956 -133.267867 
L 791.921073 -131.826332 
L 792.329002 -130.384797 
L 792.720051 -128.943262 
L 793.076174 -127.501727 
L 793.382605 -126.060192 
L 793.628735 -124.618657 
L 793.809131 -123.177122 
L 793.924429 -121.735587 
L 793.98167 -120.294052 
L 793.993741 -118.852517 
L 793.977722 -117.410982 
L 793.952224 -115.969447 
L 793.934044 -114.527913 
L 793.934692 -113.086378 
L 793.957409 -111.644843 
L 793.995283 -110.203308 
L 794.030929 -108.761773 
L 794.037933 -107.320238 
L 793.98398 -105.878703 
L 793.835232 -104.437168 
L 793.561263 -102.995633 
L 793.13958 -101.554098 
L 792.558783 -100.112563 
L 791.819496 -98.671028 
L 790.932621 -97.229493 
L 789.915033 -95.787958 
L 788.783448 -94.346423 
L 787.547814 -92.904888 
L 786.205883 -91.463354 
L 784.740562 -90.021819 
L 783.121178 -88.580284 
L 781.308924 -87.138749 
L 779.265719 -85.697214 
L 776.964777 -84.255679 
L 774.400557 -82.814144 
L 771.595714 -81.372609 
L 768.603251 -79.931074 
L 765.503093 -78.489539 
L 762.393597 -77.048004 
L 759.37967 -75.606469 
L 756.559883 -74.164934 
L 754.015091 -72.723399 
L 751.800556 -71.281864 
L 749.942622 -69.840329 
L 748.439943 -68.398795 
L 747.268315 -66.95726 
L 746.387643 -65.515725 
L 745.749435 -64.07419 
z
" style="stroke: #3e3e3e; stroke-width: 3"/>
    </defs>
    <g clip-path="url(#p2ba414a21a)">
     <use xlink:href="#m17f48e3ec4" x="0" y="288" style="fill: #e6e64c; stroke: #3e3e3e; stroke-width: 3"/>
    </g>
   </g>
   <g id="PolyCollection_7">
    <defs>
     <path id="m7bbd0c79df" d="M 874.194683 -42.351818 
L 872.859067 -42.351818 
L 872.508393 -44.048071 
L 872.049276 -45.744323 
L 871.487671 -47.440576 
L 870.849767 -49.136828 
L 870.183597 -50.833081 
L 869.55514 -52.529334 
L 869.038498 -54.225586 
L 868.70185 -55.921839 
L 868.59274 -57.618091 
L 868.727068 -59.314344 
L 869.08529 -61.010596 
L 869.617079 -62.706849 
L 870.252906 -64.403101 
L 870.918874 -66.099354 
L 871.550418 -67.795607 
L 872.101459 -69.491859 
L 872.547461 -71.188112 
L 872.882916 -72.884364 
L 873.115042 -74.580617 
L 873.255832 -76.276869 
L 873.314081 -77.973122 
L 873.288248 -79.669374 
L 873.160521 -81.365627 
L 872.892488 -83.06188 
L 872.42354 -84.758132 
L 871.673961 -86.454385 
L 870.555113 -88.150637 
L 868.988308 -89.84689 
L 866.931494 -91.543142 
L 864.40903 -93.239395 
L 861.535928 -94.935648 
L 858.525953 -96.6319 
L 855.674985 -98.328153 
L 853.317551 -100.024405 
L 851.763782 -101.720658 
L 851.232736 -103.41691 
L 851.801762 -105.113163 
L 853.388024 -106.809415 
L 855.768265 -108.505668 
L 858.630318 -110.201921 
L 861.639943 -111.898173 
L 864.503337 -113.594426 
L 867.00954 -115.290678 
L 869.045702 -116.986931 
L 870.58737 -118.683183 
L 871.672223 -120.379436 
L 872.367336 -122.075688 
L 872.738022 -123.771941 
L 872.822527 -125.468194 
L 872.61377 -127.164446 
L 872.048195 -128.860699 
L 871.00286 -130.556951 
L 869.304042 -132.253204 
L 866.752104 -133.949456 
L 863.166031 -135.645709 
L 858.445784 -137.341962 
L 852.641958 -139.038214 
L 846.013124 -140.734467 
L 839.046484 -142.430719 
L 832.421667 -144.126972 
L 826.912163 -145.823224 
L 823.240484 -147.519477 
L 821.923375 -149.215729 
L 823.152568 -150.911982 
L 826.749028 -152.608235 
L 832.205703 -154.304487 
L 838.804745 -156.00074 
L 845.771846 -157.696992 
L 852.422148 -159.393245 
L 858.26089 -161.089497 
L 863.021936 -162.78575 
L 866.649069 -164.482002 
L 869.239999 -166.178255 
L 870.977602 -167.874508 
L 872.068441 -169.57076 
L 872.699495 -171.267013 
L 873.015093 -172.963265 
L 873.110266 -174.659518 
L 873.034752 -176.35577 
L 872.802767 -178.052023 
L 872.405636 -179.748276 
L 871.826059 -181.444528 
L 871.053263 -183.140781 
L 870.097625 -184.837033 
L 869.002076 -186.533286 
L 867.846712 -188.229538 
L 866.743607 -189.925791 
L 865.820991 -191.622043 
L 865.199498 -193.318296 
L 864.966448 -195.014549 
L 865.155748 -196.710801 
L 865.739812 -198.407054 
L 866.636153 -200.103306 
L 867.726489 -201.799559 
L 868.882253 -203.495811 
L 869.98898 -205.192064 
L 870.96333 -206.888316 
L 871.759869 -208.584569 
L 872.368268 -210.280822 
L 874.685482 -210.280822 
L 874.685482 -210.280822 
L 875.293881 -208.584569 
L 876.09042 -206.888316 
L 877.06477 -205.192064 
L 878.171497 -203.495811 
L 879.327261 -201.799559 
L 880.417597 -200.103306 
L 881.313938 -198.407054 
L 881.898002 -196.710801 
L 882.087302 -195.014549 
L 881.854252 -193.318296 
L 881.232759 -191.622043 
L 880.310143 -189.925791 
L 879.207038 -188.229538 
L 878.051674 -186.533286 
L 876.956125 -184.837033 
L 876.000487 -183.140781 
L 875.227691 -181.444528 
L 874.648114 -179.748276 
L 874.250983 -178.052023 
L 874.018998 -176.35577 
L 873.943484 -174.659518 
L 874.038657 -172.963265 
L 874.354255 -171.267013 
L 874.985309 -169.57076 
L 876.076148 -167.874508 
L 877.813751 -166.178255 
L 880.404681 -164.482002 
L 884.031814 -162.78575 
L 888.79286 -161.089497 
L 894.631602 -159.393245 
L 901.281904 -157.696992 
L 908.249005 -156.00074 
L 914.848047 -154.304487 
L 920.304722 -152.608235 
L 923.901182 -150.911982 
L 925.130375 -149.215729 
L 923.813266 -147.519477 
L 920.141587 -145.823224 
L 914.632083 -144.126972 
L 908.007266 -142.430719 
L 901.040626 -140.734467 
L 894.411792 -139.038214 
L 888.607966 -137.341962 
L 883.887719 -135.645709 
L 880.301646 -133.949456 
L 877.749708 -132.253204 
L 876.05089 -130.556951 
L 875.005555 -128.860699 
L 874.43998 -127.164446 
L 874.231223 -125.468194 
L 874.315728 -123.771941 
L 874.686414 -122.075688 
L 875.381527 -120.379436 
L 876.46638 -118.683183 
L 878.008048 -116.986931 
L 880.04421 -115.290678 
L 882.550413 -113.594426 
L 885.413807 -111.898173 
L 888.423432 -110.201921 
L 891.285485 -108.505668 
L 893.665726 -106.809415 
L 895.251988 -105.113163 
L 895.821014 -103.41691 
L 895.289968 -101.720658 
L 893.736199 -100.024405 
L 891.378765 -98.328153 
L 888.527797 -96.6319 
L 885.517822 -94.935648 
L 882.64472 -93.239395 
L 880.122256 -91.543142 
L 878.065442 -89.84689 
L 876.498637 -88.150637 
L 875.379789 -86.454385 
L 874.63021 -84.758132 
L 874.161262 -83.06188 
L 873.893229 -81.365627 
L 873.765502 -79.669374 
L 873.739669 -77.973122 
L 873.797918 -76.276869 
L 873.938708 -74.580617 
L 874.170834 -72.884364 
L 874.506289 -71.188112 
L 874.952291 -69.491859 
L 875.503332 -67.795607 
L 876.134876 -66.099354 
L 876.800844 -64.403101 
L 877.436671 -62.706849 
L 877.96846 -61.010596 
L 878.326682 -59.314344 
L 878.46101 -57.618091 
L 878.3519 -55.921839 
L 878.015252 -54.225586 
L 877.49861 -52.529334 
L 876.870153 -50.833081 
L 876.203983 -49.136828 
L 875.566079 -47.440576 
L 875.004474 -45.744323 
L 874.545357 -44.048071 
L 874.194683 -42.351818 
z
" style="stroke: #3e3e3e; stroke-width: 3"/>
    </defs>
    <g clip-path="url(#p2ba414a21a)">
     <use xlink:href="#m7bbd0c79df" x="0" y="288" style="fill: #965a38; stroke: #3e3e3e; stroke-width: 3"/>
    </g>
   </g>
   <g id="PolyCollection_8">
    <defs>
     <path id="me14ccd2045" d="M 1009.518567 -90.319798 
L 995.552683 -90.319798 
L 992.373107 -91.817458 
L 988.310733 -93.315119 
L 983.385061 -94.812779 
L 977.73861 -96.31044 
L 971.653787 -97.8081 
L 965.54478 -99.305761 
L 959.919311 -100.803421 
L 955.312496 -102.301082 
L 952.20348 -103.798742 
L 950.932125 -105.296402 
L 951.634994 -106.794063 
L 954.216183 -108.291723 
L 958.359754 -109.789384 
L 963.579669 -111.287044 
L 969.293745 -112.784705 
L 974.903512 -114.282365 
L 979.863177 -115.780026 
L 983.727245 -117.277686 
L 986.174933 -118.775346 
L 987.016943 -120.273007 
L 986.193813 -121.770667 
L 983.773956 -123.268328 
L 979.954539 -124.765988 
L 975.061994 -126.263649 
L 969.544122 -127.761309 
L 963.944738 -129.25897 
L 958.855598 -130.75663 
L 954.847726 -132.25429 
L 952.392667 -133.751951 
L 951.790274 -135.249611 
L 953.120616 -136.747272 
L 956.232807 -138.244932 
L 960.774203 -139.742593 
L 966.25285 -141.240253 
L 972.117816 -142.737914 
L 977.838912 -144.235574 
L 982.969849 -145.733234 
L 987.185791 -147.230895 
L 990.294566 -148.728555 
L 992.227652 -150.226216 
L 993.02037 -151.723876 
L 992.790089 -153.221537 
L 991.717699 -154.719197 
L 990.033065 -156.216857 
L 988.001569 -157.714518 
L 985.907632 -159.212178 
L 984.032402 -160.709839 
L 982.626027 -162.207499 
L 981.878488 -163.70516 
L 981.895301 -165.20282 
L 982.68452 -166.700481 
L 984.159049 -168.198141 
L 986.154386 -169.695801 
L 988.457756 -171.193462 
L 990.841889 -172.691122 
L 993.096118 -174.188783 
L 995.049182 -175.686443 
L 996.581268 -177.184104 
L 997.626075 -178.681764 
L 998.166081 -180.179425 
L 998.224911 -181.677085 
L 997.859877 -183.174745 
L 997.156007 -184.672406 
L 996.220986 -186.170066 
L 995.179231 -187.667727 
L 994.163329 -189.165387 
L 993.302102 -190.663048 
L 992.706258 -192.160708 
L 992.454174 -193.658369 
L 992.58112 -195.156029 
L 993.074803 -196.653689 
L 993.878665 -198.15135 
L 994.902289 -199.64901 
L 996.036428 -201.146671 
L 997.16918 -202.644331 
L 998.199935 -204.141992 
L 999.048887 -205.639652 
L 999.661498 -207.137313 
L 1000.008816 -208.634973 
L 1000.085417 -210.132633 
L 999.906716 -211.630294 
L 999.506733 -213.127954 
L 998.936339 -214.625615 
L 998.26112 -216.123275 
L 997.557667 -217.620936 
L 996.907416 -219.118596 
L 996.388097 -220.616257 
L 996.06392 -222.113917 
L 995.976545 -223.611577 
L 996.139044 -225.109238 
L 996.534554 -226.606898 
L 997.120149 -228.104559 
L 997.835073 -229.602219 
L 998.611391 -231.09988 
L 999.384615 -232.59754 
L 1000.102125 -234.0952 
L 1000.728041 -235.592861 
L 1001.244255 -237.090521 
L 1001.64829 -238.588182 
L 1003.42296 -238.588182 
L 1003.42296 -238.588182 
L 1003.826995 -237.090521 
L 1004.343209 -235.592861 
L 1004.969125 -234.0952 
L 1005.686635 -232.59754 
L 1006.459859 -231.09988 
L 1007.236177 -229.602219 
L 1007.951101 -228.104559 
L 1008.536696 -226.606898 
L 1008.932206 -225.109238 
L 1009.094705 -223.611577 
L 1009.00733 -222.113917 
L 1008.683153 -220.616257 
L 1008.163834 -219.118596 
L 1007.513583 -217.620936 
L 1006.81013 -216.123275 
L 1006.134911 -214.625615 
L 1005.564517 -213.127954 
L 1005.164534 -211.630294 
L 1004.985833 -210.132633 
L 1005.062434 -208.634973 
L 1005.409752 -207.137313 
L 1006.022363 -205.639652 
L 1006.871315 -204.141992 
L 1007.90207 -202.644331 
L 1009.034822 -201.146671 
L 1010.168961 -199.64901 
L 1011.192585 -198.15135 
L 1011.996447 -196.653689 
L 1012.49013 -195.156029 
L 1012.617076 -193.658369 
L 1012.364992 -192.160708 
L 1011.769148 -190.663048 
L 1010.907921 -189.165387 
L 1009.892019 -187.667727 
L 1008.850264 -186.170066 
L 1007.915243 -184.672406 
L 1007.211373 -183.174745 
L 1006.846339 -181.677085 
L 1006.905169 -180.179425 
L 1007.445175 -178.681764 
L 1008.489982 -177.184104 
L 1010.022068 -175.686443 
L 1011.975132 -174.188783 
L 1014.229361 -172.691122 
L 1016.613494 -171.193462 
L 1018.916864 -169.695801 
L 1020.912201 -168.198141 
L 1022.38673 -166.700481 
L 1023.175949 -165.20282 
L 1023.192762 -163.70516 
L 1022.445223 -162.207499 
L 1021.038848 -160.709839 
L 1019.163618 -159.212178 
L 1017.069681 -157.714518 
L 1015.038185 -156.216857 
L 1013.353551 -154.719197 
L 1012.281161 -153.221537 
L 1012.05088 -151.723876 
L 1012.843598 -150.226216 
L 1014.776684 -148.728555 
L 1017.885459 -147.230895 
L 1022.101401 -145.733234 
L 1027.232338 -144.235574 
L 1032.953434 -142.737914 
L 1038.8184 -141.240253 
L 1044.297047 -139.742593 
L 1048.838443 -138.244932 
L 1051.950634 -136.747272 
L 1053.280976 -135.249611 
L 1052.678583 -133.751951 
L 1050.223524 -132.25429 
L 1046.215652 -130.75663 
L 1041.126512 -129.25897 
L 1035.527128 -127.761309 
L 1030.009256 -126.263649 
L 1025.116711 -124.765988 
L 1021.297294 -123.268328 
L 1018.877437 -121.770667 
L 1018.054307 -120.273007 
L 1018.896317 -118.775346 
L 1021.344005 -117.277686 
L 1025.208073 -115.780026 
L 1030.167738 -114.282365 
L 1035.777505 -112.784705 
L 1041.491581 -111.287044 
L 1046.711496 -109.789384 
L 1050.855067 -108.291723 
L 1053.436256 -106.794063 
L 1054.139125 -105.296402 
L 1052.86777 -103.798742 
L 1049.758754 -102.301082 
L 1045.151939 -100.803421 
L 1039.52647 -99.305761 
L 1033.417463 -97.8081 
L 1027.33264 -96.31044 
L 1021.686189 -94.812779 
L 1016.760517 -93.315119 
L 1012.698143 -91.817458 
L 1009.518567 -90.319798 
z
" style="stroke: #3e3e3e; stroke-width: 3"/>
    </defs>
    <g clip-path="url(#p2ba414a21a)">
     <use xlink:href="#me14ccd2045" x="0" y="288" style="fill: #e890be; stroke: #3e3e3e; stroke-width: 3"/>
    </g>
   </g>
   <g id="line2d_8">
    <path d="M 99.474375 218.733838 
L 99.474375 68.713037 
" clip-path="url(#p2ba414a21a)" style="fill: none; stroke: #3e3e3e; stroke-width: 3; stroke-linecap: round"/>
   </g>
   <g id="line2d_9">
    <path d="M 99.474375 175.870752 
L 99.474375 129.435742 
" clip-path="url(#p2ba414a21a)" style="fill: none; stroke: #3e3e3e; stroke-width: 9; stroke-linecap: round"/>
   </g>
   <g id="line2d_10">
    <path d="M 228.483125 207.786109 
L 228.483125 94.813914 
" clip-path="url(#p2ba414a21a)" style="fill: none; stroke: #3e3e3e; stroke-width: 3; stroke-linecap: round"/>
   </g>
   <g id="line2d_11">
    <path d="M 228.483125 178.431129 
L 228.483125 122.470672 
" clip-path="url(#p2ba414a21a)" style="fill: none; stroke: #3e3e3e; stroke-width: 9; stroke-linecap: round"/>
   </g>
   <g id="line2d_12">
    <path d="M 357.491875 184.115049 
L 357.491875 71.412532 
" clip-path="url(#p2ba414a21a)" style="fill: none; stroke: #3e3e3e; stroke-width: 3; stroke-linecap: round"/>
   </g>
   <g id="line2d_13">
    <path d="M 357.491875 180.089959 
L 357.491875 131.78888 
" clip-path="url(#p2ba414a21a)" style="fill: none; stroke: #3e3e3e; stroke-width: 9; stroke-linecap: round"/>
   </g>
   <g id="line2d_14">
    <path d="M 486.500625 212.087026 
L 486.500625 84.643265 
" clip-path="url(#p2ba414a21a)" style="fill: none; stroke: #3e3e3e; stroke-width: 3; stroke-linecap: round"/>
   </g>
   <g id="line2d_15">
    <path d="M 486.500625 180.226086 
L 486.500625 116.504205 
" clip-path="url(#p2ba414a21a)" style="fill: none; stroke: #3e3e3e; stroke-width: 9; stroke-linecap: round"/>
   </g>
   <g id="line2d_16">
    <path d="M 615.509375 202.537935 
L 615.509375 112.981475 
" clip-path="url(#p2ba414a21a)" style="fill: none; stroke: #3e3e3e; stroke-width: 3; stroke-linecap: round"/>
   </g>
   <g id="line2d_17">
    <path d="M 615.509375 172.685782 
L 615.509375 112.981475 
" clip-path="url(#p2ba414a21a)" style="fill: none; stroke: #3e3e3e; stroke-width: 9; stroke-linecap: round"/>
   </g>
   <g id="line2d_18">
    <path d="M 744.518125 208.748493 
L 744.518125 96.391169 
" clip-path="url(#p2ba414a21a)" style="fill: none; stroke: #3e3e3e; stroke-width: 3; stroke-linecap: round"/>
   </g>
   <g id="line2d_19">
    <path d="M 744.518125 179.856609 
L 744.518125 122.474119 
" clip-path="url(#p2ba414a21a)" style="fill: none; stroke: #3e3e3e; stroke-width: 9; stroke-linecap: round"/>
   </g>
   <g id="line2d_20">
    <path d="M 873.526875 230.470864 
L 873.526875 92.896496 
" clip-path="url(#p2ba414a21a)" style="fill: none; stroke: #3e3e3e; stroke-width: 3; stroke-linecap: round"/>
   </g>
   <g id="line2d_21">
    <path d="M 873.526875 184.612741 
L 873.526875 138.754619 
" clip-path="url(#p2ba414a21a)" style="fill: none; stroke: #3e3e3e; stroke-width: 9; stroke-linecap: round"/>
   </g>
   <g id="line2d_22">
    <path d="M 1002.535625 182.502884 
L 1002.535625 64.589136 
" clip-path="url(#p2ba414a21a)" style="fill: none; stroke: #3e3e3e; stroke-width: 3; stroke-linecap: round"/>
   </g>
   <g id="line2d_23">
    <path d="M 1002.535625 182.502884 
L 1002.535625 123.54601 
" clip-path="url(#p2ba414a21a)" style="fill: none; stroke: #3e3e3e; stroke-width: 9; stroke-linecap: round"/>
   </g>
   <g id="patch_3">
    <path d="M 34.97 255.46 
L 34.97 39.6 
" style="fill: none; stroke: #cccccc; stroke-width: 1.25; stroke-linejoin: miter; stroke-linecap: square"/>
   </g>
   <g id="patch_4">
    <path d="M 1067.04 255.46 
L 1067.04 39.6 
" style="fill: none; stroke: #cccccc; stroke-width: 1.25; stroke-linejoin: miter; stroke-linecap: square"/>
   </g>
   <g id="patch_5">
    <path d="M 34.97 255.46 
L 1067.04 255.46 
" style="fill: none; stroke: #cccccc; stroke-width: 1.25; stroke-linejoin: miter; stroke-linecap: square"/>
   </g>
   <g id="patch_6">
    <path d="M 34.97 39.6 
L 1067.04 39.6 
" style="fill: none; stroke: #cccccc; stroke-width: 1.25; stroke-linejoin: miter; stroke-linecap: square"/>
   </g>
   <g id="PathCollection_1">
    <defs>
     <path id="me69762f936" d="M 0 3 
C 0.795609 3 1.55874 2.683901 2.12132 2.12132 
C 2.683901 1.55874 3 0.795609 3 0 
C 3 -0.795609 2.683901 -1.55874 2.12132 -2.12132 
C 1.55874 -2.683901 0.795609 -3 0 -3 
C -0.795609 -3 -1.55874 -2.683901 -2.12132 -2.12132 
C -2.683901 -1.55874 -3 -0.795609 -3 0 
C -3 0.795609 -2.683901 1.55874 -2.12132 2.12132 
C -1.55874 2.683901 -0.795609 3 0 3 
z
" style="stroke: #3e3e3e"/>
    </defs>
    <g clip-path="url(#p2ba414a21a)">
     <use xlink:href="#me69762f936" x="99.474375" y="154.439209" style="fill: #ffffff; stroke: #3e3e3e"/>
    </g>
   </g>
   <g id="PathCollection_2">
    <g clip-path="url(#p2ba414a21a)">
     <use xlink:href="#me69762f936" x="228.483125" y="151.17871" style="fill: #ffffff; stroke: #3e3e3e"/>
    </g>
   </g>
   <g id="PathCollection_3">
    <g clip-path="url(#p2ba414a21a)">
     <use xlink:href="#me69762f936" x="357.491875" y="159.96451" style="fill: #ffffff; stroke: #3e3e3e"/>
    </g>
   </g>
   <g id="PathCollection_4">
    <g clip-path="url(#p2ba414a21a)">
     <use xlink:href="#me69762f936" x="486.500625" y="148.365146" style="fill: #ffffff; stroke: #3e3e3e"/>
    </g>
   </g>
   <g id="PathCollection_5">
    <g clip-path="url(#p2ba414a21a)">
     <use xlink:href="#me69762f936" x="615.509375" y="142.833628" style="fill: #ffffff; stroke: #3e3e3e"/>
    </g>
   </g>
   <g id="PathCollection_6">
    <g clip-path="url(#p2ba414a21a)">
     <use xlink:href="#me69762f936" x="744.518125" y="150.964726" style="fill: #ffffff; stroke: #3e3e3e"/>
    </g>
   </g>
   <g id="PathCollection_7">
    <g clip-path="url(#p2ba414a21a)">
     <use xlink:href="#me69762f936" x="873.526875" y="138.754619" style="fill: #ffffff; stroke: #3e3e3e"/>
    </g>
   </g>
   <g id="PathCollection_8">
    <g clip-path="url(#p2ba414a21a)">
     <use xlink:href="#me69762f936" x="1002.535625" y="153.024447" style="fill: #ffffff; stroke: #3e3e3e"/>
    </g>
   </g>
  </g>
  <g id="text_16">
   <!-- Violin Plot of all Continuous Variables -->
   <g style="fill: #262626" transform="translate(416.035547 16.496719) scale(0.15 -0.15)">
    <defs>
     <path id="ArialMT-56" d="M 1803 0 
L 28 4581 
L 684 4581 
L 1875 1253 
Q 2019 853 2116 503 
Q 2222 878 2363 1253 
L 3600 4581 
L 4219 4581 
L 2425 0 
L 1803 0 
z
" transform="scale(0.015625)"/>
     <path id="ArialMT-20" transform="scale(0.015625)"/>
     <path id="ArialMT-50" d="M 494 0 
L 494 4581 
L 2222 4581 
Q 2678 4581 2919 4538 
Q 3256 4481 3484 4323 
Q 3713 4166 3852 3881 
Q 3991 3597 3991 3256 
Q 3991 2672 3619 2267 
Q 3247 1863 2275 1863 
L 1100 1863 
L 1100 0 
L 494 0 
z
M 1100 2403 
L 2284 2403 
Q 2872 2403 3119 2622 
Q 3366 2841 3366 3238 
Q 3366 3525 3220 3729 
Q 3075 3934 2838 4000 
Q 2684 4041 2272 4041 
L 1100 4041 
L 1100 2403 
z
" transform="scale(0.015625)"/>
     <path id="ArialMT-43" d="M 3763 1606 
L 4369 1453 
Q 4178 706 3683 314 
Q 3188 -78 2472 -78 
Q 1731 -78 1267 223 
Q 803 525 561 1097 
Q 319 1669 319 2325 
Q 319 3041 592 3573 
Q 866 4106 1370 4382 
Q 1875 4659 2481 4659 
Q 3169 4659 3637 4309 
Q 4106 3959 4291 3325 
L 3694 3184 
Q 3534 3684 3231 3912 
Q 2928 4141 2469 4141 
Q 1941 4141 1586 3887 
Q 1231 3634 1087 3207 
Q 944 2781 944 2328 
Q 944 1744 1114 1308 
Q 1284 872 1643 656 
Q 2003 441 2422 441 
Q 2931 441 3284 734 
Q 3638 1028 3763 1606 
z
" transform="scale(0.015625)"/>
    </defs>
    <use xlink:href="#ArialMT-56"/>
    <use xlink:href="#ArialMT-69" x="64.949219"/>
    <use xlink:href="#ArialMT-6f" x="87.166016"/>
    <use xlink:href="#ArialMT-6c" x="142.78125"/>
    <use xlink:href="#ArialMT-69" x="164.998047"/>
    <use xlink:href="#ArialMT-6e" x="187.214844"/>
    <use xlink:href="#ArialMT-20" x="242.830078"/>
    <use xlink:href="#ArialMT-50" x="270.613281"/>
    <use xlink:href="#ArialMT-6c" x="337.3125"/>
    <use xlink:href="#ArialMT-6f" x="359.529297"/>
    <use xlink:href="#ArialMT-74" x="415.144531"/>
    <use xlink:href="#ArialMT-20" x="442.927734"/>
    <use xlink:href="#ArialMT-6f" x="470.710938"/>
    <use xlink:href="#ArialMT-66" x="526.326172"/>
    <use xlink:href="#ArialMT-20" x="554.109375"/>
    <use xlink:href="#ArialMT-61" x="581.892578"/>
    <use xlink:href="#ArialMT-6c" x="637.507812"/>
    <use xlink:href="#ArialMT-6c" x="659.724609"/>
    <use xlink:href="#ArialMT-20" x="681.941406"/>
    <use xlink:href="#ArialMT-43" x="709.724609"/>
    <use xlink:href="#ArialMT-6f" x="781.941406"/>
    <use xlink:href="#ArialMT-6e" x="837.556641"/>
    <use xlink:href="#ArialMT-74" x="893.171875"/>
    <use xlink:href="#ArialMT-69" x="920.955078"/>
    <use xlink:href="#ArialMT-6e" x="943.171875"/>
    <use xlink:href="#ArialMT-75" x="998.787109"/>
    <use xlink:href="#ArialMT-6f" x="1054.402344"/>
    <use xlink:href="#ArialMT-75" x="1110.017578"/>
    <use xlink:href="#ArialMT-73" x="1165.632812"/>
    <use xlink:href="#ArialMT-20" x="1215.632812"/>
    <use xlink:href="#ArialMT-56" x="1243.416016"/>
    <use xlink:href="#ArialMT-61" x="1302.740234"/>
    <use xlink:href="#ArialMT-72" x="1358.355469"/>
    <use xlink:href="#ArialMT-69" x="1391.65625"/>
    <use xlink:href="#ArialMT-61" x="1413.873047"/>
    <use xlink:href="#ArialMT-62" x="1469.488281"/>
    <use xlink:href="#ArialMT-6c" x="1525.103516"/>
    <use xlink:href="#ArialMT-65" x="1547.320312"/>
    <use xlink:href="#ArialMT-73" x="1602.935547"/>
   </g>
  </g>
 </g>
 <defs>
  <clipPath id="p2ba414a21a">
   <rect x="34.97" y="39.6" width="1032.07" height="215.86"/>
  </clipPath>
 </defs>
</svg>
