<?xml version="1.0" encoding="utf-8" standalone="no"?>
<!DOCTYPE svg PUBLIC "-//W3C//DTD SVG 1.1//EN"
  "http://www.w3.org/Graphics/SVG/1.1/DTD/svg11.dtd">
<svg xmlns:xlink="http://www.w3.org/1999/xlink" width="1080pt" height="288pt" viewBox="0 0 1080 288" xmlns="http://www.w3.org/2000/svg" version="1.1">
 <metadata>
  <rdf:RDF xmlns:dc="http://purl.org/dc/elements/1.1/" xmlns:cc="http://creativecommons.org/ns#" xmlns:rdf="http://www.w3.org/1999/02/22-rdf-syntax-ns#">
   <cc:Work>
    <dc:type rdf:resource="http://purl.org/dc/dcmitype/StillImage"/>
    <dc:date>2025-03-19T20:31:15.822805</dc:date>
    <dc:format>image/svg+xml</dc:format>
    <dc:creator>
     <cc:Agent>
      <dc:title>Matplotlib v3.7.4, https://matplotlib.org/</dc:title>
     </cc:Agent>
    </dc:creator>
   </cc:Work>
  </rdf:RDF>
 </metadata>
 <defs>
  <style type="text/css">*{stroke-linejoin: round; stroke-linecap: butt}</style>
 </defs>
 <g id="figure_1">
  <g id="patch_1">
   <path d="M 0 288 
L 1080 288 
L 1080 0 
L 0 0 
z
" style="fill: #ffffff"/>
  </g>
  <g id="axes_1">
   <g id="patch_2">
    <path d="M 34.97 255.46 
L 1067.04 255.46 
L 1067.04 39.6 
L 34.97 39.6 
z
" style="fill: #ffffff"/>
   </g>
   <g id="matplotlib.axis_1">
    <g id="xtick_1">
     <g id="text_1">
      <!-- JobSatisfaction -->
      <g style="fill: #262626" transform="translate(62.176641 272.833594) scale(0.11 -0.11)">
       <defs>
        <path id="ArialMT-4a" d="M 184 1300 
L 731 1375 
Q 753 850 928 656 
Q 1103 463 1413 463 
Q 1641 463 1806 567 
Q 1972 672 2034 851 
Q 2097 1031 2097 1425 
L 2097 4581 
L 2703 4581 
L 2703 1459 
Q 2703 884 2564 568 
Q 2425 253 2123 87 
Q 1822 -78 1416 -78 
Q 813 -78 492 269 
Q 172 616 184 1300 
z
" transform="scale(0.015625)"/>
        <path id="ArialMT-6f" d="M 213 1659 
Q 213 2581 725 3025 
Q 1153 3394 1769 3394 
Q 2453 3394 2887 2945 
Q 3322 2497 3322 1706 
Q 3322 1066 3130 698 
Q 2938 331 2570 128 
Q 2203 -75 1769 -75 
Q 1072 -75 642 372 
Q 213 819 213 1659 
z
M 791 1659 
Q 791 1022 1069 705 
Q 1347 388 1769 388 
Q 2188 388 2466 706 
Q 2744 1025 2744 1678 
Q 2744 2294 2464 2611 
Q 2184 2928 1769 2928 
Q 1347 2928 1069 2612 
Q 791 2297 791 1659 
z
" transform="scale(0.015625)"/>
        <path id="ArialMT-62" d="M 941 0 
L 419 0 
L 419 4581 
L 981 4581 
L 981 2947 
Q 1338 3394 1891 3394 
Q 2197 3394 2470 3270 
Q 2744 3147 2920 2923 
Q 3097 2700 3197 2384 
Q 3297 2069 3297 1709 
Q 3297 856 2875 390 
Q 2453 -75 1863 -75 
Q 1275 -75 941 416 
L 941 0 
z
M 934 1684 
Q 934 1088 1097 822 
Q 1363 388 1816 388 
Q 2184 388 2453 708 
Q 2722 1028 2722 1663 
Q 2722 2313 2464 2622 
Q 2206 2931 1841 2931 
Q 1472 2931 1203 2611 
Q 934 2291 934 1684 
z
" transform="scale(0.015625)"/>
        <path id="ArialMT-53" d="M 288 1472 
L 859 1522 
Q 900 1178 1048 958 
Q 1197 738 1509 602 
Q 1822 466 2213 466 
Q 2559 466 2825 569 
Q 3091 672 3220 851 
Q 3350 1031 3350 1244 
Q 3350 1459 3225 1620 
Q 3100 1781 2813 1891 
Q 2628 1963 1997 2114 
Q 1366 2266 1113 2400 
Q 784 2572 623 2826 
Q 463 3081 463 3397 
Q 463 3744 659 4045 
Q 856 4347 1234 4503 
Q 1613 4659 2075 4659 
Q 2584 4659 2973 4495 
Q 3363 4331 3572 4012 
Q 3781 3694 3797 3291 
L 3216 3247 
Q 3169 3681 2898 3903 
Q 2628 4125 2100 4125 
Q 1550 4125 1298 3923 
Q 1047 3722 1047 3438 
Q 1047 3191 1225 3031 
Q 1400 2872 2139 2705 
Q 2878 2538 3153 2413 
Q 3553 2228 3743 1945 
Q 3934 1663 3934 1294 
Q 3934 928 3725 604 
Q 3516 281 3123 101 
Q 2731 -78 2241 -78 
Q 1619 -78 1198 103 
Q 778 284 539 648 
Q 300 1013 288 1472 
z
" transform="scale(0.015625)"/>
        <path id="ArialMT-61" d="M 2588 409 
Q 2275 144 1986 34 
Q 1697 -75 1366 -75 
Q 819 -75 525 192 
Q 231 459 231 875 
Q 231 1119 342 1320 
Q 453 1522 633 1644 
Q 813 1766 1038 1828 
Q 1203 1872 1538 1913 
Q 2219 1994 2541 2106 
Q 2544 2222 2544 2253 
Q 2544 2597 2384 2738 
Q 2169 2928 1744 2928 
Q 1347 2928 1158 2789 
Q 969 2650 878 2297 
L 328 2372 
Q 403 2725 575 2942 
Q 747 3159 1072 3276 
Q 1397 3394 1825 3394 
Q 2250 3394 2515 3294 
Q 2781 3194 2906 3042 
Q 3031 2891 3081 2659 
Q 3109 2516 3109 2141 
L 3109 1391 
Q 3109 606 3145 398 
Q 3181 191 3288 0 
L 2700 0 
Q 2613 175 2588 409 
z
M 2541 1666 
Q 2234 1541 1622 1453 
Q 1275 1403 1131 1340 
Q 988 1278 909 1158 
Q 831 1038 831 891 
Q 831 666 1001 516 
Q 1172 366 1500 366 
Q 1825 366 2078 508 
Q 2331 650 2450 897 
Q 2541 1088 2541 1459 
L 2541 1666 
z
" transform="scale(0.015625)"/>
        <path id="ArialMT-74" d="M 1650 503 
L 1731 6 
Q 1494 -44 1306 -44 
Q 1000 -44 831 53 
Q 663 150 594 308 
Q 525 466 525 972 
L 525 2881 
L 113 2881 
L 113 3319 
L 525 3319 
L 525 4141 
L 1084 4478 
L 1084 3319 
L 1650 3319 
L 1650 2881 
L 1084 2881 
L 1084 941 
Q 1084 700 1114 631 
Q 1144 563 1211 522 
Q 1278 481 1403 481 
Q 1497 481 1650 503 
z
" transform="scale(0.015625)"/>
        <path id="ArialMT-69" d="M 425 3934 
L 425 4581 
L 988 4581 
L 988 3934 
L 425 3934 
z
M 425 0 
L 425 3319 
L 988 3319 
L 988 0 
L 425 0 
z
" transform="scale(0.015625)"/>
        <path id="ArialMT-73" d="M 197 991 
L 753 1078 
Q 800 744 1014 566 
Q 1228 388 1613 388 
Q 2000 388 2187 545 
Q 2375 703 2375 916 
Q 2375 1106 2209 1216 
Q 2094 1291 1634 1406 
Q 1016 1563 777 1677 
Q 538 1791 414 1992 
Q 291 2194 291 2438 
Q 291 2659 392 2848 
Q 494 3038 669 3163 
Q 800 3259 1026 3326 
Q 1253 3394 1513 3394 
Q 1903 3394 2198 3281 
Q 2494 3169 2634 2976 
Q 2775 2784 2828 2463 
L 2278 2388 
Q 2241 2644 2061 2787 
Q 1881 2931 1553 2931 
Q 1166 2931 1000 2803 
Q 834 2675 834 2503 
Q 834 2394 903 2306 
Q 972 2216 1119 2156 
Q 1203 2125 1616 2013 
Q 2213 1853 2448 1751 
Q 2684 1650 2818 1456 
Q 2953 1263 2953 975 
Q 2953 694 2789 445 
Q 2625 197 2315 61 
Q 2006 -75 1616 -75 
Q 969 -75 630 194 
Q 291 463 197 991 
z
" transform="scale(0.015625)"/>
        <path id="ArialMT-66" d="M 556 0 
L 556 2881 
L 59 2881 
L 59 3319 
L 556 3319 
L 556 3672 
Q 556 4006 616 4169 
Q 697 4388 901 4523 
Q 1106 4659 1475 4659 
Q 1713 4659 2000 4603 
L 1916 4113 
Q 1741 4144 1584 4144 
Q 1328 4144 1222 4034 
Q 1116 3925 1116 3625 
L 1116 3319 
L 1763 3319 
L 1763 2881 
L 1116 2881 
L 1116 0 
L 556 0 
z
" transform="scale(0.015625)"/>
        <path id="ArialMT-63" d="M 2588 1216 
L 3141 1144 
Q 3050 572 2676 248 
Q 2303 -75 1759 -75 
Q 1078 -75 664 370 
Q 250 816 250 1647 
Q 250 2184 428 2587 
Q 606 2991 970 3192 
Q 1334 3394 1763 3394 
Q 2303 3394 2647 3120 
Q 2991 2847 3088 2344 
L 2541 2259 
Q 2463 2594 2264 2762 
Q 2066 2931 1784 2931 
Q 1359 2931 1093 2626 
Q 828 2322 828 1663 
Q 828 994 1084 691 
Q 1341 388 1753 388 
Q 2084 388 2306 591 
Q 2528 794 2588 1216 
z
" transform="scale(0.015625)"/>
        <path id="ArialMT-6e" d="M 422 0 
L 422 3319 
L 928 3319 
L 928 2847 
Q 1294 3394 1984 3394 
Q 2284 3394 2536 3286 
Q 2788 3178 2913 3003 
Q 3038 2828 3088 2588 
Q 3119 2431 3119 2041 
L 3119 0 
L 2556 0 
L 2556 2019 
Q 2556 2363 2490 2533 
Q 2425 2703 2258 2804 
Q 2091 2906 1866 2906 
Q 1506 2906 1245 2678 
Q 984 2450 984 1813 
L 984 0 
L 422 0 
z
" transform="scale(0.015625)"/>
       </defs>
       <use xlink:href="#ArialMT-4a"/>
       <use xlink:href="#ArialMT-6f" x="50"/>
       <use xlink:href="#ArialMT-62" x="105.615234"/>
       <use xlink:href="#ArialMT-53" x="161.230469"/>
       <use xlink:href="#ArialMT-61" x="227.929688"/>
       <use xlink:href="#ArialMT-74" x="283.544922"/>
       <use xlink:href="#ArialMT-69" x="311.328125"/>
       <use xlink:href="#ArialMT-73" x="333.544922"/>
       <use xlink:href="#ArialMT-66" x="383.544922"/>
       <use xlink:href="#ArialMT-61" x="411.328125"/>
       <use xlink:href="#ArialMT-63" x="466.943359"/>
       <use xlink:href="#ArialMT-74" x="516.943359"/>
       <use xlink:href="#ArialMT-69" x="544.726562"/>
       <use xlink:href="#ArialMT-6f" x="566.943359"/>
       <use xlink:href="#ArialMT-6e" x="622.558594"/>
      </g>
     </g>
    </g>
    <g id="xtick_2">
     <g id="text_2">
      <!-- MonthlyIncome -->
      <g style="fill: #262626" transform="translate(191.191406 272.833594) scale(0.11 -0.11)">
       <defs>
        <path id="ArialMT-4d" d="M 475 0 
L 475 4581 
L 1388 4581 
L 2472 1338 
Q 2622 884 2691 659 
Q 2769 909 2934 1394 
L 4031 4581 
L 4847 4581 
L 4847 0 
L 4263 0 
L 4263 3834 
L 2931 0 
L 2384 0 
L 1059 3900 
L 1059 0 
L 475 0 
z
" transform="scale(0.015625)"/>
        <path id="ArialMT-68" d="M 422 0 
L 422 4581 
L 984 4581 
L 984 2938 
Q 1378 3394 1978 3394 
Q 2347 3394 2619 3248 
Q 2891 3103 3008 2847 
Q 3125 2591 3125 2103 
L 3125 0 
L 2563 0 
L 2563 2103 
Q 2563 2525 2380 2717 
Q 2197 2909 1863 2909 
Q 1613 2909 1392 2779 
Q 1172 2650 1078 2428 
Q 984 2206 984 1816 
L 984 0 
L 422 0 
z
" transform="scale(0.015625)"/>
        <path id="ArialMT-6c" d="M 409 0 
L 409 4581 
L 972 4581 
L 972 0 
L 409 0 
z
" transform="scale(0.015625)"/>
        <path id="ArialMT-79" d="M 397 -1278 
L 334 -750 
Q 519 -800 656 -800 
Q 844 -800 956 -737 
Q 1069 -675 1141 -563 
Q 1194 -478 1313 -144 
Q 1328 -97 1363 -6 
L 103 3319 
L 709 3319 
L 1400 1397 
Q 1534 1031 1641 628 
Q 1738 1016 1872 1384 
L 2581 3319 
L 3144 3319 
L 1881 -56 
Q 1678 -603 1566 -809 
Q 1416 -1088 1222 -1217 
Q 1028 -1347 759 -1347 
Q 597 -1347 397 -1278 
z
" transform="scale(0.015625)"/>
        <path id="ArialMT-49" d="M 597 0 
L 597 4581 
L 1203 4581 
L 1203 0 
L 597 0 
z
" transform="scale(0.015625)"/>
        <path id="ArialMT-6d" d="M 422 0 
L 422 3319 
L 925 3319 
L 925 2853 
Q 1081 3097 1340 3245 
Q 1600 3394 1931 3394 
Q 2300 3394 2536 3241 
Q 2772 3088 2869 2813 
Q 3263 3394 3894 3394 
Q 4388 3394 4653 3120 
Q 4919 2847 4919 2278 
L 4919 0 
L 4359 0 
L 4359 2091 
Q 4359 2428 4304 2576 
Q 4250 2725 4106 2815 
Q 3963 2906 3769 2906 
Q 3419 2906 3187 2673 
Q 2956 2441 2956 1928 
L 2956 0 
L 2394 0 
L 2394 2156 
Q 2394 2531 2256 2718 
Q 2119 2906 1806 2906 
Q 1569 2906 1367 2781 
Q 1166 2656 1075 2415 
Q 984 2175 984 1722 
L 984 0 
L 422 0 
z
" transform="scale(0.015625)"/>
        <path id="ArialMT-65" d="M 2694 1069 
L 3275 997 
Q 3138 488 2766 206 
Q 2394 -75 1816 -75 
Q 1088 -75 661 373 
Q 234 822 234 1631 
Q 234 2469 665 2931 
Q 1097 3394 1784 3394 
Q 2450 3394 2872 2941 
Q 3294 2488 3294 1666 
Q 3294 1616 3291 1516 
L 816 1516 
Q 847 969 1125 678 
Q 1403 388 1819 388 
Q 2128 388 2347 550 
Q 2566 713 2694 1069 
z
M 847 1978 
L 2700 1978 
Q 2663 2397 2488 2606 
Q 2219 2931 1791 2931 
Q 1403 2931 1139 2672 
Q 875 2413 847 1978 
z
" transform="scale(0.015625)"/>
       </defs>
       <use xlink:href="#ArialMT-4d"/>
       <use xlink:href="#ArialMT-6f" x="83.300781"/>
       <use xlink:href="#ArialMT-6e" x="138.916016"/>
       <use xlink:href="#ArialMT-74" x="194.53125"/>
       <use xlink:href="#ArialMT-68" x="222.314453"/>
       <use xlink:href="#ArialMT-6c" x="277.929688"/>
       <use xlink:href="#ArialMT-79" x="300.146484"/>
       <use xlink:href="#ArialMT-49" x="350.146484"/>
       <use xlink:href="#ArialMT-6e" x="377.929688"/>
       <use xlink:href="#ArialMT-63" x="433.544922"/>
       <use xlink:href="#ArialMT-6f" x="483.544922"/>
       <use xlink:href="#ArialMT-6d" x="539.160156"/>
       <use xlink:href="#ArialMT-65" x="622.460938"/>
      </g>
     </g>
    </g>
    <g id="xtick_3">
     <g id="text_3">
      <!-- MonthlyRate -->
      <g style="fill: #262626" transform="translate(326.617969 272.833594) scale(0.11 -0.11)">
       <defs>
        <path id="ArialMT-52" d="M 503 0 
L 503 4581 
L 2534 4581 
Q 3147 4581 3465 4457 
Q 3784 4334 3975 4021 
Q 4166 3709 4166 3331 
Q 4166 2844 3850 2509 
Q 3534 2175 2875 2084 
Q 3116 1969 3241 1856 
Q 3506 1613 3744 1247 
L 4541 0 
L 3778 0 
L 3172 953 
Q 2906 1366 2734 1584 
Q 2563 1803 2427 1890 
Q 2291 1978 2150 2013 
Q 2047 2034 1813 2034 
L 1109 2034 
L 1109 0 
L 503 0 
z
M 1109 2559 
L 2413 2559 
Q 2828 2559 3062 2645 
Q 3297 2731 3419 2920 
Q 3541 3109 3541 3331 
Q 3541 3656 3305 3865 
Q 3069 4075 2559 4075 
L 1109 4075 
L 1109 2559 
z
" transform="scale(0.015625)"/>
       </defs>
       <use xlink:href="#ArialMT-4d"/>
       <use xlink:href="#ArialMT-6f" x="83.300781"/>
       <use xlink:href="#ArialMT-6e" x="138.916016"/>
       <use xlink:href="#ArialMT-74" x="194.53125"/>
       <use xlink:href="#ArialMT-68" x="222.314453"/>
       <use xlink:href="#ArialMT-6c" x="277.929688"/>
       <use xlink:href="#ArialMT-79" x="300.146484"/>
       <use xlink:href="#ArialMT-52" x="350.146484"/>
       <use xlink:href="#ArialMT-61" x="422.363281"/>
       <use xlink:href="#ArialMT-74" x="477.978516"/>
       <use xlink:href="#ArialMT-65" x="505.761719"/>
      </g>
     </g>
    </g>
    <g id="xtick_4">
     <g id="text_4">
      <!-- NumCompaniesWorked -->
      <g style="fill: #262626" transform="translate(428.218672 272.967656) scale(0.11 -0.11)">
       <defs>
        <path id="ArialMT-4e" d="M 488 0 
L 488 4581 
L 1109 4581 
L 3516 984 
L 3516 4581 
L 4097 4581 
L 4097 0 
L 3475 0 
L 1069 3600 
L 1069 0 
L 488 0 
z
" transform="scale(0.015625)"/>
        <path id="ArialMT-75" d="M 2597 0 
L 2597 488 
Q 2209 -75 1544 -75 
Q 1250 -75 995 37 
Q 741 150 617 320 
Q 494 491 444 738 
Q 409 903 409 1263 
L 409 3319 
L 972 3319 
L 972 1478 
Q 972 1038 1006 884 
Q 1059 663 1231 536 
Q 1403 409 1656 409 
Q 1909 409 2131 539 
Q 2353 669 2445 892 
Q 2538 1116 2538 1541 
L 2538 3319 
L 3100 3319 
L 3100 0 
L 2597 0 
z
" transform="scale(0.015625)"/>
        <path id="ArialMT-43" d="M 3763 1606 
L 4369 1453 
Q 4178 706 3683 314 
Q 3188 -78 2472 -78 
Q 1731 -78 1267 223 
Q 803 525 561 1097 
Q 319 1669 319 2325 
Q 319 3041 592 3573 
Q 866 4106 1370 4382 
Q 1875 4659 2481 4659 
Q 3169 4659 3637 4309 
Q 4106 3959 4291 3325 
L 3694 3184 
Q 3534 3684 3231 3912 
Q 2928 4141 2469 4141 
Q 1941 4141 1586 3887 
Q 1231 3634 1087 3207 
Q 944 2781 944 2328 
Q 944 1744 1114 1308 
Q 1284 872 1643 656 
Q 2003 441 2422 441 
Q 2931 441 3284 734 
Q 3638 1028 3763 1606 
z
" transform="scale(0.015625)"/>
        <path id="ArialMT-70" d="M 422 -1272 
L 422 3319 
L 934 3319 
L 934 2888 
Q 1116 3141 1344 3267 
Q 1572 3394 1897 3394 
Q 2322 3394 2647 3175 
Q 2972 2956 3137 2557 
Q 3303 2159 3303 1684 
Q 3303 1175 3120 767 
Q 2938 359 2589 142 
Q 2241 -75 1856 -75 
Q 1575 -75 1351 44 
Q 1128 163 984 344 
L 984 -1272 
L 422 -1272 
z
M 931 1641 
Q 931 1000 1190 694 
Q 1450 388 1819 388 
Q 2194 388 2461 705 
Q 2728 1022 2728 1688 
Q 2728 2322 2467 2637 
Q 2206 2953 1844 2953 
Q 1484 2953 1207 2617 
Q 931 2281 931 1641 
z
" transform="scale(0.015625)"/>
        <path id="ArialMT-57" d="M 1294 0 
L 78 4581 
L 700 4581 
L 1397 1578 
Q 1509 1106 1591 641 
Q 1766 1375 1797 1488 
L 2669 4581 
L 3400 4581 
L 4056 2263 
Q 4303 1400 4413 641 
Q 4500 1075 4641 1638 
L 5359 4581 
L 5969 4581 
L 4713 0 
L 4128 0 
L 3163 3491 
Q 3041 3928 3019 4028 
Q 2947 3713 2884 3491 
L 1913 0 
L 1294 0 
z
" transform="scale(0.015625)"/>
        <path id="ArialMT-72" d="M 416 0 
L 416 3319 
L 922 3319 
L 922 2816 
Q 1116 3169 1280 3281 
Q 1444 3394 1641 3394 
Q 1925 3394 2219 3213 
L 2025 2691 
Q 1819 2813 1613 2813 
Q 1428 2813 1281 2702 
Q 1134 2591 1072 2394 
Q 978 2094 978 1738 
L 978 0 
L 416 0 
z
" transform="scale(0.015625)"/>
        <path id="ArialMT-6b" d="M 425 0 
L 425 4581 
L 988 4581 
L 988 1969 
L 2319 3319 
L 3047 3319 
L 1778 2088 
L 3175 0 
L 2481 0 
L 1384 1697 
L 988 1316 
L 988 0 
L 425 0 
z
" transform="scale(0.015625)"/>
        <path id="ArialMT-64" d="M 2575 0 
L 2575 419 
Q 2259 -75 1647 -75 
Q 1250 -75 917 144 
Q 584 363 401 755 
Q 219 1147 219 1656 
Q 219 2153 384 2558 
Q 550 2963 881 3178 
Q 1213 3394 1622 3394 
Q 1922 3394 2156 3267 
Q 2391 3141 2538 2938 
L 2538 4581 
L 3097 4581 
L 3097 0 
L 2575 0 
z
M 797 1656 
Q 797 1019 1065 703 
Q 1334 388 1700 388 
Q 2069 388 2326 689 
Q 2584 991 2584 1609 
Q 2584 2291 2321 2609 
Q 2059 2928 1675 2928 
Q 1300 2928 1048 2622 
Q 797 2316 797 1656 
z
" transform="scale(0.015625)"/>
       </defs>
       <use xlink:href="#ArialMT-4e"/>
       <use xlink:href="#ArialMT-75" x="72.216797"/>
       <use xlink:href="#ArialMT-6d" x="127.832031"/>
       <use xlink:href="#ArialMT-43" x="211.132812"/>
       <use xlink:href="#ArialMT-6f" x="283.349609"/>
       <use xlink:href="#ArialMT-6d" x="338.964844"/>
       <use xlink:href="#ArialMT-70" x="422.265625"/>
       <use xlink:href="#ArialMT-61" x="477.880859"/>
       <use xlink:href="#ArialMT-6e" x="533.496094"/>
       <use xlink:href="#ArialMT-69" x="589.111328"/>
       <use xlink:href="#ArialMT-65" x="611.328125"/>
       <use xlink:href="#ArialMT-73" x="666.943359"/>
       <use xlink:href="#ArialMT-57" x="716.943359"/>
       <use xlink:href="#ArialMT-6f" x="809.578125"/>
       <use xlink:href="#ArialMT-72" x="865.193359"/>
       <use xlink:href="#ArialMT-6b" x="898.494141"/>
       <use xlink:href="#ArialMT-65" x="948.494141"/>
       <use xlink:href="#ArialMT-64" x="1004.109375"/>
      </g>
     </g>
    </g>
    <g id="xtick_5">
     <g id="text_5">
      <!-- PercentSalaryHike -->
      <g style="fill: #262626" transform="translate(569.964219 272.967656) scale(0.11 -0.11)">
       <defs>
        <path id="ArialMT-50" d="M 494 0 
L 494 4581 
L 2222 4581 
Q 2678 4581 2919 4538 
Q 3256 4481 3484 4323 
Q 3713 4166 3852 3881 
Q 3991 3597 3991 3256 
Q 3991 2672 3619 2267 
Q 3247 1863 2275 1863 
L 1100 1863 
L 1100 0 
L 494 0 
z
M 1100 2403 
L 2284 2403 
Q 2872 2403 3119 2622 
Q 3366 2841 3366 3238 
Q 3366 3525 3220 3729 
Q 3075 3934 2838 4000 
Q 2684 4041 2272 4041 
L 1100 4041 
L 1100 2403 
z
" transform="scale(0.015625)"/>
        <path id="ArialMT-48" d="M 513 0 
L 513 4581 
L 1119 4581 
L 1119 2700 
L 3500 2700 
L 3500 4581 
L 4106 4581 
L 4106 0 
L 3500 0 
L 3500 2159 
L 1119 2159 
L 1119 0 
L 513 0 
z
" transform="scale(0.015625)"/>
       </defs>
       <use xlink:href="#ArialMT-50"/>
       <use xlink:href="#ArialMT-65" x="66.699219"/>
       <use xlink:href="#ArialMT-72" x="122.314453"/>
       <use xlink:href="#ArialMT-63" x="155.615234"/>
       <use xlink:href="#ArialMT-65" x="205.615234"/>
       <use xlink:href="#ArialMT-6e" x="261.230469"/>
       <use xlink:href="#ArialMT-74" x="316.845703"/>
       <use xlink:href="#ArialMT-53" x="344.628906"/>
       <use xlink:href="#ArialMT-61" x="411.328125"/>
       <use xlink:href="#ArialMT-6c" x="466.943359"/>
       <use xlink:href="#ArialMT-61" x="489.160156"/>
       <use xlink:href="#ArialMT-72" x="544.775391"/>
       <use xlink:href="#ArialMT-79" x="578.076172"/>
       <use xlink:href="#ArialMT-48" x="628.076172"/>
       <use xlink:href="#ArialMT-69" x="700.292969"/>
       <use xlink:href="#ArialMT-6b" x="722.509766"/>
       <use xlink:href="#ArialMT-65" x="772.509766"/>
      </g>
     </g>
    </g>
    <g id="xtick_6">
     <g id="text_6">
      <!-- RelationshipSatisfaction -->
      <g style="fill: #262626" transform="translate(685.820234 272.967656) scale(0.11 -0.11)">
       <use xlink:href="#ArialMT-52"/>
       <use xlink:href="#ArialMT-65" x="72.216797"/>
       <use xlink:href="#ArialMT-6c" x="127.832031"/>
       <use xlink:href="#ArialMT-61" x="150.048828"/>
       <use xlink:href="#ArialMT-74" x="205.664062"/>
       <use xlink:href="#ArialMT-69" x="233.447266"/>
       <use xlink:href="#ArialMT-6f" x="255.664062"/>
       <use xlink:href="#ArialMT-6e" x="311.279297"/>
       <use xlink:href="#ArialMT-73" x="366.894531"/>
       <use xlink:href="#ArialMT-68" x="416.894531"/>
       <use xlink:href="#ArialMT-69" x="472.509766"/>
       <use xlink:href="#ArialMT-70" x="494.726562"/>
       <use xlink:href="#ArialMT-53" x="550.341797"/>
       <use xlink:href="#ArialMT-61" x="617.041016"/>
       <use xlink:href="#ArialMT-74" x="672.65625"/>
       <use xlink:href="#ArialMT-69" x="700.439453"/>
       <use xlink:href="#ArialMT-73" x="722.65625"/>
       <use xlink:href="#ArialMT-66" x="772.65625"/>
       <use xlink:href="#ArialMT-61" x="800.439453"/>
       <use xlink:href="#ArialMT-63" x="856.054688"/>
       <use xlink:href="#ArialMT-74" x="906.054688"/>
       <use xlink:href="#ArialMT-69" x="933.837891"/>
       <use xlink:href="#ArialMT-6f" x="956.054688"/>
       <use xlink:href="#ArialMT-6e" x="1011.669922"/>
      </g>
     </g>
    </g>
    <g id="xtick_7">
     <g id="text_7">
      <!-- StockOptionLevel -->
      <g style="fill: #262626" transform="translate(830.420625 272.974531) scale(0.11 -0.11)">
       <defs>
        <path id="ArialMT-4f" d="M 309 2231 
Q 309 3372 921 4017 
Q 1534 4663 2503 4663 
Q 3138 4663 3647 4359 
Q 4156 4056 4423 3514 
Q 4691 2972 4691 2284 
Q 4691 1588 4409 1038 
Q 4128 488 3612 205 
Q 3097 -78 2500 -78 
Q 1853 -78 1343 234 
Q 834 547 571 1087 
Q 309 1628 309 2231 
z
M 934 2222 
Q 934 1394 1379 917 
Q 1825 441 2497 441 
Q 3181 441 3623 922 
Q 4066 1403 4066 2288 
Q 4066 2847 3877 3264 
Q 3688 3681 3323 3911 
Q 2959 4141 2506 4141 
Q 1863 4141 1398 3698 
Q 934 3256 934 2222 
z
" transform="scale(0.015625)"/>
        <path id="ArialMT-4c" d="M 469 0 
L 469 4581 
L 1075 4581 
L 1075 541 
L 3331 541 
L 3331 0 
L 469 0 
z
" transform="scale(0.015625)"/>
        <path id="ArialMT-76" d="M 1344 0 
L 81 3319 
L 675 3319 
L 1388 1331 
Q 1503 1009 1600 663 
Q 1675 925 1809 1294 
L 2547 3319 
L 3125 3319 
L 1869 0 
L 1344 0 
z
" transform="scale(0.015625)"/>
       </defs>
       <use xlink:href="#ArialMT-53"/>
       <use xlink:href="#ArialMT-74" x="66.699219"/>
       <use xlink:href="#ArialMT-6f" x="94.482422"/>
       <use xlink:href="#ArialMT-63" x="150.097656"/>
       <use xlink:href="#ArialMT-6b" x="200.097656"/>
       <use xlink:href="#ArialMT-4f" x="250.097656"/>
       <use xlink:href="#ArialMT-70" x="327.880859"/>
       <use xlink:href="#ArialMT-74" x="383.496094"/>
       <use xlink:href="#ArialMT-69" x="411.279297"/>
       <use xlink:href="#ArialMT-6f" x="433.496094"/>
       <use xlink:href="#ArialMT-6e" x="489.111328"/>
       <use xlink:href="#ArialMT-4c" x="544.726562"/>
       <use xlink:href="#ArialMT-65" x="600.341797"/>
       <use xlink:href="#ArialMT-76" x="655.957031"/>
       <use xlink:href="#ArialMT-65" x="705.957031"/>
       <use xlink:href="#ArialMT-6c" x="761.572266"/>
      </g>
     </g>
    </g>
    <g id="xtick_8">
     <g id="text_8">
      <!-- TotalWorkingYears -->
      <g style="fill: #262626" transform="translate(956.981875 272.833594) scale(0.11 -0.11)">
       <defs>
        <path id="ArialMT-54" d="M 1659 0 
L 1659 4041 
L 150 4041 
L 150 4581 
L 3781 4581 
L 3781 4041 
L 2266 4041 
L 2266 0 
L 1659 0 
z
" transform="scale(0.015625)"/>
        <path id="ArialMT-67" d="M 319 -275 
L 866 -356 
Q 900 -609 1056 -725 
Q 1266 -881 1628 -881 
Q 2019 -881 2231 -725 
Q 2444 -569 2519 -288 
Q 2563 -116 2559 434 
Q 2191 0 1641 0 
Q 956 0 581 494 
Q 206 988 206 1678 
Q 206 2153 378 2554 
Q 550 2956 876 3175 
Q 1203 3394 1644 3394 
Q 2231 3394 2613 2919 
L 2613 3319 
L 3131 3319 
L 3131 450 
Q 3131 -325 2973 -648 
Q 2816 -972 2473 -1159 
Q 2131 -1347 1631 -1347 
Q 1038 -1347 672 -1080 
Q 306 -813 319 -275 
z
M 784 1719 
Q 784 1066 1043 766 
Q 1303 466 1694 466 
Q 2081 466 2343 764 
Q 2606 1063 2606 1700 
Q 2606 2309 2336 2618 
Q 2066 2928 1684 2928 
Q 1309 2928 1046 2623 
Q 784 2319 784 1719 
z
" transform="scale(0.015625)"/>
        <path id="ArialMT-59" d="M 1784 0 
L 1784 1941 
L 19 4581 
L 756 4581 
L 1659 3200 
Q 1909 2813 2125 2425 
Q 2331 2784 2625 3234 
L 3513 4581 
L 4219 4581 
L 2391 1941 
L 2391 0 
L 1784 0 
z
" transform="scale(0.015625)"/>
       </defs>
       <use xlink:href="#ArialMT-54"/>
       <use xlink:href="#ArialMT-6f" x="49.958984"/>
       <use xlink:href="#ArialMT-74" x="105.574219"/>
       <use xlink:href="#ArialMT-61" x="133.357422"/>
       <use xlink:href="#ArialMT-6c" x="188.972656"/>
       <use xlink:href="#ArialMT-57" x="211.189453"/>
       <use xlink:href="#ArialMT-6f" x="303.824219"/>
       <use xlink:href="#ArialMT-72" x="359.439453"/>
       <use xlink:href="#ArialMT-6b" x="392.740234"/>
       <use xlink:href="#ArialMT-69" x="442.740234"/>
       <use xlink:href="#ArialMT-6e" x="464.957031"/>
       <use xlink:href="#ArialMT-67" x="520.572266"/>
       <use xlink:href="#ArialMT-59" x="576.1875"/>
       <use xlink:href="#ArialMT-65" x="633.761719"/>
       <use xlink:href="#ArialMT-61" x="689.376953"/>
       <use xlink:href="#ArialMT-72" x="744.992188"/>
       <use xlink:href="#ArialMT-73" x="778.292969"/>
      </g>
     </g>
    </g>
   </g>
   <g id="matplotlib.axis_2">
    <g id="ytick_1">
     <g id="line2d_1">
      <path d="M 34.97 240.018769 
L 1067.04 240.018769 
" clip-path="url(#p00bf58b4c7)" style="fill: none; stroke: #cccccc; stroke-linecap: round"/>
     </g>
     <g id="text_9">
      <!-- −2 -->
      <g style="fill: #262626" transform="translate(12.928281 243.955566) scale(0.11 -0.11)">
       <defs>
        <path id="ArialMT-2212" d="M 3381 1997 
L 356 1997 
L 356 2522 
L 3381 2522 
L 3381 1997 
z
" transform="scale(0.015625)"/>
        <path id="ArialMT-32" d="M 3222 541 
L 3222 0 
L 194 0 
Q 188 203 259 391 
Q 375 700 629 1000 
Q 884 1300 1366 1694 
Q 2113 2306 2375 2664 
Q 2638 3022 2638 3341 
Q 2638 3675 2398 3904 
Q 2159 4134 1775 4134 
Q 1369 4134 1125 3890 
Q 881 3647 878 3216 
L 300 3275 
Q 359 3922 746 4261 
Q 1134 4600 1788 4600 
Q 2447 4600 2831 4234 
Q 3216 3869 3216 3328 
Q 3216 3053 3103 2787 
Q 2991 2522 2730 2228 
Q 2469 1934 1863 1422 
Q 1356 997 1212 845 
Q 1069 694 975 541 
L 3222 541 
z
" transform="scale(0.015625)"/>
       </defs>
       <use xlink:href="#ArialMT-2212"/>
       <use xlink:href="#ArialMT-32" x="58.398438"/>
      </g>
     </g>
    </g>
    <g id="ytick_2">
     <g id="line2d_2">
      <path d="M 34.97 209.057585 
L 1067.04 209.057585 
" clip-path="url(#p00bf58b4c7)" style="fill: none; stroke: #cccccc; stroke-linecap: round"/>
     </g>
     <g id="text_10">
      <!-- −1 -->
      <g style="fill: #262626" transform="translate(12.928281 212.994382) scale(0.11 -0.11)">
       <defs>
        <path id="ArialMT-31" d="M 2384 0 
L 1822 0 
L 1822 3584 
Q 1619 3391 1289 3197 
Q 959 3003 697 2906 
L 697 3450 
Q 1169 3672 1522 3987 
Q 1875 4303 2022 4600 
L 2384 4600 
L 2384 0 
z
" transform="scale(0.015625)"/>
       </defs>
       <use xlink:href="#ArialMT-2212"/>
       <use xlink:href="#ArialMT-31" x="58.398438"/>
      </g>
     </g>
    </g>
    <g id="ytick_3">
     <g id="line2d_3">
      <path d="M 34.97 178.096402 
L 1067.04 178.096402 
" clip-path="url(#p00bf58b4c7)" style="fill: none; stroke: #cccccc; stroke-linecap: round"/>
     </g>
     <g id="text_11">
      <!-- 0 -->
      <g style="fill: #262626" transform="translate(19.352969 182.033199) scale(0.11 -0.11)">
       <defs>
        <path id="ArialMT-30" d="M 266 2259 
Q 266 3072 433 3567 
Q 600 4063 929 4331 
Q 1259 4600 1759 4600 
Q 2128 4600 2406 4451 
Q 2684 4303 2865 4023 
Q 3047 3744 3150 3342 
Q 3253 2941 3253 2259 
Q 3253 1453 3087 958 
Q 2922 463 2592 192 
Q 2263 -78 1759 -78 
Q 1097 -78 719 397 
Q 266 969 266 2259 
z
M 844 2259 
Q 844 1131 1108 757 
Q 1372 384 1759 384 
Q 2147 384 2411 759 
Q 2675 1134 2675 2259 
Q 2675 3391 2411 3762 
Q 2147 4134 1753 4134 
Q 1366 4134 1134 3806 
Q 844 3388 844 2259 
z
" transform="scale(0.015625)"/>
       </defs>
       <use xlink:href="#ArialMT-30"/>
      </g>
     </g>
    </g>
    <g id="ytick_4">
     <g id="line2d_4">
      <path d="M 34.97 147.135219 
L 1067.04 147.135219 
" clip-path="url(#p00bf58b4c7)" style="fill: none; stroke: #cccccc; stroke-linecap: round"/>
     </g>
     <g id="text_12">
      <!-- 1 -->
      <g style="fill: #262626" transform="translate(19.352969 151.072015) scale(0.11 -0.11)">
       <use xlink:href="#ArialMT-31"/>
      </g>
     </g>
    </g>
    <g id="ytick_5">
     <g id="line2d_5">
      <path d="M 34.97 116.174035 
L 1067.04 116.174035 
" clip-path="url(#p00bf58b4c7)" style="fill: none; stroke: #cccccc; stroke-linecap: round"/>
     </g>
     <g id="text_13">
      <!-- 2 -->
      <g style="fill: #262626" transform="translate(19.352969 120.110832) scale(0.11 -0.11)">
       <use xlink:href="#ArialMT-32"/>
      </g>
     </g>
    </g>
    <g id="ytick_6">
     <g id="line2d_6">
      <path d="M 34.97 85.212852 
L 1067.04 85.212852 
" clip-path="url(#p00bf58b4c7)" style="fill: none; stroke: #cccccc; stroke-linecap: round"/>
     </g>
     <g id="text_14">
      <!-- 3 -->
      <g style="fill: #262626" transform="translate(19.352969 89.149649) scale(0.11 -0.11)">
       <defs>
        <path id="ArialMT-33" d="M 269 1209 
L 831 1284 
Q 928 806 1161 595 
Q 1394 384 1728 384 
Q 2125 384 2398 659 
Q 2672 934 2672 1341 
Q 2672 1728 2419 1979 
Q 2166 2231 1775 2231 
Q 1616 2231 1378 2169 
L 1441 2663 
Q 1497 2656 1531 2656 
Q 1891 2656 2178 2843 
Q 2466 3031 2466 3422 
Q 2466 3731 2256 3934 
Q 2047 4138 1716 4138 
Q 1388 4138 1169 3931 
Q 950 3725 888 3313 
L 325 3413 
Q 428 3978 793 4289 
Q 1159 4600 1703 4600 
Q 2078 4600 2393 4439 
Q 2709 4278 2876 4000 
Q 3044 3722 3044 3409 
Q 3044 3113 2884 2869 
Q 2725 2625 2413 2481 
Q 2819 2388 3044 2092 
Q 3269 1797 3269 1353 
Q 3269 753 2831 336 
Q 2394 -81 1725 -81 
Q 1122 -81 723 278 
Q 325 638 269 1209 
z
" transform="scale(0.015625)"/>
       </defs>
       <use xlink:href="#ArialMT-33"/>
      </g>
     </g>
    </g>
    <g id="ytick_7">
     <g id="line2d_7">
      <path d="M 34.97 54.251668 
L 1067.04 54.251668 
" clip-path="url(#p00bf58b4c7)" style="fill: none; stroke: #cccccc; stroke-linecap: round"/>
     </g>
     <g id="text_15">
      <!-- 4 -->
      <g style="fill: #262626" transform="translate(19.352969 58.188465) scale(0.11 -0.11)">
       <defs>
        <path id="ArialMT-34" d="M 2069 0 
L 2069 1097 
L 81 1097 
L 81 1613 
L 2172 4581 
L 2631 4581 
L 2631 1613 
L 3250 1613 
L 3250 1097 
L 2631 1097 
L 2631 0 
L 2069 0 
z
M 2069 1613 
L 2069 3678 
L 634 1613 
L 2069 1613 
z
" transform="scale(0.015625)"/>
       </defs>
       <use xlink:href="#ArialMT-34"/>
      </g>
     </g>
    </g>
   </g>
   <g id="PolyCollection_1">
    <defs>
     <path id="m0e12d84c69" d="M 103.87712 -46.975154 
L 95.07163 -46.975154 
L 93.504254 -48.116801 
L 91.57987 -49.258449 
L 89.294351 -50.400097 
L 86.673047 -51.541744 
L 83.776397 -52.683392 
L 80.702172 -53.825039 
L 77.583142 -54.966687 
L 74.579506 -56.108334 
L 71.866286 -57.249982 
L 69.616851 -58.39163 
L 67.984583 -59.533277 
L 67.085306 -60.674925 
L 66.983161 -61.816572 
L 67.682166 -62.95822 
L 69.124804 -64.099867 
L 71.197749 -65.241515 
L 73.743648 -66.383162 
L 76.576881 -67.52481 
L 79.500772 -68.666458 
L 82.323726 -69.808105 
L 84.872375 -70.949753 
L 87.0007 -72.0914 
L 88.595073 -73.233048 
L 89.57603 -74.374695 
L 89.89805 -75.516343 
L 89.548692 -76.657991 
L 88.548071 -77.799638 
L 86.949007 -78.941286 
L 84.837442 -80.082933 
L 82.332126 -81.224581 
L 79.582209 -82.366228 
L 76.761574 -83.507876 
L 74.059207 -84.649524 
L 71.665782 -85.791171 
L 69.757606 -86.932819 
L 68.479863 -88.074466 
L 67.931595 -89.216114 
L 68.154762 -90.357761 
L 69.129218 -91.499409 
L 70.774388 -92.641056 
L 72.957297 -93.782704 
L 75.505506 -94.924352 
L 78.222787 -96.065999 
L 80.905118 -97.207647 
L 83.35493 -98.349294 
L 85.392259 -99.490942 
L 86.862439 -100.632589 
L 87.640879 -101.774237 
L 87.636121 -102.915885 
L 86.792537 -104.057532 
L 85.093733 -105.19918 
L 82.566975 -106.340827 
L 79.288069 -107.482475 
L 75.385195 -108.624122 
L 71.03968 -109.76577 
L 66.481655 -110.907418 
L 61.979135 -112.049065 
L 57.820188 -113.190713 
L 54.289348 -114.33236 
L 51.640826 -115.474008 
L 50.07217 -116.615655 
L 49.702371 -117.757303 
L 50.557962 -118.89895 
L 52.569414 -120.040598 
L 55.578373 -121.182246 
L 59.354423 -122.323893 
L 63.618475 -123.465541 
L 68.068994 -124.607188 
L 72.407216 -125.748836 
L 76.358237 -126.890483 
L 79.686175 -128.032131 
L 82.203118 -129.173779 
L 83.772921 -130.315426 
L 84.311756 -131.457074 
L 83.787506 -132.598721 
L 82.219597 -133.740369 
L 79.679905 -134.882016 
L 76.29419 -136.023664 
L 72.242485 -137.165312 
L 67.756321 -138.306959 
L 63.110721 -139.448607 
L 58.609726 -140.590254 
L 54.56551 -141.731902 
L 51.272734 -142.873549 
L 48.981216 -144.015197 
L 47.870875 -145.156845 
L 48.033016 -146.298492 
L 49.46123 -147.44014 
L 52.05363 -148.581787 
L 55.626248 -149.723435 
L 59.935472 -150.865082 
L 64.70595 -152.00673 
L 69.659701 -153.148377 
L 74.542293 -154.290025 
L 79.142854 -155.431673 
L 83.306102 -156.57332 
L 86.936044 -157.714968 
L 89.992418 -158.856615 
L 92.48178 -159.998263 
L 106.46697 -159.998263 
L 106.46697 -159.998263 
L 108.956332 -158.856615 
L 112.012706 -157.714968 
L 115.642648 -156.57332 
L 119.805896 -155.431673 
L 124.406457 -154.290025 
L 129.289049 -153.148377 
L 134.2428 -152.00673 
L 139.013278 -150.865082 
L 143.322502 -149.723435 
L 146.89512 -148.581787 
L 149.48752 -147.44014 
L 150.915734 -146.298492 
L 151.077875 -145.156845 
L 149.967534 -144.015197 
L 147.676016 -142.873549 
L 144.38324 -141.731902 
L 140.339024 -140.590254 
L 135.838029 -139.448607 
L 131.192429 -138.306959 
L 126.706265 -137.165312 
L 122.65456 -136.023664 
L 119.268845 -134.882016 
L 116.729153 -133.740369 
L 115.161244 -132.598721 
L 114.636994 -131.457074 
L 115.175829 -130.315426 
L 116.745632 -129.173779 
L 119.262575 -128.032131 
L 122.590513 -126.890483 
L 126.541534 -125.748836 
L 130.879756 -124.607188 
L 135.330275 -123.465541 
L 139.594327 -122.323893 
L 143.370377 -121.182246 
L 146.379336 -120.040598 
L 148.390788 -118.89895 
L 149.246379 -117.757303 
L 148.87658 -116.615655 
L 147.307924 -115.474008 
L 144.659402 -114.33236 
L 141.128562 -113.190713 
L 136.969615 -112.049065 
L 132.467095 -110.907418 
L 127.90907 -109.76577 
L 123.563555 -108.624122 
L 119.660681 -107.482475 
L 116.381775 -106.340827 
L 113.855017 -105.19918 
L 112.156213 -104.057532 
L 111.312629 -102.915885 
L 111.307871 -101.774237 
L 112.086311 -100.632589 
L 113.556491 -99.490942 
L 115.59382 -98.349294 
L 118.043632 -97.207647 
L 120.725963 -96.065999 
L 123.443244 -94.924352 
L 125.991453 -93.782704 
L 128.174362 -92.641056 
L 129.819532 -91.499409 
L 130.793988 -90.357761 
L 131.017155 -89.216114 
L 130.468887 -88.074466 
L 129.191144 -86.932819 
L 127.282968 -85.791171 
L 124.889543 -84.649524 
L 122.187176 -83.507876 
L 119.366541 -82.366228 
L 116.616624 -81.224581 
L 114.111308 -80.082933 
L 111.999743 -78.941286 
L 110.400679 -77.799638 
L 109.400058 -76.657991 
L 109.0507 -75.516343 
L 109.37272 -74.374695 
L 110.353677 -73.233048 
L 111.94805 -72.0914 
L 114.076375 -70.949753 
L 116.625024 -69.808105 
L 119.447978 -68.666458 
L 122.371869 -67.52481 
L 125.205102 -66.383162 
L 127.751001 -65.241515 
L 129.823946 -64.099867 
L 131.266584 -62.95822 
L 131.965589 -61.816572 
L 131.863444 -60.674925 
L 130.964167 -59.533277 
L 129.331899 -58.39163 
L 127.082464 -57.249982 
L 124.369244 -56.108334 
L 121.365608 -54.966687 
L 118.246578 -53.825039 
L 115.172353 -52.683392 
L 112.275703 -51.541744 
L 109.654399 -50.400097 
L 107.36888 -49.258449 
L 105.444496 -48.116801 
L 103.87712 -46.975154 
z
" style="stroke: #3e3e3e; stroke-width: 3"/>
    </defs>
    <g clip-path="url(#p00bf58b4c7)">
     <use xlink:href="#m0e12d84c69" x="0" y="288" style="fill: #cb3335; stroke: #3e3e3e; stroke-width: 3"/>
    </g>
   </g>
   <g id="PolyCollection_2">
    <defs>
     <path id="mc1c712ed28" d="M 228.857598 -59.372853 
L 228.108652 -59.372853 
L 227.829017 -60.925241 
L 227.37882 -62.477628 
L 226.680912 -64.030016 
L 225.639933 -65.582403 
L 224.147551 -67.134791 
L 222.093826 -68.687179 
L 219.38518 -70.239566 
L 215.967587 -71.791954 
L 211.851038 -73.344341 
L 207.129118 -74.896729 
L 201.986516 -76.449116 
L 196.688682 -78.001504 
L 191.551801 -79.553891 
L 186.89704 -81.106279 
L 182.998714 -82.658666 
L 180.039329 -84.211054 
L 178.083623 -85.763441 
L 177.078707 -87.315829 
L 176.879625 -88.868216 
L 177.292155 -90.420604 
L 178.120056 -91.972992 
L 179.203911 -93.525379 
L 180.442795 -95.077767 
L 181.796403 -96.630154 
L 183.27132 -98.182542 
L 184.89886 -99.734929 
L 186.712522 -101.287317 
L 188.731004 -102.839704 
L 190.949431 -104.392092 
L 193.338275 -105.944479 
L 195.847579 -107.496867 
L 198.413633 -109.049254 
L 200.965943 -110.601642 
L 203.433407 -112.15403 
L 205.749474 -113.706417 
L 207.856443 -115.258805 
L 209.709016 -116.811192 
L 211.27701 -118.36358 
L 212.547065 -119.915967 
L 213.52326 -121.468355 
L 214.226732 -123.020742 
L 214.694473 -124.57313 
L 214.977326 -126.125517 
L 215.136976 -127.677905 
L 215.241583 -129.230292 
L 215.35979 -130.78268 
L 215.553374 -132.335067 
L 215.869436 -133.887455 
L 216.333632 -135.439843 
L 216.94612 -136.99223 
L 217.68153 -138.544618 
L 218.49339 -140.097005 
L 219.322418 -141.649393 
L 220.10712 -143.20178 
L 220.794642 -144.754168 
L 221.349784 -146.306555 
L 221.760463 -147.858943 
L 222.038659 -149.41133 
L 222.216688 -150.963718 
L 222.339558 -152.516105 
L 222.454943 -154.068493 
L 222.602869 -155.62088 
L 222.807321 -157.173268 
L 223.071607 -158.725656 
L 223.378414 -160.278043 
L 223.694353 -161.830431 
L 223.977751 -163.382818 
L 224.187739 -164.935206 
L 224.292609 -166.487593 
L 224.275744 -168.039981 
L 224.138177 -169.592368 
L 223.897555 -171.144756 
L 223.58401 -172.697143 
L 223.233945 -174.249531 
L 222.883058 -175.801918 
L 222.560073 -177.354306 
L 222.282534 -178.906694 
L 222.055632 -180.459081 
L 221.874373 -182.011469 
L 221.72858 -183.563856 
L 221.609388 -185.116244 
L 221.515338 -186.668631 
L 221.456158 -188.221019 
L 221.45283 -189.773406 
L 221.533627 -191.325794 
L 221.727019 -192.878181 
L 222.05346 -194.430569 
L 222.518439 -195.982956 
L 223.108929 -197.535344 
L 223.794265 -199.087731 
L 224.53118 -200.640119 
L 225.271472 -202.192507 
L 225.970177 -203.744894 
L 226.592183 -205.297282 
L 227.115956 -206.849669 
L 227.53404 -208.402057 
L 227.850893 -209.954444 
L 228.079171 -211.506832 
L 228.235668 -213.059219 
L 228.730582 -213.059219 
L 228.730582 -213.059219 
L 228.887079 -211.506832 
L 229.115357 -209.954444 
L 229.43221 -208.402057 
L 229.850294 -206.849669 
L 230.374067 -205.297282 
L 230.996073 -203.744894 
L 231.694778 -202.192507 
L 232.43507 -200.640119 
L 233.171985 -199.087731 
L 233.857321 -197.535344 
L 234.447811 -195.982956 
L 234.91279 -194.430569 
L 235.239231 -192.878181 
L 235.432623 -191.325794 
L 235.51342 -189.773406 
L 235.510092 -188.221019 
L 235.450912 -186.668631 
L 235.356862 -185.116244 
L 235.23767 -183.563856 
L 235.091877 -182.011469 
L 234.910618 -180.459081 
L 234.683716 -178.906694 
L 234.406177 -177.354306 
L 234.083192 -175.801918 
L 233.732305 -174.249531 
L 233.38224 -172.697143 
L 233.068695 -171.144756 
L 232.828073 -169.592368 
L 232.690506 -168.039981 
L 232.673641 -166.487593 
L 232.778511 -164.935206 
L 232.988499 -163.382818 
L 233.271897 -161.830431 
L 233.587836 -160.278043 
L 233.894643 -158.725656 
L 234.158929 -157.173268 
L 234.363381 -155.62088 
L 234.511307 -154.068493 
L 234.626692 -152.516105 
L 234.749562 -150.963718 
L 234.927591 -149.41133 
L 235.205787 -147.858943 
L 235.616466 -146.306555 
L 236.171608 -144.754168 
L 236.85913 -143.20178 
L 237.643832 -141.649393 
L 238.47286 -140.097005 
L 239.28472 -138.544618 
L 240.02013 -136.99223 
L 240.632618 -135.439843 
L 241.096814 -133.887455 
L 241.412876 -132.335067 
L 241.60646 -130.78268 
L 241.724667 -129.230292 
L 241.829274 -127.677905 
L 241.988924 -126.125517 
L 242.271777 -124.57313 
L 242.739518 -123.020742 
L 243.44299 -121.468355 
L 244.419185 -119.915967 
L 245.68924 -118.36358 
L 247.257234 -116.811192 
L 249.109807 -115.258805 
L 251.216776 -113.706417 
L 253.532843 -112.15403 
L 256.000307 -110.601642 
L 258.552617 -109.049254 
L 261.118671 -107.496867 
L 263.627975 -105.944479 
L 266.016819 -104.392092 
L 268.235246 -102.839704 
L 270.253728 -101.287317 
L 272.06739 -99.734929 
L 273.69493 -98.182542 
L 275.169847 -96.630154 
L 276.523455 -95.077767 
L 277.762339 -93.525379 
L 278.846194 -91.972992 
L 279.674095 -90.420604 
L 280.086625 -88.868216 
L 279.887543 -87.315829 
L 278.882627 -85.763441 
L 276.926921 -84.211054 
L 273.967536 -82.658666 
L 270.06921 -81.106279 
L 265.414449 -79.553891 
L 260.277568 -78.001504 
L 254.979734 -76.449116 
L 249.837132 -74.896729 
L 245.115212 -73.344341 
L 240.998663 -71.791954 
L 237.58107 -70.239566 
L 234.872424 -68.687179 
L 232.818699 -67.134791 
L 231.326317 -65.582403 
L 230.285338 -64.030016 
L 229.58743 -62.477628 
L 229.137233 -60.925241 
L 228.857598 -59.372853 
z
" style="stroke: #3e3e3e; stroke-width: 3"/>
    </defs>
    <g clip-path="url(#p00bf58b4c7)">
     <use xlink:href="#mc1c712ed28" x="0" y="288" style="fill: #477ca8; stroke: #3e3e3e; stroke-width: 3"/>
    </g>
   </g>
   <g id="PolyCollection_3">
    <defs>
     <path id="m933e5e5af3" d="M 358.571324 -42.351818 
L 356.412426 -42.351818 
L 355.814239 -43.73701 
L 354.966068 -45.122203 
L 353.806005 -46.507395 
L 352.275387 -47.892587 
L 350.326989 -49.277779 
L 347.933887 -50.662972 
L 345.097454 -52.048164 
L 341.852738 -53.433356 
L 338.269714 -54.818548 
L 334.4496 -56.203741 
L 330.516398 -57.588933 
L 326.604912 -58.974125 
L 322.847273 -60.359317 
L 319.360317 -61.74451 
L 316.235872 -63.129702 
L 313.535212 -64.514894 
L 311.287925 -65.900086 
L 309.494492 -67.285279 
L 308.1313 -68.670471 
L 307.156679 -70.055663 
L 306.516859 -71.440855 
L 306.151249 -72.826048 
L 305.996926 -74.21124 
L 305.992555 -75.596432 
L 306.081956 -76.981624 
L 306.217393 -78.366817 
L 306.362346 -79.752009 
L 306.493356 -81.137201 
L 306.600454 -82.522393 
L 306.685882 -83.907586 
L 306.76114 -85.292778 
L 306.842805 -86.67797 
L 306.947905 -88.063162 
L 307.089772 -89.448355 
L 307.275186 -90.833547 
L 307.503308 -92.218739 
L 307.766401 -93.603931 
L 308.05191 -94.989124 
L 308.34515 -96.374316 
L 308.631797 -97.759508 
L 308.899562 -99.1447 
L 309.13878 -100.529893 
L 309.342071 -101.915085 
L 309.503532 -103.300277 
L 309.618059 -104.685469 
L 309.681316 -106.070662 
L 309.690574 -107.455854 
L 309.646242 -108.841046 
L 309.553547 -110.226238 
L 309.423619 -111.61143 
L 309.27324 -112.996623 
L 309.122889 -114.381815 
L 308.993201 -115.767007 
L 308.900538 -117.152199 
L 308.852804 -118.537392 
L 308.846708 -119.922584 
L 308.867426 -121.307776 
L 308.890976 -122.692968 
L 308.888906 -124.078161 
L 308.83419 -125.463353 
L 308.706901 -126.848545 
L 308.498288 -128.233737 
L 308.212347 -129.61893 
L 307.864723 -131.004122 
L 307.479505 -132.389314 
L 307.085047 -133.774506 
L 306.710046 -135.159699 
L 306.380902 -136.544891 
L 306.120782 -137.930083 
L 305.950194 -139.315275 
L 305.888375 -140.700468 
L 305.954606 -142.08566 
L 306.168769 -143.470852 
L 306.550874 -144.856044 
L 307.119802 -146.241237 
L 307.891879 -147.626429 
L 308.879982 -149.011621 
L 310.0936 -150.396813 
L 311.539846 -151.782006 
L 313.224843 -153.167198 
L 315.154596 -154.55239 
L 317.33444 -155.937582 
L 319.766547 -157.322775 
L 322.445638 -158.707967 
L 325.353798 -160.093159 
L 328.455878 -161.478351 
L 331.697064 -162.863544 
L 335.003849 -164.248736 
L 338.288853 -165.633928 
L 341.45889 -167.01912 
L 344.424841 -168.404313 
L 347.111364 -169.789505 
L 349.464538 -171.174697 
L 351.456071 -172.559889 
L 353.083566 -173.945082 
L 354.367225 -175.330274 
L 355.344083 -176.715466 
L 356.061147 -178.100658 
L 356.568781 -179.485851 
L 358.414969 -179.485851 
L 358.414969 -179.485851 
L 358.922603 -178.100658 
L 359.639667 -176.715466 
L 360.616525 -175.330274 
L 361.900184 -173.945082 
L 363.527679 -172.559889 
L 365.519212 -171.174697 
L 367.872386 -169.789505 
L 370.558909 -168.404313 
L 373.52486 -167.01912 
L 376.694897 -165.633928 
L 379.979901 -164.248736 
L 383.286686 -162.863544 
L 386.527872 -161.478351 
L 389.629952 -160.093159 
L 392.538112 -158.707967 
L 395.217203 -157.322775 
L 397.64931 -155.937582 
L 399.829154 -154.55239 
L 401.758907 -153.167198 
L 403.443904 -151.782006 
L 404.89015 -150.396813 
L 406.103768 -149.011621 
L 407.091871 -147.626429 
L 407.863948 -146.241237 
L 408.432876 -144.856044 
L 408.814981 -143.470852 
L 409.029144 -142.08566 
L 409.095375 -140.700468 
L 409.033556 -139.315275 
L 408.862968 -137.930083 
L 408.602848 -136.544891 
L 408.273704 -135.159699 
L 407.898703 -133.774506 
L 407.504245 -132.389314 
L 407.119027 -131.004122 
L 406.771403 -129.61893 
L 406.485462 -128.233737 
L 406.276849 -126.848545 
L 406.14956 -125.463353 
L 406.094844 -124.078161 
L 406.092774 -122.692968 
L 406.116324 -121.307776 
L 406.137042 -119.922584 
L 406.130946 -118.537392 
L 406.083212 -117.152199 
L 405.990549 -115.767007 
L 405.860861 -114.381815 
L 405.71051 -112.996623 
L 405.560131 -111.61143 
L 405.430203 -110.226238 
L 405.337508 -108.841046 
L 405.293176 -107.455854 
L 405.302434 -106.070662 
L 405.365691 -104.685469 
L 405.480218 -103.300277 
L 405.641679 -101.915085 
L 405.84497 -100.529893 
L 406.084188 -99.1447 
L 406.351953 -97.759508 
L 406.6386 -96.374316 
L 406.93184 -94.989124 
L 407.217349 -93.603931 
L 407.480442 -92.218739 
L 407.708564 -90.833547 
L 407.893978 -89.448355 
L 408.035845 -88.063162 
L 408.140945 -86.67797 
L 408.22261 -85.292778 
L 408.297868 -83.907586 
L 408.383296 -82.522393 
L 408.490394 -81.137201 
L 408.621404 -79.752009 
L 408.766357 -78.366817 
L 408.901794 -76.981624 
L 408.991195 -75.596432 
L 408.986824 -74.21124 
L 408.832501 -72.826048 
L 408.466891 -71.440855 
L 407.827071 -70.055663 
L 406.85245 -68.670471 
L 405.489258 -67.285279 
L 403.695825 -65.900086 
L 401.448538 -64.514894 
L 398.747878 -63.129702 
L 395.623433 -61.74451 
L 392.136477 -60.359317 
L 388.378838 -58.974125 
L 384.467352 -57.588933 
L 380.53415 -56.203741 
L 376.714036 -54.818548 
L 373.131012 -53.433356 
L 369.886296 -52.048164 
L 367.049863 -50.662972 
L 364.656761 -49.277779 
L 362.708363 -47.892587 
L 361.177745 -46.507395 
L 360.017682 -45.122203 
L 359.169511 -43.73701 
L 358.571324 -42.351818 
z
" style="stroke: #3e3e3e; stroke-width: 3"/>
    </defs>
    <g clip-path="url(#p00bf58b4c7)">
     <use xlink:href="#m933e5e5af3" x="0" y="288" style="fill: #59a257; stroke: #3e3e3e; stroke-width: 3"/>
    </g>
   </g>
   <g id="PolyCollection_4">
    <defs>
     <path id="mb64245fad5" d="M 488.841794 -62.122468 
L 484.159456 -62.122468 
L 483.070385 -63.54015 
L 481.651454 -64.957832 
L 479.879331 -66.375514 
L 477.754988 -67.793197 
L 475.304957 -69.210879 
L 472.576087 -70.628561 
L 469.62416 -72.046243 
L 466.499416 -73.463925 
L 463.234351 -74.881607 
L 459.839857 -76.299289 
L 456.313992 -77.716971 
L 452.663455 -79.134654 
L 448.932348 -80.552336 
L 445.228197 -81.970018 
L 441.733716 -83.3877 
L 438.695753 -84.805382 
L 436.389748 -86.223064 
L 435.066759 -87.640746 
L 434.897125 -89.058428 
L 435.927348 -90.47611 
L 438.06341 -91.893793 
L 441.085553 -93.311475 
L 444.689722 -94.729157 
L 448.543046 -96.146839 
L 452.337797 -97.564521 
L 455.830823 -98.982203 
L 458.86206 -100.399885 
L 461.353228 -101.817567 
L 463.293362 -103.23525 
L 464.719586 -104.652932 
L 465.699708 -106.070614 
L 466.319384 -107.488296 
L 466.673035 -108.905978 
L 466.855996 -110.32366 
L 466.956032 -111.741342 
L 467.044446 -113.159024 
L 467.169036 -114.576706 
L 467.351842 -115.994389 
L 467.593362 -117.412071 
L 467.882393 -118.829753 
L 468.208135 -120.247435 
L 468.569967 -121.665117 
L 468.981116 -123.082799 
L 469.464896 -124.500481 
L 470.045299 -125.918163 
L 470.735952 -127.335845 
L 471.531989 -128.753528 
L 472.407942 -130.17121 
L 473.322191 -131.588892 
L 474.225928 -133.006574 
L 475.073106 -134.424256 
L 475.828028 -135.841938 
L 476.468692 -137.25962 
L 476.986056 -138.677302 
L 477.380888 -140.094985 
L 477.66037 -141.512667 
L 477.835954 -142.930349 
L 477.9227 -144.348031 
L 477.93922 -145.765713 
L 477.906949 -147.183395 
L 477.847989 -148.601077 
L 477.781765 -150.018759 
L 477.721777 -151.436441 
L 477.673982 -152.854124 
L 477.637839 -154.271806 
L 477.609863 -155.689488 
L 477.588288 -157.10717 
L 477.576808 -158.524852 
L 477.585639 -159.942534 
L 477.629262 -161.360216 
L 477.721689 -162.777898 
L 477.871157 -164.19558 
L 478.076468 -165.613263 
L 478.32644 -167.030945 
L 478.602613 -168.448627 
L 478.884026 -169.866309 
L 479.152128 -171.283991 
L 479.394081 -172.701673 
L 479.603604 -174.119355 
L 479.779732 -175.537037 
L 479.924756 -176.95472 
L 480.042773 -178.372402 
L 480.139711 -179.790084 
L 480.224688 -181.207766 
L 480.311661 -182.625448 
L 480.419965 -184.04313 
L 480.572706 -185.460812 
L 480.792903 -186.878494 
L 481.098295 -188.296176 
L 481.496424 -189.713859 
L 481.981643 -191.131541 
L 482.535092 -192.549223 
L 483.127724 -193.966905 
L 483.725484 -195.384587 
L 484.295188 -196.802269 
L 484.809609 -198.219951 
L 485.250688 -199.637633 
L 485.610488 -201.055315 
L 485.890152 -202.472998 
L 487.111098 -202.472998 
L 487.111098 -202.472998 
L 487.390762 -201.055315 
L 487.750562 -199.637633 
L 488.191641 -198.219951 
L 488.706062 -196.802269 
L 489.275766 -195.384587 
L 489.873526 -193.966905 
L 490.466158 -192.549223 
L 491.019607 -191.131541 
L 491.504826 -189.713859 
L 491.902955 -188.296176 
L 492.208347 -186.878494 
L 492.428544 -185.460812 
L 492.581285 -184.04313 
L 492.689589 -182.625448 
L 492.776562 -181.207766 
L 492.861539 -179.790084 
L 492.958477 -178.372402 
L 493.076494 -176.95472 
L 493.221518 -175.537037 
L 493.397646 -174.119355 
L 493.607169 -172.701673 
L 493.849122 -171.283991 
L 494.117224 -169.866309 
L 494.398637 -168.448627 
L 494.67481 -167.030945 
L 494.924782 -165.613263 
L 495.130093 -164.19558 
L 495.279561 -162.777898 
L 495.371988 -161.360216 
L 495.415611 -159.942534 
L 495.424442 -158.524852 
L 495.412962 -157.10717 
L 495.391387 -155.689488 
L 495.363411 -154.271806 
L 495.327268 -152.854124 
L 495.279473 -151.436441 
L 495.219485 -150.018759 
L 495.153261 -148.601077 
L 495.094301 -147.183395 
L 495.06203 -145.765713 
L 495.07855 -144.348031 
L 495.165296 -142.930349 
L 495.34088 -141.512667 
L 495.620362 -140.094985 
L 496.015194 -138.677302 
L 496.532558 -137.25962 
L 497.173222 -135.841938 
L 497.928144 -134.424256 
L 498.775322 -133.006574 
L 499.679059 -131.588892 
L 500.593308 -130.17121 
L 501.469261 -128.753528 
L 502.265298 -127.335845 
L 502.955951 -125.918163 
L 503.536354 -124.500481 
L 504.020134 -123.082799 
L 504.431283 -121.665117 
L 504.793115 -120.247435 
L 505.118857 -118.829753 
L 505.407888 -117.412071 
L 505.649408 -115.994389 
L 505.832214 -114.576706 
L 505.956804 -113.159024 
L 506.045218 -111.741342 
L 506.145254 -110.32366 
L 506.328215 -108.905978 
L 506.681866 -107.488296 
L 507.301542 -106.070614 
L 508.281664 -104.652932 
L 509.707888 -103.23525 
L 511.648022 -101.817567 
L 514.13919 -100.399885 
L 517.170427 -98.982203 
L 520.663453 -97.564521 
L 524.458204 -96.146839 
L 528.311528 -94.729157 
L 531.915697 -93.311475 
L 534.93784 -91.893793 
L 537.073902 -90.47611 
L 538.104125 -89.058428 
L 537.934491 -87.640746 
L 536.611502 -86.223064 
L 534.305497 -84.805382 
L 531.267534 -83.3877 
L 527.773053 -81.970018 
L 524.068902 -80.552336 
L 520.337795 -79.134654 
L 516.687258 -77.716971 
L 513.161393 -76.299289 
L 509.766899 -74.881607 
L 506.501834 -73.463925 
L 503.37709 -72.046243 
L 500.425163 -70.628561 
L 497.696293 -69.210879 
L 495.246262 -67.793197 
L 493.121919 -66.375514 
L 491.349796 -64.957832 
L 489.930865 -63.54015 
L 488.841794 -62.122468 
z
" style="stroke: #3e3e3e; stroke-width: 3"/>
    </defs>
    <g clip-path="url(#p00bf58b4c7)">
     <use xlink:href="#mb64245fad5" x="0" y="288" style="fill: #905998; stroke: #3e3e3e; stroke-width: 3"/>
    </g>
   </g>
   <g id="PolyCollection_5">
    <defs>
     <path id="m14a3c72c7c" d="M 619.063893 -59.892484 
L 611.954857 -59.892484 
L 610.186039 -61.379698 
L 607.845213 -62.866913 
L 604.892787 -64.354127 
L 601.34517 -65.841341 
L 597.285745 -67.328555 
L 592.864051 -68.815769 
L 588.281061 -70.302983 
L 583.762407 -71.790198 
L 579.525203 -73.277412 
L 575.746435 -74.764626 
L 572.540537 -76.25184 
L 569.950906 -77.739054 
L 567.955917 -79.226268 
L 566.486052 -80.713483 
L 565.446492 -82.200697 
L 564.73931 -83.687911 
L 564.280967 -85.175125 
L 564.012996 -86.662339 
L 563.905875 -88.149554 
L 563.957418 -89.636768 
L 564.187503 -91.123982 
L 564.630802 -92.611196 
L 565.328568 -94.09841 
L 566.320008 -95.585624 
L 567.633552 -97.072839 
L 569.278604 -98.560053 
L 571.239001 -100.047267 
L 573.469803 -101.534481 
L 575.898851 -103.021695 
L 578.43348 -104.508909 
L 580.971294 -105.996124 
L 583.412638 -107.483338 
L 585.671912 -108.970552 
L 587.685427 -110.457766 
L 589.414705 -111.94498 
L 590.845517 -113.432195 
L 591.983915 -114.919409 
L 592.850874 -116.406623 
L 593.476958 -117.893837 
L 593.897882 -119.381051 
L 594.151313 -120.868265 
L 594.274815 -122.35548 
L 594.30467 -123.842694 
L 594.27526 -125.329908 
L 594.218734 -126.817122 
L 594.16472 -128.304336 
L 594.13988 -129.79155 
L 594.167218 -131.278765 
L 594.265182 -132.765979 
L 594.446784 -134.253193 
L 594.719001 -135.740407 
L 595.08268 -137.227621 
L 595.532935 -138.714835 
L 596.059886 -140.20205 
L 596.649525 -141.689264 
L 597.284584 -143.176478 
L 597.945443 -144.663692 
L 598.611178 -146.150906 
L 599.260807 -147.638121 
L 599.874682 -149.125335 
L 600.435888 -150.612549 
L 600.931506 -152.099763 
L 601.353685 -153.586977 
L 601.700505 -155.074191 
L 601.976649 -156.561406 
L 602.193771 -158.04862 
L 602.370321 -159.535834 
L 602.530552 -161.023048 
L 602.702411 -162.510262 
L 602.914326 -163.997476 
L 603.191203 -165.484691 
L 603.550381 -166.971905 
L 603.998492 -168.459119 
L 604.530113 -169.946333 
L 605.1287 -171.433547 
L 605.76963 -172.920762 
L 606.424622 -174.407976 
L 607.066434 -175.89519 
L 607.672819 -177.382404 
L 608.229038 -178.869618 
L 608.728758 -180.356832 
L 609.173552 -181.844047 
L 609.571471 -183.331261 
L 609.935119 -184.818475 
L 610.279583 -186.305689 
L 610.620351 -187.792903 
L 610.971299 -189.280117 
L 611.342799 -190.767332 
L 611.740124 -192.254546 
L 612.16244 -193.74176 
L 612.602682 -195.228974 
L 613.048512 -196.716188 
L 613.484284 -198.203403 
L 613.893651 -199.690617 
L 614.262243 -201.177831 
L 614.579793 -202.665045 
L 614.841284 -204.152259 
L 615.046976 -205.639473 
L 615.201487 -207.126688 
L 615.817263 -207.126688 
L 615.817263 -207.126688 
L 615.971774 -205.639473 
L 616.177466 -204.152259 
L 616.438957 -202.665045 
L 616.756507 -201.177831 
L 617.125099 -199.690617 
L 617.534466 -198.203403 
L 617.970238 -196.716188 
L 618.416068 -195.228974 
L 618.85631 -193.74176 
L 619.278626 -192.254546 
L 619.675951 -190.767332 
L 620.047451 -189.280117 
L 620.398399 -187.792903 
L 620.739167 -186.305689 
L 621.083631 -184.818475 
L 621.447279 -183.331261 
L 621.845198 -181.844047 
L 622.289992 -180.356832 
L 622.789712 -178.869618 
L 623.345931 -177.382404 
L 623.952316 -175.89519 
L 624.594128 -174.407976 
L 625.24912 -172.920762 
L 625.89005 -171.433547 
L 626.488637 -169.946333 
L 627.020258 -168.459119 
L 627.468369 -166.971905 
L 627.827547 -165.484691 
L 628.104424 -163.997476 
L 628.316339 -162.510262 
L 628.488198 -161.023048 
L 628.648429 -159.535834 
L 628.824979 -158.04862 
L 629.042101 -156.561406 
L 629.318245 -155.074191 
L 629.665065 -153.586977 
L 630.087244 -152.099763 
L 630.582862 -150.612549 
L 631.144068 -149.125335 
L 631.757943 -147.638121 
L 632.407572 -146.150906 
L 633.073307 -144.663692 
L 633.734166 -143.176478 
L 634.369225 -141.689264 
L 634.958864 -140.20205 
L 635.485815 -138.714835 
L 635.93607 -137.227621 
L 636.299749 -135.740407 
L 636.571966 -134.253193 
L 636.753568 -132.765979 
L 636.851532 -131.278765 
L 636.87887 -129.79155 
L 636.85403 -128.304336 
L 636.800016 -126.817122 
L 636.74349 -125.329908 
L 636.71408 -123.842694 
L 636.743935 -122.35548 
L 636.867437 -120.868265 
L 637.120868 -119.381051 
L 637.541792 -117.893837 
L 638.167876 -116.406623 
L 639.034835 -114.919409 
L 640.173233 -113.432195 
L 641.604045 -111.94498 
L 643.333323 -110.457766 
L 645.346838 -108.970552 
L 647.606112 -107.483338 
L 650.047456 -105.996124 
L 652.58527 -104.508909 
L 655.119899 -103.021695 
L 657.548947 -101.534481 
L 659.779749 -100.047267 
L 661.740146 -98.560053 
L 663.385198 -97.072839 
L 664.698742 -95.585624 
L 665.690182 -94.09841 
L 666.387948 -92.611196 
L 666.831247 -91.123982 
L 667.061332 -89.636768 
L 667.112875 -88.149554 
L 667.005754 -86.662339 
L 666.737783 -85.175125 
L 666.27944 -83.687911 
L 665.572258 -82.200697 
L 664.532698 -80.713483 
L 663.062833 -79.226268 
L 661.067844 -77.739054 
L 658.478213 -76.25184 
L 655.272315 -74.764626 
L 651.493547 -73.277412 
L 647.256343 -71.790198 
L 642.737689 -70.302983 
L 638.154699 -68.815769 
L 633.733005 -67.328555 
L 629.67358 -65.841341 
L 626.125963 -64.354127 
L 623.173537 -62.866913 
L 620.832711 -61.379698 
L 619.063893 -59.892484 
z
" style="stroke: #3e3e3e; stroke-width: 3"/>
    </defs>
    <g clip-path="url(#p00bf58b4c7)">
     <use xlink:href="#m14a3c72c7c" x="0" y="288" style="fill: #df7f20; stroke: #3e3e3e; stroke-width: 3"/>
    </g>
   </g>
   <g id="PolyCollection_6">
    <defs>
     <path id="m3a9493e90c" d="M 748.716107 -46.471535 
L 740.320143 -46.471535 
L 738.800839 -47.630207 
L 736.93072 -48.78888 
L 734.706279 -49.947552 
L 732.154029 -51.106224 
L 729.336147 -52.264897 
L 726.352555 -53.423569 
L 723.338175 -54.582241 
L 720.454716 -55.740914 
L 717.877295 -56.899586 
L 715.777206 -58.058258 
L 714.303079 -59.21693 
L 713.563207 -60.375603 
L 713.611862 -61.534275 
L 714.441833 -62.692947 
L 715.984385 -63.85162 
L 718.116512 -65.010292 
L 720.674063 -66.168964 
L 723.468405 -67.327637 
L 726.303836 -68.486309 
L 728.993224 -69.644981 
L 731.370022 -70.803654 
L 733.295886 -71.962326 
L 734.664203 -73.120998 
L 735.400656 -74.279671 
L 735.462412 -75.438343 
L 734.837436 -76.597015 
L 733.544885 -77.755688 
L 731.636762 -78.91436 
L 729.200086 -80.073032 
L 726.358164 -81.231705 
L 723.269225 -82.390377 
L 720.120887 -83.549049 
L 717.119615 -84.707722 
L 714.475423 -85.866394 
L 712.383231 -87.025066 
L 711.003299 -88.183739 
L 710.44372 -89.342411 
L 710.747854 -90.501083 
L 711.888848 -91.659755 
L 713.772151 -92.818428 
L 716.245498 -93.9771 
L 719.114486 -95.135772 
L 722.161036 -96.294445 
L 725.161781 -97.453117 
L 727.903877 -98.611789 
L 730.19669 -99.770462 
L 731.879035 -100.929134 
L 732.822797 -102.087806 
L 732.934526 -103.246479 
L 732.156849 -104.405151 
L 730.471149 -105.563823 
L 727.902078 -106.722496 
L 724.523342 -107.881168 
L 720.463053 -109.03984 
L 715.90623 -110.198513 
L 711.091888 -111.357185 
L 706.302779 -112.515857 
L 701.847105 -113.67453 
L 698.033254 -114.833202 
L 695.140339 -115.991874 
L 693.388646 -117.150547 
L 692.914625 -118.309219 
L 693.754638 -119.467891 
L 695.840277 -120.626563 
L 699.006024 -121.785236 
L 703.007847 -122.943908 
L 707.549397 -124.10258 
L 712.311428 -125.261253 
L 716.979882 -126.419925 
L 721.268977 -127.578597 
L 724.937122 -128.73727 
L 727.795334 -129.895942 
L 729.709405 -131.054614 
L 730.598177 -132.213287 
L 730.43054 -133.371959 
L 729.223297 -134.530631 
L 727.040969 -135.689304 
L 723.997233 -136.847976 
L 720.256459 -138.006648 
L 716.03298 -139.165321 
L 711.585656 -140.323993 
L 707.205956 -141.482665 
L 703.199117 -142.641338 
L 699.85962 -143.80001 
L 697.443859 -144.958682 
L 696.14401 -146.117355 
L 696.067428 -147.276027 
L 697.225255 -148.434699 
L 699.532462 -149.593372 
L 702.819495 -150.752044 
L 706.853687 -151.910716 
L 711.366912 -153.069388 
L 716.085064 -154.228061 
L 720.755031 -155.386733 
L 725.165628 -156.545405 
L 729.160454 -157.704078 
L 732.642187 -158.86275 
L 735.56933 -160.021422 
L 737.94737 -161.180095 
L 751.08888 -161.180095 
L 751.08888 -161.180095 
L 753.46692 -160.021422 
L 756.394063 -158.86275 
L 759.875796 -157.704078 
L 763.870622 -156.545405 
L 768.281219 -155.386733 
L 772.951186 -154.228061 
L 777.669338 -153.069388 
L 782.182563 -151.910716 
L 786.216755 -150.752044 
L 789.503788 -149.593372 
L 791.810995 -148.434699 
L 792.968822 -147.276027 
L 792.89224 -146.117355 
L 791.592391 -144.958682 
L 789.17663 -143.80001 
L 785.837133 -142.641338 
L 781.830294 -141.482665 
L 777.450594 -140.323993 
L 773.00327 -139.165321 
L 768.779791 -138.006648 
L 765.039017 -136.847976 
L 761.995281 -135.689304 
L 759.812953 -134.530631 
L 758.60571 -133.371959 
L 758.438073 -132.213287 
L 759.326845 -131.054614 
L 761.240916 -129.895942 
L 764.099128 -128.73727 
L 767.767273 -127.578597 
L 772.056368 -126.419925 
L 776.724822 -125.261253 
L 781.486853 -124.10258 
L 786.028403 -122.943908 
L 790.030226 -121.785236 
L 793.195973 -120.626563 
L 795.281612 -119.467891 
L 796.121625 -118.309219 
L 795.647604 -117.150547 
L 793.895911 -115.991874 
L 791.002996 -114.833202 
L 787.189145 -113.67453 
L 782.733471 -112.515857 
L 777.944362 -111.357185 
L 773.13002 -110.198513 
L 768.573197 -109.03984 
L 764.512908 -107.881168 
L 761.134172 -106.722496 
L 758.565101 -105.563823 
L 756.879401 -104.405151 
L 756.101724 -103.246479 
L 756.213453 -102.087806 
L 757.157215 -100.929134 
L 758.83956 -99.770462 
L 761.132373 -98.611789 
L 763.874469 -97.453117 
L 766.875214 -96.294445 
L 769.921764 -95.135772 
L 772.790752 -93.9771 
L 775.264099 -92.818428 
L 777.147402 -91.659755 
L 778.288396 -90.501083 
L 778.59253 -89.342411 
L 778.032951 -88.183739 
L 776.653019 -87.025066 
L 774.560827 -85.866394 
L 771.916635 -84.707722 
L 768.915363 -83.549049 
L 765.767025 -82.390377 
L 762.678086 -81.231705 
L 759.836164 -80.073032 
L 757.399488 -78.91436 
L 755.491365 -77.755688 
L 754.198814 -76.597015 
L 753.573838 -75.438343 
L 753.635594 -74.279671 
L 754.372047 -73.120998 
L 755.740364 -71.962326 
L 757.666228 -70.803654 
L 760.043026 -69.644981 
L 762.732414 -68.486309 
L 765.567845 -67.327637 
L 768.362187 -66.168964 
L 770.919738 -65.010292 
L 773.051865 -63.85162 
L 774.594417 -62.692947 
L 775.424388 -61.534275 
L 775.473043 -60.375603 
L 774.733171 -59.21693 
L 773.259044 -58.058258 
L 771.158955 -56.899586 
L 768.581534 -55.740914 
L 765.698075 -54.582241 
L 762.683695 -53.423569 
L 759.700103 -52.264897 
L 756.882221 -51.106224 
L 754.329971 -49.947552 
L 752.10553 -48.78888 
L 750.235411 -47.630207 
L 748.716107 -46.471535 
z
" style="stroke: #3e3e3e; stroke-width: 3"/>
    </defs>
    <g clip-path="url(#p00bf58b4c7)">
     <use xlink:href="#m3a9493e90c" x="0" y="288" style="fill: #e6e64c; stroke: #3e3e3e; stroke-width: 3"/>
    </g>
   </g>
   <g id="PolyCollection_7">
    <defs>
     <path id="md536549fd0" d="M 880.526205 -66.65643 
L 866.527545 -66.65643 
L 863.414301 -68.048449 
L 859.452305 -69.440468 
L 854.656662 -70.832487 
L 849.155127 -72.224506 
L 843.204392 -73.616525 
L 837.184688 -75.008544 
L 831.567831 -76.400563 
L 826.860038 -77.792582 
L 823.528085 -79.184601 
L 821.923375 -80.57662 
L 822.220902 -81.968639 
L 824.387768 -83.360658 
L 828.189009 -84.752677 
L 833.229226 -86.144695 
L 839.019602 -87.536714 
L 845.054307 -88.928733 
L 850.87936 -90.320752 
L 856.140787 -91.712771 
L 860.605519 -93.10479 
L 864.155774 -94.496809 
L 866.763409 -95.888828 
L 868.453851 -97.280847 
L 869.269578 -98.672866 
L 869.2415 -100.064885 
L 868.373844 -101.456904 
L 866.645179 -102.848923 
L 864.025187 -104.240942 
L 860.503888 -105.63296 
L 856.127167 -107.024979 
L 851.03011 -108.416998 
L 845.458488 -109.809017 
L 839.769638 -111.201036 
L 834.407521 -112.593055 
L 829.852664 -113.985074 
L 826.554564 -115.377093 
L 824.86007 -116.769112 
L 824.953942 -118.161131 
L 826.825953 -119.55315 
L 830.272834 -120.945169 
L 834.934593 -122.337188 
L 840.356248 -123.729207 
L 846.060282 -125.121225 
L 851.613825 -126.513244 
L 856.677737 -127.905263 
L 861.030815 -129.297282 
L 864.569216 -130.689301 
L 867.286663 -132.08132 
L 869.243926 -133.473339 
L 870.536302 -134.865358 
L 871.265941 -136.257377 
L 871.523138 -137.649396 
L 871.377861 -139.041415 
L 870.880661 -140.433434 
L 870.070598 -141.825453 
L 868.987038 -143.217472 
L 867.681836 -144.609491 
L 866.228507 -146.001509 
L 864.7256 -147.393528 
L 863.29265 -148.785547 
L 862.058771 -150.177566 
L 861.145851 -151.569585 
L 860.649941 -152.961604 
L 860.625217 -154.353623 
L 861.074531 -155.745642 
L 861.948995 -157.137661 
L 863.156765 -158.52968 
L 864.578862 -159.921699 
L 866.088252 -161.313718 
L 867.567906 -162.705737 
L 868.924306 -164.097756 
L 870.09439 -165.489774 
L 871.045789 -166.881793 
L 871.771703 -168.273812 
L 872.282676 -169.665831 
L 872.597674 -171.05785 
L 872.736476 -172.449869 
L 872.714716 -173.841888 
L 872.542129 -175.233907 
L 872.223939 -176.625926 
L 871.764739 -178.017945 
L 871.173837 -179.409964 
L 870.470676 -180.801983 
L 869.688852 -182.194002 
L 868.877334 -183.586021 
L 868.097989 -184.978039 
L 867.419336 -186.370058 
L 866.907413 -187.762077 
L 866.615576 -189.154096 
L 866.575518 -190.546115 
L 866.791692 -191.938134 
L 867.240532 -193.330153 
L 867.874705 -194.722172 
L 868.631335 -196.114191 
L 869.44223 -197.50621 
L 870.243834 -198.898229 
L 870.984929 -200.290248 
L 871.630934 -201.682267 
L 872.164642 -203.074286 
L 872.584018 -204.466304 
L 874.469732 -204.466304 
L 874.469732 -204.466304 
L 874.889108 -203.074286 
L 875.422816 -201.682267 
L 876.068821 -200.290248 
L 876.809916 -198.898229 
L 877.61152 -197.50621 
L 878.422415 -196.114191 
L 879.179045 -194.722172 
L 879.813218 -193.330153 
L 880.262058 -191.938134 
L 880.478232 -190.546115 
L 880.438174 -189.154096 
L 880.146337 -187.762077 
L 879.634414 -186.370058 
L 878.955761 -184.978039 
L 878.176416 -183.586021 
L 877.364898 -182.194002 
L 876.583074 -180.801983 
L 875.879913 -179.409964 
L 875.289011 -178.017945 
L 874.829811 -176.625926 
L 874.511621 -175.233907 
L 874.339034 -173.841888 
L 874.317274 -172.449869 
L 874.456076 -171.05785 
L 874.771074 -169.665831 
L 875.282047 -168.273812 
L 876.007961 -166.881793 
L 876.95936 -165.489774 
L 878.129444 -164.097756 
L 879.485844 -162.705737 
L 880.965498 -161.313718 
L 882.474888 -159.921699 
L 883.896985 -158.52968 
L 885.104755 -157.137661 
L 885.979219 -155.745642 
L 886.428533 -154.353623 
L 886.403809 -152.961604 
L 885.907899 -151.569585 
L 884.994979 -150.177566 
L 883.7611 -148.785547 
L 882.32815 -147.393528 
L 880.825243 -146.001509 
L 879.371914 -144.609491 
L 878.066712 -143.217472 
L 876.983152 -141.825453 
L 876.173089 -140.433434 
L 875.675889 -139.041415 
L 875.530612 -137.649396 
L 875.787809 -136.257377 
L 876.517448 -134.865358 
L 877.809824 -133.473339 
L 879.767087 -132.08132 
L 882.484534 -130.689301 
L 886.022935 -129.297282 
L 890.376013 -127.905263 
L 895.439925 -126.513244 
L 900.993468 -125.121225 
L 906.697502 -123.729207 
L 912.119157 -122.337188 
L 916.780916 -120.945169 
L 920.227797 -119.55315 
L 922.099808 -118.161131 
L 922.19368 -116.769112 
L 920.499186 -115.377093 
L 917.201086 -113.985074 
L 912.646229 -112.593055 
L 907.284112 -111.201036 
L 901.595262 -109.809017 
L 896.02364 -108.416998 
L 890.926583 -107.024979 
L 886.549862 -105.63296 
L 883.028563 -104.240942 
L 880.408571 -102.848923 
L 878.679906 -101.456904 
L 877.81225 -100.064885 
L 877.784172 -98.672866 
L 878.599899 -97.280847 
L 880.290341 -95.888828 
L 882.897976 -94.496809 
L 886.448231 -93.10479 
L 890.912963 -91.712771 
L 896.17439 -90.320752 
L 901.999443 -88.928733 
L 908.034148 -87.536714 
L 913.824524 -86.144695 
L 918.864741 -84.752677 
L 922.665982 -83.360658 
L 924.832848 -81.968639 
L 925.130375 -80.57662 
L 923.525665 -79.184601 
L 920.193712 -77.792582 
L 915.485919 -76.400563 
L 909.869062 -75.008544 
L 903.849358 -73.616525 
L 897.898623 -72.224506 
L 892.397088 -70.832487 
L 887.601445 -69.440468 
L 883.639449 -68.048449 
L 880.526205 -66.65643 
z
" style="stroke: #3e3e3e; stroke-width: 3"/>
    </defs>
    <g clip-path="url(#p00bf58b4c7)">
     <use xlink:href="#md536549fd0" x="0" y="288" style="fill: #965a38; stroke: #3e3e3e; stroke-width: 3"/>
    </g>
   </g>
   <g id="PolyCollection_8">
    <defs>
     <path id="m750e305d72" d="M 1003.063822 -50.61928 
L 1002.007428 -50.61928 
L 1001.563887 -52.517955 
L 1000.853968 -54.416631 
L 999.795804 -56.315307 
L 998.328155 -58.213983 
L 996.435014 -60.112659 
L 994.1637 -62.011334 
L 991.625357 -63.91001 
L 988.971494 -65.808686 
L 986.350491 -67.707362 
L 983.859264 -69.606037 
L 981.510842 -71.504713 
L 979.233983 -73.403389 
L 976.907395 -75.302065 
L 974.415314 -77.200741 
L 971.701315 -79.099416 
L 968.798035 -80.998092 
L 965.821009 -82.896768 
L 962.929975 -84.795444 
L 960.274353 -86.69412 
L 957.946381 -88.592795 
L 955.963042 -90.491471 
L 954.286691 -92.390147 
L 952.877541 -94.288823 
L 951.755004 -96.187498 
L 951.036988 -98.086174 
L 950.932125 -99.98485 
L 951.679413 -101.883526 
L 953.455212 -103.782202 
L 956.286221 -105.680877 
L 960.007817 -107.579553 
L 964.287958 -109.478229 
L 968.707309 -111.376905 
L 972.862344 -113.27558 
L 976.452187 -115.174256 
L 979.322858 -117.072932 
L 981.464427 -118.971608 
L 982.974624 -120.870284 
L 984.009248 -122.768959 
L 984.736139 -124.667635 
L 985.301493 -126.566311 
L 985.810476 -128.464987 
L 986.320622 -130.363662 
L 986.845629 -132.262338 
L 987.367065 -134.161014 
L 987.851059 -136.05969 
L 988.266194 -137.958366 
L 988.598249 -139.857041 
L 988.857848 -141.755717 
L 989.078959 -143.654393 
L 989.309136 -145.553069 
L 989.595384 -147.451744 
L 989.971047 -149.35042 
L 990.448366 -151.249096 
L 991.018546 -153.147772 
L 991.657896 -155.046448 
L 992.336385 -156.945123 
L 993.024932 -158.843799 
L 993.699334 -160.742475 
L 994.340917 -162.641151 
L 994.935468 -164.539826 
L 995.472236 -166.438502 
L 995.944071 -168.337178 
L 996.348569 -170.235854 
L 996.689202 -172.13453 
L 996.975197 -174.033205 
L 997.219541 -175.931881 
L 997.435651 -177.830557 
L 997.634151 -179.729233 
L 997.82135 -181.627908 
L 998.000079 -183.526584 
L 998.172208 -185.42526 
L 998.341157 -187.323936 
L 998.512787 -189.222612 
L 998.694087 -191.121287 
L 998.890388 -193.019963 
L 999.102715 -194.918639 
L 999.326805 -196.817315 
L 999.554485 -198.71599 
L 999.776877 -200.614666 
L 999.988027 -202.513342 
L 1000.187271 -204.412018 
L 1000.379207 -206.310694 
L 1000.571242 -208.209369 
L 1000.76981 -210.108045 
L 1000.977005 -212.006721 
L 1001.189181 -213.905397 
L 1001.398087 -215.804072 
L 1001.593874 -217.702748 
L 1001.768498 -219.601424 
L 1001.917967 -221.5001 
L 1002.042666 -223.398776 
L 1002.145976 -225.297451 
L 1002.232184 -227.196127 
L 1002.304768 -229.094803 
L 1002.365696 -230.993479 
L 1002.415711 -232.892154 
L 1002.455118 -234.79083 
L 1002.484502 -236.689506 
L 1002.50505 -238.588182 
L 1002.5662 -238.588182 
L 1002.5662 -238.588182 
L 1002.586748 -236.689506 
L 1002.616132 -234.79083 
L 1002.655539 -232.892154 
L 1002.705554 -230.993479 
L 1002.766482 -229.094803 
L 1002.839066 -227.196127 
L 1002.925274 -225.297451 
L 1003.028584 -223.398776 
L 1003.153283 -221.5001 
L 1003.302752 -219.601424 
L 1003.477376 -217.702748 
L 1003.673163 -215.804072 
L 1003.882069 -213.905397 
L 1004.094245 -212.006721 
L 1004.30144 -210.108045 
L 1004.500008 -208.209369 
L 1004.692043 -206.310694 
L 1004.883979 -204.412018 
L 1005.083223 -202.513342 
L 1005.294373 -200.614666 
L 1005.516765 -198.71599 
L 1005.744445 -196.817315 
L 1005.968535 -194.918639 
L 1006.180862 -193.019963 
L 1006.377163 -191.121287 
L 1006.558463 -189.222612 
L 1006.730093 -187.323936 
L 1006.899042 -185.42526 
L 1007.071171 -183.526584 
L 1007.2499 -181.627908 
L 1007.437099 -179.729233 
L 1007.635599 -177.830557 
L 1007.851709 -175.931881 
L 1008.096053 -174.033205 
L 1008.382048 -172.13453 
L 1008.722681 -170.235854 
L 1009.127179 -168.337178 
L 1009.599014 -166.438502 
L 1010.135782 -164.539826 
L 1010.730333 -162.641151 
L 1011.371916 -160.742475 
L 1012.046318 -158.843799 
L 1012.734865 -156.945123 
L 1013.413354 -155.046448 
L 1014.052704 -153.147772 
L 1014.622884 -151.249096 
L 1015.100203 -149.35042 
L 1015.475866 -147.451744 
L 1015.762114 -145.553069 
L 1015.992291 -143.654393 
L 1016.213402 -141.755717 
L 1016.473001 -139.857041 
L 1016.805056 -137.958366 
L 1017.220191 -136.05969 
L 1017.704185 -134.161014 
L 1018.225621 -132.262338 
L 1018.750628 -130.363662 
L 1019.260774 -128.464987 
L 1019.769757 -126.566311 
L 1020.335111 -124.667635 
L 1021.062002 -122.768959 
L 1022.096626 -120.870284 
L 1023.606823 -118.971608 
L 1025.748392 -117.072932 
L 1028.619063 -115.174256 
L 1032.208906 -113.27558 
L 1036.363941 -111.376905 
L 1040.783292 -109.478229 
L 1045.063433 -107.579553 
L 1048.785029 -105.680877 
L 1051.616038 -103.782202 
L 1053.391837 -101.883526 
L 1054.139125 -99.98485 
L 1054.034262 -98.086174 
L 1053.316246 -96.187498 
L 1052.193709 -94.288823 
L 1050.784559 -92.390147 
L 1049.108208 -90.491471 
L 1047.124869 -88.592795 
L 1044.796897 -86.69412 
L 1042.141275 -84.795444 
L 1039.250241 -82.896768 
L 1036.273215 -80.998092 
L 1033.369935 -79.099416 
L 1030.655936 -77.200741 
L 1028.163855 -75.302065 
L 1025.837267 -73.403389 
L 1023.560408 -71.504713 
L 1021.211986 -69.606037 
L 1018.720759 -67.707362 
L 1016.099756 -65.808686 
L 1013.445893 -63.91001 
L 1010.90755 -62.011334 
L 1008.636236 -60.112659 
L 1006.743095 -58.213983 
L 1005.275446 -56.315307 
L 1004.217282 -54.416631 
L 1003.507363 -52.517955 
L 1003.063822 -50.61928 
z
" style="stroke: #3e3e3e; stroke-width: 3"/>
    </defs>
    <g clip-path="url(#p00bf58b4c7)">
     <use xlink:href="#m750e305d72" x="0" y="288" style="fill: #e890be; stroke: #3e3e3e; stroke-width: 3"/>
    </g>
   </g>
   <g id="line2d_8">
    <path d="M 99.474375 226.62413 
L 99.474375 142.402453 
" clip-path="url(#p00bf58b4c7)" style="fill: none; stroke: #3e3e3e; stroke-width: 3; stroke-linecap: round"/>
   </g>
   <g id="line2d_9">
    <path d="M 99.474375 198.550238 
L 99.474375 142.402453 
" clip-path="url(#p00bf58b4c7)" style="fill: none; stroke: #3e3e3e; stroke-width: 9; stroke-linecap: round"/>
   </g>
   <g id="line2d_10">
    <path d="M 228.483125 214.226431 
L 228.483125 111.990455 
" clip-path="url(#p00bf58b4c7)" style="fill: none; stroke: #3e3e3e; stroke-width: 3; stroke-linecap: round"/>
   </g>
   <g id="line2d_11">
    <path d="M 228.483125 201.718208 
L 228.483125 165.758713 
" clip-path="url(#p00bf58b4c7)" style="fill: none; stroke: #3e3e3e; stroke-width: 9; stroke-linecap: round"/>
   </g>
   <g id="line2d_12">
    <path d="M 357.491875 231.247466 
L 357.491875 122.914865 
" clip-path="url(#p00bf58b4c7)" style="fill: none; stroke: #3e3e3e; stroke-width: 3; stroke-linecap: round"/>
   </g>
   <g id="line2d_13">
    <path d="M 357.491875 205.352908 
L 357.491875 151.351901 
" clip-path="url(#p00bf58b4c7)" style="fill: none; stroke: #3e3e3e; stroke-width: 9; stroke-linecap: round"/>
   </g>
   <g id="line2d_14">
    <path d="M 486.500625 211.476816 
L 486.500625 112.322062 
" clip-path="url(#p00bf58b4c7)" style="fill: none; stroke: #3e3e3e; stroke-width: 3; stroke-linecap: round"/>
   </g>
   <g id="line2d_15">
    <path d="M 486.500625 199.082472 
L 486.500625 161.899439 
" clip-path="url(#p00bf58b4c7)" style="fill: none; stroke: #3e3e3e; stroke-width: 9; stroke-linecap: round"/>
   </g>
   <g id="line2d_16">
    <path d="M 615.509375 213.7068 
L 615.509375 95.274028 
" clip-path="url(#p00bf58b4c7)" style="fill: none; stroke: #3e3e3e; stroke-width: 3; stroke-linecap: round"/>
   </g>
   <g id="line2d_17">
    <path d="M 615.509375 205.247316 
L 615.509375 154.490414 
" clip-path="url(#p00bf58b4c7)" style="fill: none; stroke: #3e3e3e; stroke-width: 9; stroke-linecap: round"/>
   </g>
   <g id="line2d_18">
    <path d="M 744.518125 227.127749 
L 744.518125 141.220621 
" clip-path="url(#p00bf58b4c7)" style="fill: none; stroke: #3e3e3e; stroke-width: 3; stroke-linecap: round"/>
   </g>
   <g id="line2d_19">
    <path d="M 744.518125 198.49204 
L 744.518125 141.220621 
" clip-path="url(#p00bf58b4c7)" style="fill: none; stroke: #3e3e3e; stroke-width: 9; stroke-linecap: round"/>
   </g>
   <g id="line2d_20">
    <path d="M 873.526875 206.942854 
L 873.526875 134.270559 
" clip-path="url(#p00bf58b4c7)" style="fill: none; stroke: #3e3e3e; stroke-width: 3; stroke-linecap: round"/>
   </g>
   <g id="line2d_21">
    <path d="M 873.526875 206.942854 
L 873.526875 170.606706 
" clip-path="url(#p00bf58b4c7)" style="fill: none; stroke: #3e3e3e; stroke-width: 9; stroke-linecap: round"/>
   </g>
   <g id="line2d_22">
    <path d="M 1002.535625 222.980004 
L 1002.535625 111.562775 
" clip-path="url(#p00bf58b4c7)" style="fill: none; stroke: #3e3e3e; stroke-width: 3; stroke-linecap: round"/>
   </g>
   <g id="line2d_23">
    <path d="M 1002.535625 199.104884 
L 1002.535625 163.292203 
" clip-path="url(#p00bf58b4c7)" style="fill: none; stroke: #3e3e3e; stroke-width: 9; stroke-linecap: round"/>
   </g>
   <g id="patch_3">
    <path d="M 34.97 255.46 
L 34.97 39.6 
" style="fill: none; stroke: #cccccc; stroke-width: 1.25; stroke-linejoin: miter; stroke-linecap: square"/>
   </g>
   <g id="patch_4">
    <path d="M 1067.04 255.46 
L 1067.04 39.6 
" style="fill: none; stroke: #cccccc; stroke-width: 1.25; stroke-linejoin: miter; stroke-linecap: square"/>
   </g>
   <g id="patch_5">
    <path d="M 34.97 255.46 
L 1067.04 255.46 
" style="fill: none; stroke: #cccccc; stroke-width: 1.25; stroke-linejoin: miter; stroke-linecap: square"/>
   </g>
   <g id="patch_6">
    <path d="M 34.97 39.6 
L 1067.04 39.6 
" style="fill: none; stroke: #cccccc; stroke-width: 1.25; stroke-linejoin: miter; stroke-linecap: square"/>
   </g>
   <g id="PathCollection_1">
    <defs>
     <path id="m2746de1f55" d="M 0 3 
C 0.795609 3 1.55874 2.683901 2.12132 2.12132 
C 2.683901 1.55874 3 0.795609 3 0 
C 3 -0.795609 2.683901 -1.55874 2.12132 -2.12132 
C 1.55874 -2.683901 0.795609 -3 0 -3 
C -0.795609 -3 -1.55874 -2.683901 -2.12132 -2.12132 
C -2.683901 -1.55874 -3 -0.795609 -3 0 
C -3 0.795609 -2.683901 1.55874 -2.12132 2.12132 
C -1.55874 2.683901 -0.795609 3 0 3 
z
" style="stroke: #3e3e3e"/>
    </defs>
    <g clip-path="url(#p00bf58b4c7)">
     <use xlink:href="#m2746de1f55" x="99.474375" y="170.476345" style="fill: #ffffff; stroke: #3e3e3e"/>
    </g>
   </g>
   <g id="PathCollection_2">
    <g clip-path="url(#p00bf58b4c7)">
     <use xlink:href="#m2746de1f55" x="228.483125" y="188.512892" style="fill: #ffffff; stroke: #3e3e3e"/>
    </g>
   </g>
   <g id="PathCollection_3">
    <g clip-path="url(#p00bf58b4c7)">
     <use xlink:href="#m2746de1f55" x="357.491875" y="178.433964" style="fill: #ffffff; stroke: #3e3e3e"/>
    </g>
   </g>
   <g id="PathCollection_4">
    <g clip-path="url(#p00bf58b4c7)">
     <use xlink:href="#m2746de1f55" x="486.500625" y="186.688128" style="fill: #ffffff; stroke: #3e3e3e"/>
    </g>
   </g>
   <g id="PathCollection_5">
    <g clip-path="url(#p00bf58b4c7)">
     <use xlink:href="#m2746de1f55" x="615.509375" y="188.328349" style="fill: #ffffff; stroke: #3e3e3e"/>
    </g>
   </g>
   <g id="PathCollection_6">
    <g clip-path="url(#p00bf58b4c7)">
     <use xlink:href="#m2746de1f55" x="744.518125" y="169.85633" style="fill: #ffffff; stroke: #3e3e3e"/>
    </g>
   </g>
   <g id="PathCollection_7">
    <g clip-path="url(#p00bf58b4c7)">
     <use xlink:href="#m2746de1f55" x="873.526875" y="170.606706" style="fill: #ffffff; stroke: #3e3e3e"/>
    </g>
   </g>
   <g id="PathCollection_8">
    <g clip-path="url(#p00bf58b4c7)">
     <use xlink:href="#m2746de1f55" x="1002.535625" y="183.188137" style="fill: #ffffff; stroke: #3e3e3e"/>
    </g>
   </g>
  </g>
  <g id="text_16">
   <!-- Violin Plot of all Continuous Variables -->
   <g style="fill: #262626" transform="translate(416.035547 16.496719) scale(0.15 -0.15)">
    <defs>
     <path id="ArialMT-56" d="M 1803 0 
L 28 4581 
L 684 4581 
L 1875 1253 
Q 2019 853 2116 503 
Q 2222 878 2363 1253 
L 3600 4581 
L 4219 4581 
L 2425 0 
L 1803 0 
z
" transform="scale(0.015625)"/>
     <path id="ArialMT-20" transform="scale(0.015625)"/>
    </defs>
    <use xlink:href="#ArialMT-56"/>
    <use xlink:href="#ArialMT-69" x="64.949219"/>
    <use xlink:href="#ArialMT-6f" x="87.166016"/>
    <use xlink:href="#ArialMT-6c" x="142.78125"/>
    <use xlink:href="#ArialMT-69" x="164.998047"/>
    <use xlink:href="#ArialMT-6e" x="187.214844"/>
    <use xlink:href="#ArialMT-20" x="242.830078"/>
    <use xlink:href="#ArialMT-50" x="270.613281"/>
    <use xlink:href="#ArialMT-6c" x="337.3125"/>
    <use xlink:href="#ArialMT-6f" x="359.529297"/>
    <use xlink:href="#ArialMT-74" x="415.144531"/>
    <use xlink:href="#ArialMT-20" x="442.927734"/>
    <use xlink:href="#ArialMT-6f" x="470.710938"/>
    <use xlink:href="#ArialMT-66" x="526.326172"/>
    <use xlink:href="#ArialMT-20" x="554.109375"/>
    <use xlink:href="#ArialMT-61" x="581.892578"/>
    <use xlink:href="#ArialMT-6c" x="637.507812"/>
    <use xlink:href="#ArialMT-6c" x="659.724609"/>
    <use xlink:href="#ArialMT-20" x="681.941406"/>
    <use xlink:href="#ArialMT-43" x="709.724609"/>
    <use xlink:href="#ArialMT-6f" x="781.941406"/>
    <use xlink:href="#ArialMT-6e" x="837.556641"/>
    <use xlink:href="#ArialMT-74" x="893.171875"/>
    <use xlink:href="#ArialMT-69" x="920.955078"/>
    <use xlink:href="#ArialMT-6e" x="943.171875"/>
    <use xlink:href="#ArialMT-75" x="998.787109"/>
    <use xlink:href="#ArialMT-6f" x="1054.402344"/>
    <use xlink:href="#ArialMT-75" x="1110.017578"/>
    <use xlink:href="#ArialMT-73" x="1165.632812"/>
    <use xlink:href="#ArialMT-20" x="1215.632812"/>
    <use xlink:href="#ArialMT-56" x="1243.416016"/>
    <use xlink:href="#ArialMT-61" x="1302.740234"/>
    <use xlink:href="#ArialMT-72" x="1358.355469"/>
    <use xlink:href="#ArialMT-69" x="1391.65625"/>
    <use xlink:href="#ArialMT-61" x="1413.873047"/>
    <use xlink:href="#ArialMT-62" x="1469.488281"/>
    <use xlink:href="#ArialMT-6c" x="1525.103516"/>
    <use xlink:href="#ArialMT-65" x="1547.320312"/>
    <use xlink:href="#ArialMT-73" x="1602.935547"/>
   </g>
  </g>
 </g>
 <defs>
  <clipPath id="p00bf58b4c7">
   <rect x="34.97" y="39.6" width="1032.07" height="215.86"/>
  </clipPath>
 </defs>
</svg>
