<?xml version="1.0" encoding="utf-8" standalone="no"?>
<!DOCTYPE svg PUBLIC "-//W3C//DTD SVG 1.1//EN"
  "http://www.w3.org/Graphics/SVG/1.1/DTD/svg11.dtd">
<svg xmlns:xlink="http://www.w3.org/1999/xlink" width="1080pt" height="288pt" viewBox="0 0 1080 288" xmlns="http://www.w3.org/2000/svg" version="1.1">
 <metadata>
  <rdf:RDF xmlns:dc="http://purl.org/dc/elements/1.1/" xmlns:cc="http://creativecommons.org/ns#" xmlns:rdf="http://www.w3.org/1999/02/22-rdf-syntax-ns#">
   <cc:Work>
    <dc:type rdf:resource="http://purl.org/dc/dcmitype/StillImage"/>
    <dc:date>2025-03-26T19:21:13.577387</dc:date>
    <dc:format>image/svg+xml</dc:format>
    <dc:creator>
     <cc:Agent>
      <dc:title>Matplotlib v3.7.4, https://matplotlib.org/</dc:title>
     </cc:Agent>
    </dc:creator>
   </cc:Work>
  </rdf:RDF>
 </metadata>
 <defs>
  <style type="text/css">*{stroke-linejoin: round; stroke-linecap: butt}</style>
 </defs>
 <g id="figure_1">
  <g id="patch_1">
   <path d="M 0 288 
L 1080 288 
L 1080 0 
L 0 0 
z
" style="fill: #ffffff"/>
  </g>
  <g id="axes_1">
   <g id="patch_2">
    <path d="M 34.88 255.46 
L 1067.04 255.46 
L 1067.04 39.6 
L 34.88 39.6 
z
" style="fill: #ffffff"/>
   </g>
   <g id="matplotlib.axis_1">
    <g id="xtick_1">
     <g id="text_1">
      <!-- TrainingTimesLastYear -->
      <g style="fill: #262626" transform="translate(64.955755 272.833594) scale(0.11 -0.11)">
       <defs>
        <path id="ArialMT-54" d="M 1659 0 
L 1659 4041 
L 150 4041 
L 150 4581 
L 3781 4581 
L 3781 4041 
L 2266 4041 
L 2266 0 
L 1659 0 
z
" transform="scale(0.015625)"/>
        <path id="ArialMT-72" d="M 416 0 
L 416 3319 
L 922 3319 
L 922 2816 
Q 1116 3169 1280 3281 
Q 1444 3394 1641 3394 
Q 1925 3394 2219 3213 
L 2025 2691 
Q 1819 2813 1613 2813 
Q 1428 2813 1281 2702 
Q 1134 2591 1072 2394 
Q 978 2094 978 1738 
L 978 0 
L 416 0 
z
" transform="scale(0.015625)"/>
        <path id="ArialMT-61" d="M 2588 409 
Q 2275 144 1986 34 
Q 1697 -75 1366 -75 
Q 819 -75 525 192 
Q 231 459 231 875 
Q 231 1119 342 1320 
Q 453 1522 633 1644 
Q 813 1766 1038 1828 
Q 1203 1872 1538 1913 
Q 2219 1994 2541 2106 
Q 2544 2222 2544 2253 
Q 2544 2597 2384 2738 
Q 2169 2928 1744 2928 
Q 1347 2928 1158 2789 
Q 969 2650 878 2297 
L 328 2372 
Q 403 2725 575 2942 
Q 747 3159 1072 3276 
Q 1397 3394 1825 3394 
Q 2250 3394 2515 3294 
Q 2781 3194 2906 3042 
Q 3031 2891 3081 2659 
Q 3109 2516 3109 2141 
L 3109 1391 
Q 3109 606 3145 398 
Q 3181 191 3288 0 
L 2700 0 
Q 2613 175 2588 409 
z
M 2541 1666 
Q 2234 1541 1622 1453 
Q 1275 1403 1131 1340 
Q 988 1278 909 1158 
Q 831 1038 831 891 
Q 831 666 1001 516 
Q 1172 366 1500 366 
Q 1825 366 2078 508 
Q 2331 650 2450 897 
Q 2541 1088 2541 1459 
L 2541 1666 
z
" transform="scale(0.015625)"/>
        <path id="ArialMT-69" d="M 425 3934 
L 425 4581 
L 988 4581 
L 988 3934 
L 425 3934 
z
M 425 0 
L 425 3319 
L 988 3319 
L 988 0 
L 425 0 
z
" transform="scale(0.015625)"/>
        <path id="ArialMT-6e" d="M 422 0 
L 422 3319 
L 928 3319 
L 928 2847 
Q 1294 3394 1984 3394 
Q 2284 3394 2536 3286 
Q 2788 3178 2913 3003 
Q 3038 2828 3088 2588 
Q 3119 2431 3119 2041 
L 3119 0 
L 2556 0 
L 2556 2019 
Q 2556 2363 2490 2533 
Q 2425 2703 2258 2804 
Q 2091 2906 1866 2906 
Q 1506 2906 1245 2678 
Q 984 2450 984 1813 
L 984 0 
L 422 0 
z
" transform="scale(0.015625)"/>
        <path id="ArialMT-67" d="M 319 -275 
L 866 -356 
Q 900 -609 1056 -725 
Q 1266 -881 1628 -881 
Q 2019 -881 2231 -725 
Q 2444 -569 2519 -288 
Q 2563 -116 2559 434 
Q 2191 0 1641 0 
Q 956 0 581 494 
Q 206 988 206 1678 
Q 206 2153 378 2554 
Q 550 2956 876 3175 
Q 1203 3394 1644 3394 
Q 2231 3394 2613 2919 
L 2613 3319 
L 3131 3319 
L 3131 450 
Q 3131 -325 2973 -648 
Q 2816 -972 2473 -1159 
Q 2131 -1347 1631 -1347 
Q 1038 -1347 672 -1080 
Q 306 -813 319 -275 
z
M 784 1719 
Q 784 1066 1043 766 
Q 1303 466 1694 466 
Q 2081 466 2343 764 
Q 2606 1063 2606 1700 
Q 2606 2309 2336 2618 
Q 2066 2928 1684 2928 
Q 1309 2928 1046 2623 
Q 784 2319 784 1719 
z
" transform="scale(0.015625)"/>
        <path id="ArialMT-6d" d="M 422 0 
L 422 3319 
L 925 3319 
L 925 2853 
Q 1081 3097 1340 3245 
Q 1600 3394 1931 3394 
Q 2300 3394 2536 3241 
Q 2772 3088 2869 2813 
Q 3263 3394 3894 3394 
Q 4388 3394 4653 3120 
Q 4919 2847 4919 2278 
L 4919 0 
L 4359 0 
L 4359 2091 
Q 4359 2428 4304 2576 
Q 4250 2725 4106 2815 
Q 3963 2906 3769 2906 
Q 3419 2906 3187 2673 
Q 2956 2441 2956 1928 
L 2956 0 
L 2394 0 
L 2394 2156 
Q 2394 2531 2256 2718 
Q 2119 2906 1806 2906 
Q 1569 2906 1367 2781 
Q 1166 2656 1075 2415 
Q 984 2175 984 1722 
L 984 0 
L 422 0 
z
" transform="scale(0.015625)"/>
        <path id="ArialMT-65" d="M 2694 1069 
L 3275 997 
Q 3138 488 2766 206 
Q 2394 -75 1816 -75 
Q 1088 -75 661 373 
Q 234 822 234 1631 
Q 234 2469 665 2931 
Q 1097 3394 1784 3394 
Q 2450 3394 2872 2941 
Q 3294 2488 3294 1666 
Q 3294 1616 3291 1516 
L 816 1516 
Q 847 969 1125 678 
Q 1403 388 1819 388 
Q 2128 388 2347 550 
Q 2566 713 2694 1069 
z
M 847 1978 
L 2700 1978 
Q 2663 2397 2488 2606 
Q 2219 2931 1791 2931 
Q 1403 2931 1139 2672 
Q 875 2413 847 1978 
z
" transform="scale(0.015625)"/>
        <path id="ArialMT-73" d="M 197 991 
L 753 1078 
Q 800 744 1014 566 
Q 1228 388 1613 388 
Q 2000 388 2187 545 
Q 2375 703 2375 916 
Q 2375 1106 2209 1216 
Q 2094 1291 1634 1406 
Q 1016 1563 777 1677 
Q 538 1791 414 1992 
Q 291 2194 291 2438 
Q 291 2659 392 2848 
Q 494 3038 669 3163 
Q 800 3259 1026 3326 
Q 1253 3394 1513 3394 
Q 1903 3394 2198 3281 
Q 2494 3169 2634 2976 
Q 2775 2784 2828 2463 
L 2278 2388 
Q 2241 2644 2061 2787 
Q 1881 2931 1553 2931 
Q 1166 2931 1000 2803 
Q 834 2675 834 2503 
Q 834 2394 903 2306 
Q 972 2216 1119 2156 
Q 1203 2125 1616 2013 
Q 2213 1853 2448 1751 
Q 2684 1650 2818 1456 
Q 2953 1263 2953 975 
Q 2953 694 2789 445 
Q 2625 197 2315 61 
Q 2006 -75 1616 -75 
Q 969 -75 630 194 
Q 291 463 197 991 
z
" transform="scale(0.015625)"/>
        <path id="ArialMT-4c" d="M 469 0 
L 469 4581 
L 1075 4581 
L 1075 541 
L 3331 541 
L 3331 0 
L 469 0 
z
" transform="scale(0.015625)"/>
        <path id="ArialMT-74" d="M 1650 503 
L 1731 6 
Q 1494 -44 1306 -44 
Q 1000 -44 831 53 
Q 663 150 594 308 
Q 525 466 525 972 
L 525 2881 
L 113 2881 
L 113 3319 
L 525 3319 
L 525 4141 
L 1084 4478 
L 1084 3319 
L 1650 3319 
L 1650 2881 
L 1084 2881 
L 1084 941 
Q 1084 700 1114 631 
Q 1144 563 1211 522 
Q 1278 481 1403 481 
Q 1497 481 1650 503 
z
" transform="scale(0.015625)"/>
        <path id="ArialMT-59" d="M 1784 0 
L 1784 1941 
L 19 4581 
L 756 4581 
L 1659 3200 
Q 1909 2813 2125 2425 
Q 2331 2784 2625 3234 
L 3513 4581 
L 4219 4581 
L 2391 1941 
L 2391 0 
L 1784 0 
z
" transform="scale(0.015625)"/>
       </defs>
       <use xlink:href="#ArialMT-54"/>
       <use xlink:href="#ArialMT-72" x="57.333984"/>
       <use xlink:href="#ArialMT-61" x="90.634766"/>
       <use xlink:href="#ArialMT-69" x="146.25"/>
       <use xlink:href="#ArialMT-6e" x="168.466797"/>
       <use xlink:href="#ArialMT-69" x="224.082031"/>
       <use xlink:href="#ArialMT-6e" x="246.298828"/>
       <use xlink:href="#ArialMT-67" x="301.914062"/>
       <use xlink:href="#ArialMT-54" x="357.529297"/>
       <use xlink:href="#ArialMT-69" x="414.863281"/>
       <use xlink:href="#ArialMT-6d" x="437.080078"/>
       <use xlink:href="#ArialMT-65" x="520.380859"/>
       <use xlink:href="#ArialMT-73" x="575.996094"/>
       <use xlink:href="#ArialMT-4c" x="625.996094"/>
       <use xlink:href="#ArialMT-61" x="681.611328"/>
       <use xlink:href="#ArialMT-73" x="737.226562"/>
       <use xlink:href="#ArialMT-74" x="787.226562"/>
       <use xlink:href="#ArialMT-59" x="815.009766"/>
       <use xlink:href="#ArialMT-65" x="872.583984"/>
       <use xlink:href="#ArialMT-61" x="928.199219"/>
       <use xlink:href="#ArialMT-72" x="983.814453"/>
      </g>
     </g>
    </g>
    <g id="xtick_2">
     <g id="text_2">
      <!-- WorkLifeBalance -->
      <g style="fill: #262626" transform="translate(251.443125 272.833594) scale(0.11 -0.11)">
       <defs>
        <path id="ArialMT-57" d="M 1294 0 
L 78 4581 
L 700 4581 
L 1397 1578 
Q 1509 1106 1591 641 
Q 1766 1375 1797 1488 
L 2669 4581 
L 3400 4581 
L 4056 2263 
Q 4303 1400 4413 641 
Q 4500 1075 4641 1638 
L 5359 4581 
L 5969 4581 
L 4713 0 
L 4128 0 
L 3163 3491 
Q 3041 3928 3019 4028 
Q 2947 3713 2884 3491 
L 1913 0 
L 1294 0 
z
" transform="scale(0.015625)"/>
        <path id="ArialMT-6f" d="M 213 1659 
Q 213 2581 725 3025 
Q 1153 3394 1769 3394 
Q 2453 3394 2887 2945 
Q 3322 2497 3322 1706 
Q 3322 1066 3130 698 
Q 2938 331 2570 128 
Q 2203 -75 1769 -75 
Q 1072 -75 642 372 
Q 213 819 213 1659 
z
M 791 1659 
Q 791 1022 1069 705 
Q 1347 388 1769 388 
Q 2188 388 2466 706 
Q 2744 1025 2744 1678 
Q 2744 2294 2464 2611 
Q 2184 2928 1769 2928 
Q 1347 2928 1069 2612 
Q 791 2297 791 1659 
z
" transform="scale(0.015625)"/>
        <path id="ArialMT-6b" d="M 425 0 
L 425 4581 
L 988 4581 
L 988 1969 
L 2319 3319 
L 3047 3319 
L 1778 2088 
L 3175 0 
L 2481 0 
L 1384 1697 
L 988 1316 
L 988 0 
L 425 0 
z
" transform="scale(0.015625)"/>
        <path id="ArialMT-66" d="M 556 0 
L 556 2881 
L 59 2881 
L 59 3319 
L 556 3319 
L 556 3672 
Q 556 4006 616 4169 
Q 697 4388 901 4523 
Q 1106 4659 1475 4659 
Q 1713 4659 2000 4603 
L 1916 4113 
Q 1741 4144 1584 4144 
Q 1328 4144 1222 4034 
Q 1116 3925 1116 3625 
L 1116 3319 
L 1763 3319 
L 1763 2881 
L 1116 2881 
L 1116 0 
L 556 0 
z
" transform="scale(0.015625)"/>
        <path id="ArialMT-42" d="M 469 0 
L 469 4581 
L 2188 4581 
Q 2713 4581 3030 4442 
Q 3347 4303 3526 4014 
Q 3706 3725 3706 3409 
Q 3706 3116 3547 2856 
Q 3388 2597 3066 2438 
Q 3481 2316 3704 2022 
Q 3928 1728 3928 1328 
Q 3928 1006 3792 729 
Q 3656 453 3456 303 
Q 3256 153 2954 76 
Q 2653 0 2216 0 
L 469 0 
z
M 1075 2656 
L 2066 2656 
Q 2469 2656 2644 2709 
Q 2875 2778 2992 2937 
Q 3109 3097 3109 3338 
Q 3109 3566 3000 3739 
Q 2891 3913 2687 3977 
Q 2484 4041 1991 4041 
L 1075 4041 
L 1075 2656 
z
M 1075 541 
L 2216 541 
Q 2509 541 2628 563 
Q 2838 600 2978 687 
Q 3119 775 3209 942 
Q 3300 1109 3300 1328 
Q 3300 1584 3169 1773 
Q 3038 1963 2805 2039 
Q 2572 2116 2134 2116 
L 1075 2116 
L 1075 541 
z
" transform="scale(0.015625)"/>
        <path id="ArialMT-6c" d="M 409 0 
L 409 4581 
L 972 4581 
L 972 0 
L 409 0 
z
" transform="scale(0.015625)"/>
        <path id="ArialMT-63" d="M 2588 1216 
L 3141 1144 
Q 3050 572 2676 248 
Q 2303 -75 1759 -75 
Q 1078 -75 664 370 
Q 250 816 250 1647 
Q 250 2184 428 2587 
Q 606 2991 970 3192 
Q 1334 3394 1763 3394 
Q 2303 3394 2647 3120 
Q 2991 2847 3088 2344 
L 2541 2259 
Q 2463 2594 2264 2762 
Q 2066 2931 1784 2931 
Q 1359 2931 1093 2626 
Q 828 2322 828 1663 
Q 828 994 1084 691 
Q 1341 388 1753 388 
Q 2084 388 2306 591 
Q 2528 794 2588 1216 
z
" transform="scale(0.015625)"/>
       </defs>
       <use xlink:href="#ArialMT-57"/>
       <use xlink:href="#ArialMT-6f" x="92.634766"/>
       <use xlink:href="#ArialMT-72" x="148.25"/>
       <use xlink:href="#ArialMT-6b" x="181.550781"/>
       <use xlink:href="#ArialMT-4c" x="231.550781"/>
       <use xlink:href="#ArialMT-69" x="287.166016"/>
       <use xlink:href="#ArialMT-66" x="309.382812"/>
       <use xlink:href="#ArialMT-65" x="337.166016"/>
       <use xlink:href="#ArialMT-42" x="392.78125"/>
       <use xlink:href="#ArialMT-61" x="459.480469"/>
       <use xlink:href="#ArialMT-6c" x="515.095703"/>
       <use xlink:href="#ArialMT-61" x="537.3125"/>
       <use xlink:href="#ArialMT-6e" x="592.927734"/>
       <use xlink:href="#ArialMT-63" x="648.542969"/>
       <use xlink:href="#ArialMT-65" x="698.542969"/>
      </g>
     </g>
    </g>
    <g id="xtick_3">
     <g id="text_3">
      <!-- YearsAtCompany -->
      <g style="fill: #262626" transform="translate(422.347448 272.967656) scale(0.11 -0.11)">
       <defs>
        <path id="ArialMT-41" d="M -9 0 
L 1750 4581 
L 2403 4581 
L 4278 0 
L 3588 0 
L 3053 1388 
L 1138 1388 
L 634 0 
L -9 0 
z
M 1313 1881 
L 2866 1881 
L 2388 3150 
Q 2169 3728 2063 4100 
Q 1975 3659 1816 3225 
L 1313 1881 
z
" transform="scale(0.015625)"/>
        <path id="ArialMT-43" d="M 3763 1606 
L 4369 1453 
Q 4178 706 3683 314 
Q 3188 -78 2472 -78 
Q 1731 -78 1267 223 
Q 803 525 561 1097 
Q 319 1669 319 2325 
Q 319 3041 592 3573 
Q 866 4106 1370 4382 
Q 1875 4659 2481 4659 
Q 3169 4659 3637 4309 
Q 4106 3959 4291 3325 
L 3694 3184 
Q 3534 3684 3231 3912 
Q 2928 4141 2469 4141 
Q 1941 4141 1586 3887 
Q 1231 3634 1087 3207 
Q 944 2781 944 2328 
Q 944 1744 1114 1308 
Q 1284 872 1643 656 
Q 2003 441 2422 441 
Q 2931 441 3284 734 
Q 3638 1028 3763 1606 
z
" transform="scale(0.015625)"/>
        <path id="ArialMT-70" d="M 422 -1272 
L 422 3319 
L 934 3319 
L 934 2888 
Q 1116 3141 1344 3267 
Q 1572 3394 1897 3394 
Q 2322 3394 2647 3175 
Q 2972 2956 3137 2557 
Q 3303 2159 3303 1684 
Q 3303 1175 3120 767 
Q 2938 359 2589 142 
Q 2241 -75 1856 -75 
Q 1575 -75 1351 44 
Q 1128 163 984 344 
L 984 -1272 
L 422 -1272 
z
M 931 1641 
Q 931 1000 1190 694 
Q 1450 388 1819 388 
Q 2194 388 2461 705 
Q 2728 1022 2728 1688 
Q 2728 2322 2467 2637 
Q 2206 2953 1844 2953 
Q 1484 2953 1207 2617 
Q 931 2281 931 1641 
z
" transform="scale(0.015625)"/>
        <path id="ArialMT-79" d="M 397 -1278 
L 334 -750 
Q 519 -800 656 -800 
Q 844 -800 956 -737 
Q 1069 -675 1141 -563 
Q 1194 -478 1313 -144 
Q 1328 -97 1363 -6 
L 103 3319 
L 709 3319 
L 1400 1397 
Q 1534 1031 1641 628 
Q 1738 1016 1872 1384 
L 2581 3319 
L 3144 3319 
L 1881 -56 
Q 1678 -603 1566 -809 
Q 1416 -1088 1222 -1217 
Q 1028 -1347 759 -1347 
Q 597 -1347 397 -1278 
z
" transform="scale(0.015625)"/>
       </defs>
       <use xlink:href="#ArialMT-59"/>
       <use xlink:href="#ArialMT-65" x="57.574219"/>
       <use xlink:href="#ArialMT-61" x="113.189453"/>
       <use xlink:href="#ArialMT-72" x="168.804688"/>
       <use xlink:href="#ArialMT-73" x="202.105469"/>
       <use xlink:href="#ArialMT-41" x="252.105469"/>
       <use xlink:href="#ArialMT-74" x="318.804688"/>
       <use xlink:href="#ArialMT-43" x="346.587891"/>
       <use xlink:href="#ArialMT-6f" x="418.804688"/>
       <use xlink:href="#ArialMT-6d" x="474.419922"/>
       <use xlink:href="#ArialMT-70" x="557.720703"/>
       <use xlink:href="#ArialMT-61" x="613.335938"/>
       <use xlink:href="#ArialMT-6e" x="668.951172"/>
       <use xlink:href="#ArialMT-79" x="724.566406"/>
      </g>
     </g>
    </g>
    <g id="xtick_4">
     <g id="text_4">
      <!-- YearsInCurrentRole -->
      <g style="fill: #262626" transform="translate(588.872396 272.833594) scale(0.11 -0.11)">
       <defs>
        <path id="ArialMT-49" d="M 597 0 
L 597 4581 
L 1203 4581 
L 1203 0 
L 597 0 
z
" transform="scale(0.015625)"/>
        <path id="ArialMT-75" d="M 2597 0 
L 2597 488 
Q 2209 -75 1544 -75 
Q 1250 -75 995 37 
Q 741 150 617 320 
Q 494 491 444 738 
Q 409 903 409 1263 
L 409 3319 
L 972 3319 
L 972 1478 
Q 972 1038 1006 884 
Q 1059 663 1231 536 
Q 1403 409 1656 409 
Q 1909 409 2131 539 
Q 2353 669 2445 892 
Q 2538 1116 2538 1541 
L 2538 3319 
L 3100 3319 
L 3100 0 
L 2597 0 
z
" transform="scale(0.015625)"/>
        <path id="ArialMT-52" d="M 503 0 
L 503 4581 
L 2534 4581 
Q 3147 4581 3465 4457 
Q 3784 4334 3975 4021 
Q 4166 3709 4166 3331 
Q 4166 2844 3850 2509 
Q 3534 2175 2875 2084 
Q 3116 1969 3241 1856 
Q 3506 1613 3744 1247 
L 4541 0 
L 3778 0 
L 3172 953 
Q 2906 1366 2734 1584 
Q 2563 1803 2427 1890 
Q 2291 1978 2150 2013 
Q 2047 2034 1813 2034 
L 1109 2034 
L 1109 0 
L 503 0 
z
M 1109 2559 
L 2413 2559 
Q 2828 2559 3062 2645 
Q 3297 2731 3419 2920 
Q 3541 3109 3541 3331 
Q 3541 3656 3305 3865 
Q 3069 4075 2559 4075 
L 1109 4075 
L 1109 2559 
z
" transform="scale(0.015625)"/>
       </defs>
       <use xlink:href="#ArialMT-59"/>
       <use xlink:href="#ArialMT-65" x="57.574219"/>
       <use xlink:href="#ArialMT-61" x="113.189453"/>
       <use xlink:href="#ArialMT-72" x="168.804688"/>
       <use xlink:href="#ArialMT-73" x="202.105469"/>
       <use xlink:href="#ArialMT-49" x="252.105469"/>
       <use xlink:href="#ArialMT-6e" x="279.888672"/>
       <use xlink:href="#ArialMT-43" x="335.503906"/>
       <use xlink:href="#ArialMT-75" x="407.720703"/>
       <use xlink:href="#ArialMT-72" x="463.335938"/>
       <use xlink:href="#ArialMT-72" x="496.636719"/>
       <use xlink:href="#ArialMT-65" x="529.9375"/>
       <use xlink:href="#ArialMT-6e" x="585.552734"/>
       <use xlink:href="#ArialMT-74" x="641.167969"/>
       <use xlink:href="#ArialMT-52" x="668.951172"/>
       <use xlink:href="#ArialMT-6f" x="741.167969"/>
       <use xlink:href="#ArialMT-6c" x="796.783203"/>
       <use xlink:href="#ArialMT-65" x="819"/>
      </g>
     </g>
    </g>
    <g id="xtick_5">
     <g id="text_5">
      <!-- YearsSinceLastPromotion -->
      <g style="fill: #262626" transform="translate(745.916719 272.833594) scale(0.11 -0.11)">
       <defs>
        <path id="ArialMT-53" d="M 288 1472 
L 859 1522 
Q 900 1178 1048 958 
Q 1197 738 1509 602 
Q 1822 466 2213 466 
Q 2559 466 2825 569 
Q 3091 672 3220 851 
Q 3350 1031 3350 1244 
Q 3350 1459 3225 1620 
Q 3100 1781 2813 1891 
Q 2628 1963 1997 2114 
Q 1366 2266 1113 2400 
Q 784 2572 623 2826 
Q 463 3081 463 3397 
Q 463 3744 659 4045 
Q 856 4347 1234 4503 
Q 1613 4659 2075 4659 
Q 2584 4659 2973 4495 
Q 3363 4331 3572 4012 
Q 3781 3694 3797 3291 
L 3216 3247 
Q 3169 3681 2898 3903 
Q 2628 4125 2100 4125 
Q 1550 4125 1298 3923 
Q 1047 3722 1047 3438 
Q 1047 3191 1225 3031 
Q 1400 2872 2139 2705 
Q 2878 2538 3153 2413 
Q 3553 2228 3743 1945 
Q 3934 1663 3934 1294 
Q 3934 928 3725 604 
Q 3516 281 3123 101 
Q 2731 -78 2241 -78 
Q 1619 -78 1198 103 
Q 778 284 539 648 
Q 300 1013 288 1472 
z
" transform="scale(0.015625)"/>
        <path id="ArialMT-50" d="M 494 0 
L 494 4581 
L 2222 4581 
Q 2678 4581 2919 4538 
Q 3256 4481 3484 4323 
Q 3713 4166 3852 3881 
Q 3991 3597 3991 3256 
Q 3991 2672 3619 2267 
Q 3247 1863 2275 1863 
L 1100 1863 
L 1100 0 
L 494 0 
z
M 1100 2403 
L 2284 2403 
Q 2872 2403 3119 2622 
Q 3366 2841 3366 3238 
Q 3366 3525 3220 3729 
Q 3075 3934 2838 4000 
Q 2684 4041 2272 4041 
L 1100 4041 
L 1100 2403 
z
" transform="scale(0.015625)"/>
       </defs>
       <use xlink:href="#ArialMT-59"/>
       <use xlink:href="#ArialMT-65" x="57.574219"/>
       <use xlink:href="#ArialMT-61" x="113.189453"/>
       <use xlink:href="#ArialMT-72" x="168.804688"/>
       <use xlink:href="#ArialMT-73" x="202.105469"/>
       <use xlink:href="#ArialMT-53" x="252.105469"/>
       <use xlink:href="#ArialMT-69" x="318.804688"/>
       <use xlink:href="#ArialMT-6e" x="341.021484"/>
       <use xlink:href="#ArialMT-63" x="396.636719"/>
       <use xlink:href="#ArialMT-65" x="446.636719"/>
       <use xlink:href="#ArialMT-4c" x="502.251953"/>
       <use xlink:href="#ArialMT-61" x="557.867188"/>
       <use xlink:href="#ArialMT-73" x="613.482422"/>
       <use xlink:href="#ArialMT-74" x="663.482422"/>
       <use xlink:href="#ArialMT-50" x="691.265625"/>
       <use xlink:href="#ArialMT-72" x="757.964844"/>
       <use xlink:href="#ArialMT-6f" x="791.265625"/>
       <use xlink:href="#ArialMT-6d" x="846.880859"/>
       <use xlink:href="#ArialMT-6f" x="930.181641"/>
       <use xlink:href="#ArialMT-74" x="985.796875"/>
       <use xlink:href="#ArialMT-69" x="1013.580078"/>
       <use xlink:href="#ArialMT-6f" x="1035.796875"/>
       <use xlink:href="#ArialMT-6e" x="1091.412109"/>
      </g>
     </g>
    </g>
    <g id="xtick_6">
     <g id="text_6">
      <!-- YearsWithCurrManager -->
      <g style="fill: #262626" transform="translate(923.763073 272.967656) scale(0.11 -0.11)">
       <defs>
        <path id="ArialMT-68" d="M 422 0 
L 422 4581 
L 984 4581 
L 984 2938 
Q 1378 3394 1978 3394 
Q 2347 3394 2619 3248 
Q 2891 3103 3008 2847 
Q 3125 2591 3125 2103 
L 3125 0 
L 2563 0 
L 2563 2103 
Q 2563 2525 2380 2717 
Q 2197 2909 1863 2909 
Q 1613 2909 1392 2779 
Q 1172 2650 1078 2428 
Q 984 2206 984 1816 
L 984 0 
L 422 0 
z
" transform="scale(0.015625)"/>
        <path id="ArialMT-4d" d="M 475 0 
L 475 4581 
L 1388 4581 
L 2472 1338 
Q 2622 884 2691 659 
Q 2769 909 2934 1394 
L 4031 4581 
L 4847 4581 
L 4847 0 
L 4263 0 
L 4263 3834 
L 2931 0 
L 2384 0 
L 1059 3900 
L 1059 0 
L 475 0 
z
" transform="scale(0.015625)"/>
       </defs>
       <use xlink:href="#ArialMT-59"/>
       <use xlink:href="#ArialMT-65" x="57.574219"/>
       <use xlink:href="#ArialMT-61" x="113.189453"/>
       <use xlink:href="#ArialMT-72" x="168.804688"/>
       <use xlink:href="#ArialMT-73" x="202.105469"/>
       <use xlink:href="#ArialMT-57" x="252.105469"/>
       <use xlink:href="#ArialMT-69" x="346.490234"/>
       <use xlink:href="#ArialMT-74" x="368.707031"/>
       <use xlink:href="#ArialMT-68" x="396.490234"/>
       <use xlink:href="#ArialMT-43" x="452.105469"/>
       <use xlink:href="#ArialMT-75" x="524.322266"/>
       <use xlink:href="#ArialMT-72" x="579.9375"/>
       <use xlink:href="#ArialMT-72" x="613.238281"/>
       <use xlink:href="#ArialMT-4d" x="646.539062"/>
       <use xlink:href="#ArialMT-61" x="729.839844"/>
       <use xlink:href="#ArialMT-6e" x="785.455078"/>
       <use xlink:href="#ArialMT-61" x="841.070312"/>
       <use xlink:href="#ArialMT-67" x="896.685547"/>
       <use xlink:href="#ArialMT-65" x="952.300781"/>
       <use xlink:href="#ArialMT-72" x="1007.916016"/>
      </g>
     </g>
    </g>
   </g>
   <g id="matplotlib.axis_2">
    <g id="ytick_1">
     <g id="line2d_1">
      <path d="M 34.88 224.303213 
L 1067.04 224.303213 
" clip-path="url(#p2c5e6b288d)" style="fill: none; stroke: #cccccc; stroke-linecap: round"/>
     </g>
     <g id="text_7">
      <!-- −2 -->
      <g style="fill: #262626" transform="translate(12.838281 228.24001) scale(0.11 -0.11)">
       <defs>
        <path id="ArialMT-2212" d="M 3381 1997 
L 356 1997 
L 356 2522 
L 3381 2522 
L 3381 1997 
z
" transform="scale(0.015625)"/>
        <path id="ArialMT-32" d="M 3222 541 
L 3222 0 
L 194 0 
Q 188 203 259 391 
Q 375 700 629 1000 
Q 884 1300 1366 1694 
Q 2113 2306 2375 2664 
Q 2638 3022 2638 3341 
Q 2638 3675 2398 3904 
Q 2159 4134 1775 4134 
Q 1369 4134 1125 3890 
Q 881 3647 878 3216 
L 300 3275 
Q 359 3922 746 4261 
Q 1134 4600 1788 4600 
Q 2447 4600 2831 4234 
Q 3216 3869 3216 3328 
Q 3216 3053 3103 2787 
Q 2991 2522 2730 2228 
Q 2469 1934 1863 1422 
Q 1356 997 1212 845 
Q 1069 694 975 541 
L 3222 541 
z
" transform="scale(0.015625)"/>
       </defs>
       <use xlink:href="#ArialMT-2212"/>
       <use xlink:href="#ArialMT-32" x="58.398438"/>
      </g>
     </g>
    </g>
    <g id="ytick_2">
     <g id="line2d_2">
      <path d="M 34.88 179.746048 
L 1067.04 179.746048 
" clip-path="url(#p2c5e6b288d)" style="fill: none; stroke: #cccccc; stroke-linecap: round"/>
     </g>
     <g id="text_8">
      <!-- 0 -->
      <g style="fill: #262626" transform="translate(19.262969 183.682845) scale(0.11 -0.11)">
       <defs>
        <path id="ArialMT-30" d="M 266 2259 
Q 266 3072 433 3567 
Q 600 4063 929 4331 
Q 1259 4600 1759 4600 
Q 2128 4600 2406 4451 
Q 2684 4303 2865 4023 
Q 3047 3744 3150 3342 
Q 3253 2941 3253 2259 
Q 3253 1453 3087 958 
Q 2922 463 2592 192 
Q 2263 -78 1759 -78 
Q 1097 -78 719 397 
Q 266 969 266 2259 
z
M 844 2259 
Q 844 1131 1108 757 
Q 1372 384 1759 384 
Q 2147 384 2411 759 
Q 2675 1134 2675 2259 
Q 2675 3391 2411 3762 
Q 2147 4134 1753 4134 
Q 1366 4134 1134 3806 
Q 844 3388 844 2259 
z
" transform="scale(0.015625)"/>
       </defs>
       <use xlink:href="#ArialMT-30"/>
      </g>
     </g>
    </g>
    <g id="ytick_3">
     <g id="line2d_3">
      <path d="M 34.88 135.188884 
L 1067.04 135.188884 
" clip-path="url(#p2c5e6b288d)" style="fill: none; stroke: #cccccc; stroke-linecap: round"/>
     </g>
     <g id="text_9">
      <!-- 2 -->
      <g style="fill: #262626" transform="translate(19.262969 139.125681) scale(0.11 -0.11)">
       <use xlink:href="#ArialMT-32"/>
      </g>
     </g>
    </g>
    <g id="ytick_4">
     <g id="line2d_4">
      <path d="M 34.88 90.631719 
L 1067.04 90.631719 
" clip-path="url(#p2c5e6b288d)" style="fill: none; stroke: #cccccc; stroke-linecap: round"/>
     </g>
     <g id="text_10">
      <!-- 4 -->
      <g style="fill: #262626" transform="translate(19.262969 94.568516) scale(0.11 -0.11)">
       <defs>
        <path id="ArialMT-34" d="M 2069 0 
L 2069 1097 
L 81 1097 
L 81 1613 
L 2172 4581 
L 2631 4581 
L 2631 1613 
L 3250 1613 
L 3250 1097 
L 2631 1097 
L 2631 0 
L 2069 0 
z
M 2069 1613 
L 2069 3678 
L 634 1613 
L 2069 1613 
z
" transform="scale(0.015625)"/>
       </defs>
       <use xlink:href="#ArialMT-34"/>
      </g>
     </g>
    </g>
    <g id="ytick_5">
     <g id="line2d_5">
      <path d="M 34.88 46.074554 
L 1067.04 46.074554 
" clip-path="url(#p2c5e6b288d)" style="fill: none; stroke: #cccccc; stroke-linecap: round"/>
     </g>
     <g id="text_11">
      <!-- 6 -->
      <g style="fill: #262626" transform="translate(19.262969 50.011351) scale(0.11 -0.11)">
       <defs>
        <path id="ArialMT-36" d="M 3184 3459 
L 2625 3416 
Q 2550 3747 2413 3897 
Q 2184 4138 1850 4138 
Q 1581 4138 1378 3988 
Q 1113 3794 959 3422 
Q 806 3050 800 2363 
Q 1003 2672 1297 2822 
Q 1591 2972 1913 2972 
Q 2475 2972 2870 2558 
Q 3266 2144 3266 1488 
Q 3266 1056 3080 686 
Q 2894 316 2569 119 
Q 2244 -78 1831 -78 
Q 1128 -78 684 439 
Q 241 956 241 2144 
Q 241 3472 731 4075 
Q 1159 4600 1884 4600 
Q 2425 4600 2770 4297 
Q 3116 3994 3184 3459 
z
M 888 1484 
Q 888 1194 1011 928 
Q 1134 663 1356 523 
Q 1578 384 1822 384 
Q 2178 384 2434 671 
Q 2691 959 2691 1453 
Q 2691 1928 2437 2201 
Q 2184 2475 1800 2475 
Q 1419 2475 1153 2201 
Q 888 1928 888 1484 
z
" transform="scale(0.015625)"/>
       </defs>
       <use xlink:href="#ArialMT-36"/>
      </g>
     </g>
    </g>
   </g>
   <g id="PolyCollection_1">
    <defs>
     <path id="m587b233c5b" d="M 121.810134 -49.519487 
L 119.976533 -49.519487 
L 119.44733 -50.776097 
L 118.742924 -52.032707 
L 117.877998 -53.289318 
L 116.906527 -54.545928 
L 115.922644 -55.802539 
L 115.048517 -57.059149 
L 114.409617 -58.31576 
L 114.103157 -59.57237 
L 114.169435 -60.828981 
L 114.575862 -62.085591 
L 115.219382 -63.342202 
L 115.946527 -64.598812 
L 116.584856 -65.855423 
L 116.977286 -67.112033 
L 117.012134 -68.368643 
L 116.644537 -69.625254 
L 115.90701 -70.881864 
L 114.907275 -72.138475 
L 113.811159 -73.395085 
L 112.809608 -74.651696 
L 112.072406 -75.908306 
L 111.696282 -77.164917 
L 111.658712 -78.421527 
L 111.788948 -79.678138 
L 111.764794 -80.934748 
L 111.139748 -82.191359 
L 109.402735 -83.447969 
L 106.070985 -84.704579 
L 100.811822 -85.96119 
L 93.577296 -87.2178 
L 84.717893 -88.474411 
L 75.027245 -89.731021 
L 65.672533 -90.987632 
L 57.993971 -92.244242 
L 53.206131 -93.500853 
L 52.082667 -94.757463 
L 54.727241 -96.014074 
L 60.511345 -97.270684 
L 68.201602 -98.527295 
L 76.233017 -99.783905 
L 83.042481 -101.040516 
L 87.374475 -102.297126 
L 88.500102 -103.553736 
L 86.32723 -104.810347 
L 81.402374 -106.066957 
L 74.810185 -107.323568 
L 67.976816 -108.580178 
L 62.395278 -109.836789 
L 59.317635 -111.093399 
L 59.486248 -112.35001 
L 62.98204 -113.60662 
L 69.239096 -114.863231 
L 77.219984 -116.119841 
L 85.690893 -117.376452 
L 93.507067 -118.633062 
L 99.828864 -119.889672 
L 104.226999 -121.146283 
L 106.679472 -122.402893 
L 107.491594 -123.659504 
L 107.177387 -124.916114 
L 106.332309 -126.172725 
L 105.515762 -127.429335 
L 105.155542 -128.685946 
L 105.485006 -129.942556 
L 106.522086 -131.199167 
L 108.092915 -132.455777 
L 109.892413 -133.712388 
L 111.564945 -134.968998 
L 112.784984 -136.225608 
L 113.321904 -137.482219 
L 113.080824 -138.738829 
L 112.117865 -139.99544 
L 110.630542 -141.25205 
L 108.923876 -142.508661 
L 107.35406 -143.765271 
L 106.256713 -145.021882 
L 105.874225 -146.278492 
L 106.301538 -147.535103 
L 107.467187 -148.791713 
L 109.155859 -150.048324 
L 111.064729 -151.304934 
L 112.875175 -152.561544 
L 114.319119 -153.818155 
L 115.22507 -155.074765 
L 115.538407 -156.331376 
L 115.318239 -157.587986 
L 114.716365 -158.844597 
L 113.943594 -160.101207 
L 113.22796 -161.357818 
L 112.770502 -162.614428 
L 112.706751 -163.871039 
L 113.083224 -165.127649 
L 113.855642 -166.38426 
L 114.909238 -167.64087 
L 116.094093 -168.897481 
L 117.263659 -170.154091 
L 118.304845 -171.410701 
L 119.152764 -172.667312 
L 119.789774 -173.923922 
L 121.996893 -173.923922 
L 121.996893 -173.923922 
L 122.633903 -172.667312 
L 123.481821 -171.410701 
L 124.523007 -170.154091 
L 125.692574 -168.897481 
L 126.877429 -167.64087 
L 127.931025 -166.38426 
L 128.703443 -165.127649 
L 129.079916 -163.871039 
L 129.016165 -162.614428 
L 128.558706 -161.357818 
L 127.843072 -160.101207 
L 127.070302 -158.844597 
L 126.468428 -157.587986 
L 126.24826 -156.331376 
L 126.561596 -155.074765 
L 127.467547 -153.818155 
L 128.911492 -152.561544 
L 130.721937 -151.304934 
L 132.630808 -150.048324 
L 134.31948 -148.791713 
L 135.485129 -147.535103 
L 135.912442 -146.278492 
L 135.529953 -145.021882 
L 134.432607 -143.765271 
L 132.862791 -142.508661 
L 131.156125 -141.25205 
L 129.668802 -139.99544 
L 128.705842 -138.738829 
L 128.464763 -137.482219 
L 129.001683 -136.225608 
L 130.221722 -134.968998 
L 131.894254 -133.712388 
L 133.693752 -132.455777 
L 135.264581 -131.199167 
L 136.301661 -129.942556 
L 136.631124 -128.685946 
L 136.270905 -127.429335 
L 135.454358 -126.172725 
L 134.609279 -124.916114 
L 134.295072 -123.659504 
L 135.107194 -122.402893 
L 137.559668 -121.146283 
L 141.957802 -119.889672 
L 148.279599 -118.633062 
L 156.095774 -117.376452 
L 164.566682 -116.119841 
L 172.547571 -114.863231 
L 178.804626 -113.60662 
L 182.300419 -112.35001 
L 182.469031 -111.093399 
L 179.391389 -109.836789 
L 173.809851 -108.580178 
L 166.976482 -107.323568 
L 160.384292 -106.066957 
L 155.459437 -104.810347 
L 153.286565 -103.553736 
L 154.412192 -102.297126 
L 158.744185 -101.040516 
L 165.553649 -99.783905 
L 173.585064 -98.527295 
L 181.275321 -97.270684 
L 187.059426 -96.014074 
L 189.704 -94.757463 
L 188.580536 -93.500853 
L 183.792696 -92.244242 
L 176.114133 -90.987632 
L 166.759422 -89.731021 
L 157.068774 -88.474411 
L 148.209371 -87.2178 
L 140.974845 -85.96119 
L 135.715682 -84.704579 
L 132.383931 -83.447969 
L 130.646919 -82.191359 
L 130.021872 -80.934748 
L 129.997718 -79.678138 
L 130.127955 -78.421527 
L 130.090384 -77.164917 
L 129.714261 -75.908306 
L 128.977059 -74.651696 
L 127.975507 -73.395085 
L 126.879392 -72.138475 
L 125.879656 -70.881864 
L 125.14213 -69.625254 
L 124.774532 -68.368643 
L 124.809381 -67.112033 
L 125.201811 -65.855423 
L 125.84014 -64.598812 
L 126.567285 -63.342202 
L 127.210805 -62.085591 
L 127.617232 -60.828981 
L 127.68351 -59.57237 
L 127.37705 -58.31576 
L 126.738149 -57.059149 
L 125.864023 -55.802539 
L 124.88014 -54.545928 
L 123.908669 -53.289318 
L 123.043742 -52.032707 
L 122.339337 -50.776097 
L 121.810134 -49.519487 
z
" style="stroke: #484848; stroke-width: 3"/>
    </defs>
    <g clip-path="url(#p2c5e6b288d)">
     <use xlink:href="#m587b233c5b" x="0" y="288" style="fill: #cb3335; stroke: #484848; stroke-width: 3"/>
    </g>
   </g>
   <g id="PolyCollection_2">
    <defs>
     <path id="m6e1c4bd073" d="M 293.754293 -42.351818 
L 292.085707 -42.351818 
L 291.644628 -43.516757 
L 291.066469 -44.681696 
L 290.359014 -45.846634 
L 289.555976 -47.011573 
L 288.718972 -48.176512 
L 287.932343 -49.341451 
L 287.29034 -50.506389 
L 286.878952 -51.671328 
L 286.757074 -52.836267 
L 286.942684 -54.001206 
L 287.408495 -55.166144 
L 288.088529 -56.331083 
L 288.893425 -57.496022 
L 289.729588 -58.660961 
L 290.516511 -59.825899 
L 291.197979 -60.990838 
L 291.745391 -62.155777 
L 292.154068 -63.320716 
L 292.434999 -64.485654 
L 292.604805 -65.650593 
L 292.675936 -66.815532 
L 292.648084 -67.980471 
L 292.501108 -69.145409 
L 292.189856 -70.310348 
L 291.642117 -71.475287 
L 290.762109 -72.640226 
L 289.442474 -73.805164 
L 287.586905 -74.970103 
L 285.142489 -76.135042 
L 282.136147 -77.299981 
L 278.704607 -78.464919 
L 275.104825 -79.629858 
L 271.694089 -80.794797 
L 268.877079 -81.959736 
L 267.028768 -83.124674 
L 266.412867 -84.289613 
L 267.120138 -85.454552 
L 269.04647 -86.619491 
L 271.917992 -87.784429 
L 275.354887 -88.949368 
L 278.953383 -90.114307 
L 282.361606 -91.279246 
L 285.33012 -92.444184 
L 287.72897 -93.609123 
L 289.53439 -94.774062 
L 290.795839 -95.939001 
L 291.595755 -97.103939 
L 292.011603 -98.268878 
L 292.085017 -99.433817 
L 291.799105 -100.598756 
L 291.063842 -101.763694 
L 289.711232 -102.928633 
L 287.50504 -104.093572 
L 284.172081 -105.258511 
L 279.460467 -106.423449 
L 273.223168 -107.588388 
L 265.513259 -108.753327 
L 256.664349 -109.918266 
L 247.322419 -111.083204 
L 238.400322 -112.248143 
L 230.946001 -113.413082 
L 225.945364 -114.578021 
L 224.109333 -115.74296 
L 225.708169 -116.907898 
L 230.506254 -118.072837 
L 237.819018 -119.237776 
L 246.673053 -120.402715 
L 256.017849 -121.567653 
L 264.925923 -122.732592 
L 272.730279 -123.897531 
L 279.076073 -125.06247 
L 283.893647 -126.227408 
L 287.320851 -127.392347 
L 289.608695 -128.557286 
L 291.037778 -129.722225 
L 291.860166 -130.887163 
L 292.26899 -132.052102 
L 292.390192 -133.217041 
L 292.288347 -134.38198 
L 291.979888 -135.546918 
L 291.449965 -136.711857 
L 290.67152 -137.876796 
L 289.625871 -139.041735 
L 288.323056 -140.206673 
L 286.818246 -141.371612 
L 285.219147 -142.536551 
L 283.679802 -143.70149 
L 282.379244 -144.866428 
L 281.488382 -146.031367 
L 281.133404 -147.196306 
L 281.366496 -148.361245 
L 282.153276 -149.526183 
L 283.381106 -150.691122 
L 284.885534 -151.856061 
L 286.486304 -153.021 
L 288.022115 -154.185938 
L 289.375122 -155.350877 
L 290.48085 -156.515816 
L 291.324414 -157.680755 
L 294.515586 -157.680755 
L 294.515586 -157.680755 
L 295.35915 -156.515816 
L 296.464878 -155.350877 
L 297.817885 -154.185938 
L 299.353696 -153.021 
L 300.954466 -151.856061 
L 302.458894 -150.691122 
L 303.686724 -149.526183 
L 304.473504 -148.361245 
L 304.706596 -147.196306 
L 304.351618 -146.031367 
L 303.460756 -144.866428 
L 302.160198 -143.70149 
L 300.620853 -142.536551 
L 299.021754 -141.371612 
L 297.516944 -140.206673 
L 296.214129 -139.041735 
L 295.16848 -137.876796 
L 294.390035 -136.711857 
L 293.860112 -135.546918 
L 293.551653 -134.38198 
L 293.449808 -133.217041 
L 293.57101 -132.052102 
L 293.979834 -130.887163 
L 294.802222 -129.722225 
L 296.231305 -128.557286 
L 298.519149 -127.392347 
L 301.946353 -126.227408 
L 306.763927 -125.06247 
L 313.109721 -123.897531 
L 320.914077 -122.732592 
L 329.822151 -121.567653 
L 339.166947 -120.402715 
L 348.020982 -119.237776 
L 355.333746 -118.072837 
L 360.131831 -116.907898 
L 361.730667 -115.74296 
L 359.894636 -114.578021 
L 354.893999 -113.413082 
L 347.439678 -112.248143 
L 338.517581 -111.083204 
L 329.175651 -109.918266 
L 320.326741 -108.753327 
L 312.616832 -107.588388 
L 306.379533 -106.423449 
L 301.667919 -105.258511 
L 298.33496 -104.093572 
L 296.128768 -102.928633 
L 294.776158 -101.763694 
L 294.040895 -100.598756 
L 293.754983 -99.433817 
L 293.828397 -98.268878 
L 294.244245 -97.103939 
L 295.044161 -95.939001 
L 296.30561 -94.774062 
L 298.11103 -93.609123 
L 300.50988 -92.444184 
L 303.478394 -91.279246 
L 306.886617 -90.114307 
L 310.485113 -88.949368 
L 313.922008 -87.784429 
L 316.79353 -86.619491 
L 318.719862 -85.454552 
L 319.427133 -84.289613 
L 318.811232 -83.124674 
L 316.962921 -81.959736 
L 314.145911 -80.794797 
L 310.735175 -79.629858 
L 307.135393 -78.464919 
L 303.703853 -77.299981 
L 300.697511 -76.135042 
L 298.253095 -74.970103 
L 296.397526 -73.805164 
L 295.077891 -72.640226 
L 294.197883 -71.475287 
L 293.650144 -70.310348 
L 293.338892 -69.145409 
L 293.191916 -67.980471 
L 293.164064 -66.815532 
L 293.235195 -65.650593 
L 293.405001 -64.485654 
L 293.685932 -63.320716 
L 294.094609 -62.155777 
L 294.642021 -60.990838 
L 295.323489 -59.825899 
L 296.110412 -58.660961 
L 296.946575 -57.496022 
L 297.751471 -56.331083 
L 298.431505 -55.166144 
L 298.897316 -54.001206 
L 299.082926 -52.836267 
L 298.961048 -51.671328 
L 298.54966 -50.506389 
L 297.907657 -49.341451 
L 297.121028 -48.176512 
L 296.284024 -47.011573 
L 295.480986 -45.846634 
L 294.773531 -44.681696 
L 294.195372 -43.516757 
L 293.754293 -42.351818 
z
" style="stroke: #484848; stroke-width: 3"/>
    </defs>
    <g clip-path="url(#p2c5e6b288d)">
     <use xlink:href="#m6e1c4bd073" x="0" y="288" style="fill: #477ca8; stroke: #484848; stroke-width: 3"/>
    </g>
   </g>
   <g id="PolyCollection_3">
    <defs>
     <path id="m6f4aee511b" d="M 466.530101 -72.407117 
L 463.363232 -72.407117 
L 461.706173 -74.085714 
L 458.858859 -75.764311 
L 454.426258 -77.442907 
L 448.184574 -79.121504 
L 440.254304 -80.800101 
L 431.194993 -82.478697 
L 421.934103 -84.157294 
L 413.515734 -85.83589 
L 406.763532 -87.514487 
L 402.020854 -89.193084 
L 399.102397 -90.87168 
L 397.478586 -92.550277 
L 396.591105 -94.228873 
L 396.136 -95.90747 
L 396.17383 -97.586067 
L 397.01696 -99.264663 
L 398.963598 -100.94326 
L 402.037691 -102.621856 
L 405.891469 -104.300453 
L 409.921648 -105.97905 
L 413.514526 -107.657646 
L 416.273719 -109.336243 
L 418.132157 -111.01484 
L 419.342103 -112.693436 
L 420.385918 -114.372033 
L 421.838513 -116.050629 
L 424.193541 -117.729226 
L 427.685739 -119.407823 
L 432.181616 -121.086419 
L 437.209772 -122.765016 
L 442.135305 -124.443612 
L 446.395234 -126.122209 
L 449.676123 -127.800806 
L 451.959301 -129.479402 
L 453.443419 -131.157999 
L 454.413571 -132.836595 
L 455.128707 -134.515192 
L 455.761916 -136.193789 
L 456.389664 -137.872385 
L 457.00966 -139.550982 
L 457.570029 -141.229578 
L 458.000151 -142.908175 
L 458.237606 -144.586772 
L 458.247445 -146.265368 
L 458.03314 -147.943965 
L 457.641208 -149.622562 
L 457.16013 -151.301158 
L 456.709989 -152.979755 
L 456.41909 -154.658351 
L 456.391211 -156.336948 
L 456.676243 -158.015545 
L 457.257786 -159.694141 
L 458.062015 -161.372738 
L 458.981294 -163.051334 
L 459.902363 -164.729931 
L 460.731645 -166.408528 
L 461.413067 -168.087124 
L 461.934501 -169.765721 
L 462.320934 -171.444317 
L 462.617504 -173.122914 
L 462.870092 -174.801511 
L 463.110946 -176.480107 
L 463.352671 -178.158704 
L 463.589683 -179.8373 
L 463.804597 -181.515897 
L 463.976821 -183.194494 
L 464.090541 -184.87309 
L 464.13938 -186.551687 
L 464.126494 -188.230284 
L 464.061428 -189.90888 
L 463.956709 -191.587477 
L 463.826548 -193.266073 
L 463.687735 -194.94467 
L 463.56082 -196.623267 
L 463.469247 -198.301863 
L 463.435136 -199.98046 
L 463.472355 -201.659056 
L 463.579754 -203.337653 
L 463.738736 -205.01625 
L 463.918132 -206.694846 
L 464.085405 -208.373443 
L 464.218876 -210.052039 
L 464.31438 -211.730636 
L 464.382952 -213.409233 
L 464.441573 -215.087829 
L 464.502857 -216.766426 
L 464.569381 -218.445023 
L 464.634804 -220.123619 
L 464.689777 -221.802216 
L 464.728441 -223.480812 
L 464.751795 -225.159409 
L 464.766649 -226.838006 
L 464.781468 -228.516602 
L 464.801974 -230.195199 
L 464.82896 -231.873795 
L 464.859092 -233.552392 
L 464.887549 -235.230989 
L 464.910599 -236.909585 
L 464.926818 -238.588182 
L 464.966515 -238.588182 
L 464.966515 -238.588182 
L 464.982734 -236.909585 
L 465.005785 -235.230989 
L 465.034241 -233.552392 
L 465.064374 -231.873795 
L 465.09136 -230.195199 
L 465.111865 -228.516602 
L 465.126685 -226.838006 
L 465.141538 -225.159409 
L 465.164892 -223.480812 
L 465.203556 -221.802216 
L 465.258529 -220.123619 
L 465.323952 -218.445023 
L 465.390476 -216.766426 
L 465.45176 -215.087829 
L 465.510382 -213.409233 
L 465.578954 -211.730636 
L 465.674457 -210.052039 
L 465.807928 -208.373443 
L 465.975202 -206.694846 
L 466.154597 -205.01625 
L 466.313579 -203.337653 
L 466.420979 -201.659056 
L 466.458197 -199.98046 
L 466.424086 -198.301863 
L 466.332513 -196.623267 
L 466.205599 -194.94467 
L 466.066786 -193.266073 
L 465.936625 -191.587477 
L 465.831905 -189.90888 
L 465.766839 -188.230284 
L 465.753954 -186.551687 
L 465.802792 -184.87309 
L 465.916513 -183.194494 
L 466.088737 -181.515897 
L 466.30365 -179.8373 
L 466.540663 -178.158704 
L 466.782387 -176.480107 
L 467.023242 -174.801511 
L 467.275829 -173.122914 
L 467.5724 -171.444317 
L 467.958832 -169.765721 
L 468.480266 -168.087124 
L 469.161688 -166.408528 
L 469.99097 -164.729931 
L 470.912039 -163.051334 
L 471.831318 -161.372738 
L 472.635547 -159.694141 
L 473.217091 -158.015545 
L 473.502122 -156.336948 
L 473.474244 -154.658351 
L 473.183344 -152.979755 
L 472.733204 -151.301158 
L 472.252125 -149.622562 
L 471.860194 -147.943965 
L 471.645888 -146.265368 
L 471.655728 -144.586772 
L 471.893182 -142.908175 
L 472.323305 -141.229578 
L 472.883673 -139.550982 
L 473.50367 -137.872385 
L 474.131417 -136.193789 
L 474.764627 -134.515192 
L 475.479762 -132.836595 
L 476.449915 -131.157999 
L 477.934033 -129.479402 
L 480.21721 -127.800806 
L 483.498099 -126.122209 
L 487.758028 -124.443612 
L 492.683561 -122.765016 
L 497.711717 -121.086419 
L 502.207595 -119.407823 
L 505.699792 -117.729226 
L 508.05482 -116.050629 
L 509.507415 -114.372033 
L 510.55123 -112.693436 
L 511.761176 -111.01484 
L 513.619614 -109.336243 
L 516.378807 -107.657646 
L 519.971685 -105.97905 
L 524.001864 -104.300453 
L 527.855642 -102.621856 
L 530.929735 -100.94326 
L 532.876373 -99.264663 
L 533.719504 -97.586067 
L 533.757333 -95.90747 
L 533.302229 -94.228873 
L 532.414747 -92.550277 
L 530.790936 -90.87168 
L 527.872479 -89.193084 
L 523.129802 -87.514487 
L 516.3776 -85.83589 
L 507.959231 -84.157294 
L 498.69834 -82.478697 
L 489.639029 -80.800101 
L 481.70876 -79.121504 
L 475.467076 -77.442907 
L 471.034474 -75.764311 
L 468.18716 -74.085714 
L 466.530101 -72.407117 
z
" style="stroke: #484848; stroke-width: 3"/>
    </defs>
    <g clip-path="url(#p2c5e6b288d)">
     <use xlink:href="#m6f4aee511b" x="0" y="288" style="fill: #59a257; stroke: #484848; stroke-width: 3"/>
    </g>
   </g>
   <g id="PolyCollection_4">
    <defs>
     <path id="m388d3fcef8" d="M 641.690262 -71.886134 
L 632.256405 -71.886134 
L 629.320009 -73.213468 
L 625.322879 -74.540802 
L 620.319201 -75.868136 
L 614.586932 -77.19547 
L 608.615943 -78.522804 
L 603.007422 -79.850138 
L 598.2994 -81.177472 
L 594.77608 -82.504806 
L 592.342763 -83.83214 
L 590.534944 -85.159474 
L 588.679363 -86.486808 
L 586.157568 -87.814142 
L 582.671021 -89.141476 
L 578.39749 -90.46881 
L 573.968759 -91.796144 
L 570.273413 -93.123478 
L 568.162667 -94.450812 
L 568.177069 -95.778147 
L 570.397981 -97.105481 
L 574.467957 -98.432815 
L 579.749973 -99.760149 
L 585.54415 -101.087483 
L 591.273223 -102.414817 
L 596.579764 -103.742151 
L 601.325539 -105.069485 
L 605.521577 -106.396819 
L 609.233424 -107.724153 
L 612.500526 -109.051487 
L 615.291128 -110.378821 
L 617.495241 -111.706155 
L 618.946126 -113.033489 
L 619.458229 -114.360823 
L 618.873828 -115.688157 
L 617.115174 -117.015491 
L 614.237554 -118.342825 
L 610.47071 -119.670159 
L 606.227831 -120.997493 
L 602.062532 -122.324827 
L 598.570407 -123.652161 
L 596.257747 -124.979495 
L 595.421498 -126.306829 
L 596.086373 -127.634163 
L 598.023313 -128.961497 
L 600.838862 -130.288831 
L 604.096783 -131.616165 
L 607.42566 -132.943499 
L 610.580117 -134.270833 
L 613.447968 -135.598167 
L 616.017066 -136.925501 
L 618.325805 -138.252835 
L 620.419453 -139.580169 
L 622.325234 -140.907503 
L 624.048062 -142.234837 
L 625.580443 -143.562171 
L 626.916673 -144.889505 
L 628.062911 -146.216839 
L 629.039133 -147.544173 
L 629.87372 -148.871507 
L 630.594529 -150.198841 
L 631.221096 -151.526175 
L 631.761352 -152.853509 
L 632.213823 -154.180843 
L 632.573832 -155.508177 
L 632.840656 -156.835511 
L 633.022492 -158.162845 
L 633.137343 -159.490179 
L 633.209879 -160.817513 
L 633.265949 -162.144847 
L 633.327136 -163.472181 
L 633.407308 -164.799515 
L 633.511896 -166.126849 
L 633.639393 -167.454183 
L 633.783934 -168.781517 
L 633.937875 -170.108851 
L 634.093799 -171.436185 
L 634.245868 -172.763519 
L 634.390602 -174.090853 
L 634.527167 -175.418187 
L 634.657166 -176.745521 
L 634.783945 -178.072855 
L 634.911517 -179.400189 
L 635.043359 -180.727523 
L 635.181438 -182.054857 
L 635.32578 -183.382191 
L 635.474691 -184.709525 
L 635.625474 -186.036859 
L 635.775273 -187.364193 
L 635.921716 -188.691527 
L 636.063136 -190.018861 
L 636.198423 -191.346195 
L 636.326632 -192.673529 
L 636.446591 -194.000863 
L 636.55669 -195.328198 
L 636.654979 -196.655532 
L 636.73957 -197.982866 
L 636.809174 -199.3102 
L 636.863554 -200.637534 
L 636.903676 -201.964868 
L 636.931521 -203.292202 
L 637.015146 -203.292202 
L 637.015146 -203.292202 
L 637.04299 -201.964868 
L 637.083113 -200.637534 
L 637.137493 -199.3102 
L 637.207097 -197.982866 
L 637.291687 -196.655532 
L 637.389977 -195.328198 
L 637.500076 -194.000863 
L 637.620035 -192.673529 
L 637.748244 -191.346195 
L 637.88353 -190.018861 
L 638.024951 -188.691527 
L 638.171394 -187.364193 
L 638.321193 -186.036859 
L 638.471975 -184.709525 
L 638.620887 -183.382191 
L 638.765229 -182.054857 
L 638.903308 -180.727523 
L 639.03515 -179.400189 
L 639.162722 -178.072855 
L 639.289501 -176.745521 
L 639.4195 -175.418187 
L 639.556064 -174.090853 
L 639.700798 -172.763519 
L 639.852868 -171.436185 
L 640.008792 -170.108851 
L 640.162732 -168.781517 
L 640.307274 -167.454183 
L 640.434771 -166.126849 
L 640.539359 -164.799515 
L 640.619531 -163.472181 
L 640.680718 -162.144847 
L 640.736787 -160.817513 
L 640.809324 -159.490179 
L 640.924175 -158.162845 
L 641.10601 -156.835511 
L 641.372835 -155.508177 
L 641.732844 -154.180843 
L 642.185315 -152.853509 
L 642.72557 -151.526175 
L 643.352138 -150.198841 
L 644.072946 -148.871507 
L 644.907534 -147.544173 
L 645.883756 -146.216839 
L 647.029993 -144.889505 
L 648.366224 -143.562171 
L 649.898605 -142.234837 
L 651.621433 -140.907503 
L 653.527214 -139.580169 
L 655.620862 -138.252835 
L 657.9296 -136.925501 
L 660.498698 -135.598167 
L 663.36655 -134.270833 
L 666.521007 -132.943499 
L 669.849883 -131.616165 
L 673.107805 -130.288831 
L 675.923353 -128.961497 
L 677.860294 -127.634163 
L 678.525169 -126.306829 
L 677.688919 -124.979495 
L 675.37626 -123.652161 
L 671.884134 -122.324827 
L 667.718835 -120.997493 
L 663.475956 -119.670159 
L 659.709113 -118.342825 
L 656.831493 -117.015491 
L 655.072839 -115.688157 
L 654.488438 -114.360823 
L 655.000541 -113.033489 
L 656.451426 -111.706155 
L 658.655539 -110.378821 
L 661.446141 -109.051487 
L 664.713242 -107.724153 
L 668.42509 -106.396819 
L 672.621128 -105.069485 
L 677.366902 -103.742151 
L 682.673443 -102.414817 
L 688.402516 -101.087483 
L 694.196693 -99.760149 
L 699.47871 -98.432815 
L 703.548686 -97.105481 
L 705.769598 -95.778147 
L 705.784 -94.450812 
L 703.673253 -93.123478 
L 699.977907 -91.796144 
L 695.549177 -90.46881 
L 691.275645 -89.141476 
L 687.789098 -87.814142 
L 685.267304 -86.486808 
L 683.411722 -85.159474 
L 681.603903 -83.83214 
L 679.170587 -82.504806 
L 675.647267 -81.177472 
L 670.939245 -79.850138 
L 665.330723 -78.522804 
L 659.359735 -77.19547 
L 653.627466 -75.868136 
L 648.623787 -74.540802 
L 644.626658 -73.213468 
L 641.690262 -71.886134 
z
" style="stroke: #484848; stroke-width: 3"/>
    </defs>
    <g clip-path="url(#p2c5e6b288d)">
     <use xlink:href="#m388d3fcef8" x="0" y="288" style="fill: #905998; stroke: #484848; stroke-width: 3"/>
    </g>
   </g>
   <g id="PolyCollection_5">
    <defs>
     <path id="mbfd68e6b88" d="M 816.059513 -82.766445 
L 801.940487 -82.766445 
L 797.791179 -84.023298 
L 792.178764 -85.280151 
L 785.118752 -86.537004 
L 776.887313 -87.793857 
L 768.03595 -89.05071 
L 759.326196 -90.307563 
L 751.590449 -91.564416 
L 745.55838 -92.821269 
L 741.707565 -94.078122 
L 740.189333 -95.334975 
L 740.848395 -96.591828 
L 743.315214 -97.848681 
L 747.124996 -99.105534 
L 751.8182 -100.362387 
L 756.999207 -101.61924 
L 762.355222 -102.876093 
L 767.651723 -104.132946 
L 772.720047 -105.389799 
L 777.44438 -106.646652 
L 781.748876 -107.903505 
L 785.58492 -109.160358 
L 788.92097 -110.417211 
L 791.738301 -111.674064 
L 794.033552 -112.930917 
L 795.8251 -114.18777 
L 797.158151 -115.444623 
L 798.10419 -116.701476 
L 798.753435 -117.958329 
L 799.202087 -119.215182 
L 799.538236 -120.472035 
L 799.83059 -121.728888 
L 800.122834 -122.985741 
L 800.434093 -124.242594 
L 800.763635 -125.499447 
L 801.096831 -126.7563 
L 801.410029 -128.013153 
L 801.673842 -129.270006 
L 801.856118 -130.526859 
L 801.926468 -131.783712 
L 801.863327 -133.040565 
L 801.66276 -134.297418 
L 801.346449 -135.554271 
L 800.965298 -136.811124 
L 800.595482 -138.067977 
L 800.32573 -139.32483 
L 800.237914 -140.581683 
L 800.386394 -141.838536 
L 800.78321 -143.095389 
L 801.394771 -144.352242 
L 802.151504 -145.609095 
L 802.966871 -146.865948 
L 803.758829 -148.122801 
L 804.466686 -149.379654 
L 805.05908 -150.636507 
L 805.532567 -151.89336 
L 805.903366 -153.150213 
L 806.196162 -154.407066 
L 806.433636 -155.663919 
L 806.629356 -156.920772 
L 806.785313 -158.177625 
L 806.894045 -159.434478 
L 806.944204 -160.691331 
L 806.927571 -161.948184 
L 806.845254 -163.205037 
L 806.711014 -164.46189 
L 806.550491 -165.718743 
L 806.39637 -166.975596 
L 806.280844 -168.232449 
L 806.227824 -169.489302 
L 806.247478 -170.746155 
L 806.334863 -172.003008 
L 806.472853 -173.259861 
L 806.63793 -174.516714 
L 806.806625 -175.773567 
L 806.960525 -177.03042 
L 807.088747 -178.287273 
L 807.187848 -179.544126 
L 807.259937 -180.800979 
L 807.310001 -182.057832 
L 807.343409 -183.314685 
L 807.364217 -184.571538 
L 807.374598 -185.828391 
L 807.375326 -187.085244 
L 807.367006 -188.342097 
L 807.351566 -189.59895 
L 807.333549 -190.855803 
L 807.320723 -192.112656 
L 807.323642 -193.369509 
L 807.353988 -194.626362 
L 807.421855 -195.883215 
L 807.532708 -197.140068 
L 807.685071 -198.396921 
L 807.869972 -199.653774 
L 808.072554 -200.910627 
L 808.2754 -202.16748 
L 808.462422 -203.424333 
L 808.621989 -204.681186 
L 808.748418 -205.938039 
L 808.841687 -207.194892 
L 809.158313 -207.194892 
L 809.158313 -207.194892 
L 809.251582 -205.938039 
L 809.378011 -204.681186 
L 809.537578 -203.424333 
L 809.7246 -202.16748 
L 809.927446 -200.910627 
L 810.130028 -199.653774 
L 810.314929 -198.396921 
L 810.467292 -197.140068 
L 810.578145 -195.883215 
L 810.646012 -194.626362 
L 810.676358 -193.369509 
L 810.679277 -192.112656 
L 810.666451 -190.855803 
L 810.648434 -189.59895 
L 810.632994 -188.342097 
L 810.624674 -187.085244 
L 810.625402 -185.828391 
L 810.635783 -184.571538 
L 810.656591 -183.314685 
L 810.689999 -182.057832 
L 810.740063 -180.800979 
L 810.812152 -179.544126 
L 810.911253 -178.287273 
L 811.039475 -177.03042 
L 811.193375 -175.773567 
L 811.36207 -174.516714 
L 811.527147 -173.259861 
L 811.665137 -172.003008 
L 811.752522 -170.746155 
L 811.772176 -169.489302 
L 811.719156 -168.232449 
L 811.60363 -166.975596 
L 811.449509 -165.718743 
L 811.288986 -164.46189 
L 811.154746 -163.205037 
L 811.072429 -161.948184 
L 811.055796 -160.691331 
L 811.105955 -159.434478 
L 811.214687 -158.177625 
L 811.370644 -156.920772 
L 811.566364 -155.663919 
L 811.803838 -154.407066 
L 812.096634 -153.150213 
L 812.467433 -151.89336 
L 812.94092 -150.636507 
L 813.533314 -149.379654 
L 814.241171 -148.122801 
L 815.033129 -146.865948 
L 815.848496 -145.609095 
L 816.605229 -144.352242 
L 817.21679 -143.095389 
L 817.613606 -141.838536 
L 817.762086 -140.581683 
L 817.67427 -139.32483 
L 817.404518 -138.067977 
L 817.034702 -136.811124 
L 816.653551 -135.554271 
L 816.33724 -134.297418 
L 816.136673 -133.040565 
L 816.073532 -131.783712 
L 816.143882 -130.526859 
L 816.326158 -129.270006 
L 816.589971 -128.013153 
L 816.903169 -126.7563 
L 817.236365 -125.499447 
L 817.565907 -124.242594 
L 817.877166 -122.985741 
L 818.16941 -121.728888 
L 818.461764 -120.472035 
L 818.797913 -119.215182 
L 819.246565 -117.958329 
L 819.89581 -116.701476 
L 820.841849 -115.444623 
L 822.1749 -114.18777 
L 823.966448 -112.930917 
L 826.261699 -111.674064 
L 829.07903 -110.417211 
L 832.41508 -109.160358 
L 836.251124 -107.903505 
L 840.55562 -106.646652 
L 845.279953 -105.389799 
L 850.348277 -104.132946 
L 855.644778 -102.876093 
L 861.000793 -101.61924 
L 866.1818 -100.362387 
L 870.875004 -99.105534 
L 874.684786 -97.848681 
L 877.151605 -96.591828 
L 877.810667 -95.334975 
L 876.292435 -94.078122 
L 872.44162 -92.821269 
L 866.409551 -91.564416 
L 858.673804 -90.307563 
L 849.96405 -89.05071 
L 841.112687 -87.793857 
L 832.881248 -86.537004 
L 825.821236 -85.280151 
L 820.208821 -84.023298 
L 816.059513 -82.766445 
z
" style="stroke: #484848; stroke-width: 3"/>
    </defs>
    <g clip-path="url(#p2c5e6b288d)">
     <use xlink:href="#mbfd68e6b88" x="0" y="288" style="fill: #df7f20; stroke: #484848; stroke-width: 3"/>
    </g>
   </g>
   <g id="PolyCollection_6">
    <defs>
     <path id="mf3e1e9a99e" d="M 986.308257 -72.147875 
L 975.745077 -72.147875 
L 972.585879 -73.429374 
L 968.31425 -74.710873 
L 962.970005 -75.992372 
L 956.810192 -77.273872 
L 950.308299 -78.555371 
L 944.075239 -79.83687 
L 938.70939 -81.118369 
L 934.618464 -82.399868 
L 931.879589 -83.681367 
L 930.200145 -84.962866 
L 929.008054 -86.244365 
L 927.64922 -87.525864 
L 925.624321 -88.807363 
L 922.7778 -90.088862 
L 919.367762 -91.370361 
L 915.990366 -92.65186 
L 913.388234 -93.933359 
L 912.216 -95.214858 
L 912.849237 -96.496357 
L 915.300127 -97.777856 
L 919.256088 -99.059355 
L 924.208929 -100.340854 
L 929.613988 -101.622353 
L 935.02033 -102.903852 
L 940.13746 -104.185351 
L 944.835151 -105.466851 
L 949.096178 -106.74835 
L 952.950752 -108.029849 
L 956.417942 -109.311348 
L 959.46896 -110.592847 
L 962.01569 -111.874346 
L 963.919656 -113.155845 
L 965.013938 -114.437344 
L 965.132918 -115.718843 
L 964.148687 -117.000342 
L 962.013863 -118.281841 
L 958.805938 -119.56334 
L 954.760068 -120.844839 
L 950.27168 -122.126338 
L 945.854254 -123.407837 
L 942.052833 -124.689336 
L 939.334324 -125.970835 
L 937.990111 -127.252334 
L 938.085121 -128.533833 
L 939.469532 -129.815332 
L 941.843897 -131.096831 
L 944.849309 -132.37833 
L 948.149985 -133.65983 
L 951.485899 -134.941329 
L 954.689414 -136.222828 
L 957.673534 -137.504327 
L 960.405606 -138.785826 
L 962.879718 -140.067325 
L 965.096609 -141.348824 
L 967.054484 -142.630323 
L 968.749396 -143.911822 
L 970.180958 -145.193321 
L 971.35846 -146.47482 
L 972.303806 -147.756319 
L 973.050117 -149.037818 
L 973.637028 -150.319317 
L 974.104892 -151.600816 
L 974.489979 -152.882315 
L 974.821878 -154.163814 
L 975.123147 -155.445313 
L 975.410456 -156.726812 
L 975.696197 -158.008311 
L 975.989764 -159.28981 
L 976.298061 -160.571309 
L 976.625176 -161.852809 
L 976.971477 -163.134308 
L 977.332664 -164.415807 
L 977.699515 -165.697306 
L 978.058942 -166.978805 
L 978.396448 -168.260304 
L 978.699371 -169.541803 
L 978.95977 -170.823302 
L 979.175847 -172.104801 
L 979.351363 -173.3863 
L 979.493299 -174.667799 
L 979.608713 -175.949298 
L 979.702053 -177.230797 
L 979.773997 -178.512296 
L 979.822315 -179.793795 
L 979.844478 -181.075294 
L 979.840986 -182.356793 
L 979.818016 -183.638292 
L 979.788111 -184.919791 
L 979.7683 -186.20129 
L 979.776063 -187.482789 
L 979.824456 -188.764288 
L 979.918213 -190.045788 
L 980.052308 -191.327287 
L 980.213495 -192.608786 
L 980.384156 -193.890285 
L 980.546959 -195.171784 
L 980.688683 -196.453283 
L 980.802154 -197.734782 
L 980.886148 -199.016281 
L 981.167185 -199.016281 
L 981.167185 -199.016281 
L 981.251179 -197.734782 
L 981.36465 -196.453283 
L 981.506374 -195.171784 
L 981.669178 -193.890285 
L 981.839839 -192.608786 
L 982.001025 -191.327287 
L 982.135121 -190.045788 
L 982.228878 -188.764288 
L 982.27727 -187.482789 
L 982.285033 -186.20129 
L 982.265223 -184.919791 
L 982.235317 -183.638292 
L 982.212347 -182.356793 
L 982.208856 -181.075294 
L 982.231018 -179.793795 
L 982.279336 -178.512296 
L 982.35128 -177.230797 
L 982.444621 -175.949298 
L 982.560035 -174.667799 
L 982.701971 -173.3863 
L 982.877487 -172.104801 
L 983.093563 -170.823302 
L 983.353962 -169.541803 
L 983.656885 -168.260304 
L 983.994392 -166.978805 
L 984.353818 -165.697306 
L 984.720669 -164.415807 
L 985.081856 -163.134308 
L 985.428157 -161.852809 
L 985.755272 -160.571309 
L 986.063569 -159.28981 
L 986.357137 -158.008311 
L 986.642878 -156.726812 
L 986.930186 -155.445313 
L 987.231455 -154.163814 
L 987.563354 -152.882315 
L 987.948441 -151.600816 
L 988.416305 -150.319317 
L 989.003216 -149.037818 
L 989.749527 -147.756319 
L 990.694874 -146.47482 
L 991.872375 -145.193321 
L 993.303937 -143.911822 
L 994.998849 -142.630323 
L 996.956724 -141.348824 
L 999.173616 -140.067325 
L 1001.647727 -138.785826 
L 1004.379799 -137.504327 
L 1007.36392 -136.222828 
L 1010.567435 -134.941329 
L 1013.903349 -133.65983 
L 1017.204025 -132.37833 
L 1020.209436 -131.096831 
L 1022.583801 -129.815332 
L 1023.968212 -128.533833 
L 1024.063223 -127.252334 
L 1022.719009 -125.970835 
L 1020.0005 -124.689336 
L 1016.199079 -123.407837 
L 1011.781654 -122.126338 
L 1007.293265 -120.844839 
L 1003.247395 -119.56334 
L 1000.039471 -118.281841 
L 997.904646 -117.000342 
L 996.920416 -115.718843 
L 997.039396 -114.437344 
L 998.133677 -113.155845 
L 1000.037643 -111.874346 
L 1002.584374 -110.592847 
L 1005.635391 -109.311348 
L 1009.102582 -108.029849 
L 1012.957155 -106.74835 
L 1017.218182 -105.466851 
L 1021.915873 -104.185351 
L 1027.033003 -102.903852 
L 1032.439345 -101.622353 
L 1037.844405 -100.340854 
L 1042.797246 -99.059355 
L 1046.753207 -97.777856 
L 1049.204096 -96.496357 
L 1049.837333 -95.214858 
L 1048.665099 -93.933359 
L 1046.062967 -92.65186 
L 1042.685571 -91.370361 
L 1039.275533 -90.088862 
L 1036.429013 -88.807363 
L 1034.404113 -87.525864 
L 1033.04528 -86.244365 
L 1031.853189 -84.962866 
L 1030.173744 -83.681367 
L 1027.434869 -82.399868 
L 1023.343944 -81.118369 
L 1017.978094 -79.83687 
L 1011.745034 -78.555371 
L 1005.243141 -77.273872 
L 999.083328 -75.992372 
L 993.739083 -74.710873 
L 989.467454 -73.429374 
L 986.308257 -72.147875 
z
" style="stroke: #484848; stroke-width: 3"/>
    </defs>
    <g clip-path="url(#p2c5e6b288d)">
     <use xlink:href="#mf3e1e9a99e" x="0" y="288" style="fill: #e6e64c; stroke: #484848; stroke-width: 3"/>
    </g>
   </g>
   <g id="line2d_6">
    <path d="M 120.893333 210.838274 
L 120.893333 158.998306 
" clip-path="url(#p2c5e6b288d)" style="fill: none; stroke: #484848; stroke-width: 3; stroke-linecap: round"/>
   </g>
   <g id="line2d_7">
    <path d="M 120.893333 193.558285 
L 120.893333 176.278296 
" clip-path="url(#p2c5e6b288d)" style="fill: none; stroke: #484848; stroke-width: 9; stroke-linecap: round"/>
   </g>
   <g id="line2d_8">
    <path d="M 292.92 235.285931 
L 292.92 140.681496 
" clip-path="url(#p2c5e6b288d)" style="fill: none; stroke: #484848; stroke-width: 3; stroke-linecap: round"/>
   </g>
   <g id="line2d_9">
    <path d="M 292.92 203.75112 
L 292.92 172.216308 
" clip-path="url(#p2c5e6b288d)" style="fill: none; stroke: #484848; stroke-width: 9; stroke-linecap: round"/>
   </g>
   <g id="line2d_10">
    <path d="M 464.946667 205.230632 
L 464.946667 139.775179 
" clip-path="url(#p2c5e6b288d)" style="fill: none; stroke: #484848; stroke-width: 3; stroke-linecap: round"/>
   </g>
   <g id="line2d_11">
    <path d="M 464.946667 194.32139 
L 464.946667 172.502905 
" clip-path="url(#p2c5e6b288d)" style="fill: none; stroke: #484848; stroke-width: 9; stroke-linecap: round"/>
   </g>
   <g id="line2d_12">
    <path d="M 636.973333 205.751615 
L 636.973333 119.665952 
" clip-path="url(#p2c5e6b288d)" style="fill: none; stroke: #484848; stroke-width: 3; stroke-linecap: round"/>
   </g>
   <g id="line2d_13">
    <path d="M 636.973333 193.453664 
L 636.973333 162.708784 
" clip-path="url(#p2c5e6b288d)" style="fill: none; stroke: #484848; stroke-width: 9; stroke-linecap: round"/>
   </g>
   <g id="line2d_14">
    <path d="M 809 194.871304 
L 809 146.476129 
" clip-path="url(#p2c5e6b288d)" style="fill: none; stroke: #484848; stroke-width: 3; stroke-linecap: round"/>
   </g>
   <g id="line2d_15">
    <path d="M 809 194.871304 
L 809 174.130515 
" clip-path="url(#p2c5e6b288d)" style="fill: none; stroke: #484848; stroke-width: 9; stroke-linecap: round"/>
   </g>
   <g id="line2d_16">
    <path d="M 981.026667 205.489874 
L 981.026667 118.077247 
" clip-path="url(#p2c5e6b288d)" style="fill: none; stroke: #484848; stroke-width: 3; stroke-linecap: round"/>
   </g>
   <g id="line2d_17">
    <path d="M 981.026667 193.002356 
L 981.026667 161.783561 
" clip-path="url(#p2c5e6b288d)" style="fill: none; stroke: #484848; stroke-width: 9; stroke-linecap: round"/>
   </g>
   <g id="patch_3">
    <path d="M 34.88 255.46 
L 34.88 39.6 
" style="fill: none; stroke: #cccccc; stroke-width: 1.25; stroke-linejoin: miter; stroke-linecap: square"/>
   </g>
   <g id="patch_4">
    <path d="M 1067.04 255.46 
L 1067.04 39.6 
" style="fill: none; stroke: #cccccc; stroke-width: 1.25; stroke-linejoin: miter; stroke-linecap: square"/>
   </g>
   <g id="patch_5">
    <path d="M 34.88 255.46 
L 1067.04 255.46 
" style="fill: none; stroke: #cccccc; stroke-width: 1.25; stroke-linejoin: miter; stroke-linecap: square"/>
   </g>
   <g id="patch_6">
    <path d="M 34.88 39.6 
L 1067.04 39.6 
" style="fill: none; stroke: #cccccc; stroke-width: 1.25; stroke-linejoin: miter; stroke-linecap: square"/>
   </g>
   <g id="PathCollection_1">
    <defs>
     <path id="m755a61ea5d" d="M 0 3 
C 0.795609 3 1.55874 2.683901 2.12132 2.12132 
C 2.683901 1.55874 3 0.795609 3 0 
C 3 -0.795609 2.683901 -1.55874 2.12132 -2.12132 
C 1.55874 -2.683901 0.795609 -3 0 -3 
C -0.795609 -3 -1.55874 -2.683901 -2.12132 -2.12132 
C -2.683901 -1.55874 -3 -0.795609 -3 0 
C -3 0.795609 -2.683901 1.55874 -2.12132 2.12132 
C -1.55874 2.683901 -0.795609 3 0 3 
z
" style="stroke: #484848"/>
    </defs>
    <g clip-path="url(#p2c5e6b288d)">
     <use xlink:href="#m755a61ea5d" x="120.893333" y="176.278296" style="fill: #ffffff; stroke: #484848"/>
    </g>
   </g>
   <g id="PathCollection_2">
    <g clip-path="url(#p2c5e6b288d)">
     <use xlink:href="#m755a61ea5d" x="292.92" y="172.216308" style="fill: #ffffff; stroke: #484848"/>
    </g>
   </g>
   <g id="PathCollection_3">
    <g clip-path="url(#p2c5e6b288d)">
     <use xlink:href="#m755a61ea5d" x="464.946667" y="187.048562" style="fill: #ffffff; stroke: #484848"/>
    </g>
   </g>
   <g id="PathCollection_4">
    <g clip-path="url(#p2c5e6b288d)">
     <use xlink:href="#m755a61ea5d" x="636.973333" y="187.304688" style="fill: #ffffff; stroke: #484848"/>
    </g>
   </g>
   <g id="PathCollection_5">
    <g clip-path="url(#p2c5e6b288d)">
     <use xlink:href="#m755a61ea5d" x="809" y="187.957708" style="fill: #ffffff; stroke: #484848"/>
    </g>
   </g>
   <g id="PathCollection_6">
    <g clip-path="url(#p2c5e6b288d)">
     <use xlink:href="#m755a61ea5d" x="981.026667" y="186.758597" style="fill: #ffffff; stroke: #484848"/>
    </g>
   </g>
  </g>
  <g id="text_12">
   <!-- Violin Plot of all Continuous Variables -->
   <g style="fill: #262626" transform="translate(416.035547 16.496719) scale(0.15 -0.15)">
    <defs>
     <path id="ArialMT-56" d="M 1803 0 
L 28 4581 
L 684 4581 
L 1875 1253 
Q 2019 853 2116 503 
Q 2222 878 2363 1253 
L 3600 4581 
L 4219 4581 
L 2425 0 
L 1803 0 
z
" transform="scale(0.015625)"/>
     <path id="ArialMT-20" transform="scale(0.015625)"/>
     <path id="ArialMT-62" d="M 941 0 
L 419 0 
L 419 4581 
L 981 4581 
L 981 2947 
Q 1338 3394 1891 3394 
Q 2197 3394 2470 3270 
Q 2744 3147 2920 2923 
Q 3097 2700 3197 2384 
Q 3297 2069 3297 1709 
Q 3297 856 2875 390 
Q 2453 -75 1863 -75 
Q 1275 -75 941 416 
L 941 0 
z
M 934 1684 
Q 934 1088 1097 822 
Q 1363 388 1816 388 
Q 2184 388 2453 708 
Q 2722 1028 2722 1663 
Q 2722 2313 2464 2622 
Q 2206 2931 1841 2931 
Q 1472 2931 1203 2611 
Q 934 2291 934 1684 
z
" transform="scale(0.015625)"/>
    </defs>
    <use xlink:href="#ArialMT-56"/>
    <use xlink:href="#ArialMT-69" x="64.949219"/>
    <use xlink:href="#ArialMT-6f" x="87.166016"/>
    <use xlink:href="#ArialMT-6c" x="142.78125"/>
    <use xlink:href="#ArialMT-69" x="164.998047"/>
    <use xlink:href="#ArialMT-6e" x="187.214844"/>
    <use xlink:href="#ArialMT-20" x="242.830078"/>
    <use xlink:href="#ArialMT-50" x="270.613281"/>
    <use xlink:href="#ArialMT-6c" x="337.3125"/>
    <use xlink:href="#ArialMT-6f" x="359.529297"/>
    <use xlink:href="#ArialMT-74" x="415.144531"/>
    <use xlink:href="#ArialMT-20" x="442.927734"/>
    <use xlink:href="#ArialMT-6f" x="470.710938"/>
    <use xlink:href="#ArialMT-66" x="526.326172"/>
    <use xlink:href="#ArialMT-20" x="554.109375"/>
    <use xlink:href="#ArialMT-61" x="581.892578"/>
    <use xlink:href="#ArialMT-6c" x="637.507812"/>
    <use xlink:href="#ArialMT-6c" x="659.724609"/>
    <use xlink:href="#ArialMT-20" x="681.941406"/>
    <use xlink:href="#ArialMT-43" x="709.724609"/>
    <use xlink:href="#ArialMT-6f" x="781.941406"/>
    <use xlink:href="#ArialMT-6e" x="837.556641"/>
    <use xlink:href="#ArialMT-74" x="893.171875"/>
    <use xlink:href="#ArialMT-69" x="920.955078"/>
    <use xlink:href="#ArialMT-6e" x="943.171875"/>
    <use xlink:href="#ArialMT-75" x="998.787109"/>
    <use xlink:href="#ArialMT-6f" x="1054.402344"/>
    <use xlink:href="#ArialMT-75" x="1110.017578"/>
    <use xlink:href="#ArialMT-73" x="1165.632812"/>
    <use xlink:href="#ArialMT-20" x="1215.632812"/>
    <use xlink:href="#ArialMT-56" x="1243.416016"/>
    <use xlink:href="#ArialMT-61" x="1302.740234"/>
    <use xlink:href="#ArialMT-72" x="1358.355469"/>
    <use xlink:href="#ArialMT-69" x="1391.65625"/>
    <use xlink:href="#ArialMT-61" x="1413.873047"/>
    <use xlink:href="#ArialMT-62" x="1469.488281"/>
    <use xlink:href="#ArialMT-6c" x="1525.103516"/>
    <use xlink:href="#ArialMT-65" x="1547.320312"/>
    <use xlink:href="#ArialMT-73" x="1602.935547"/>
   </g>
  </g>
 </g>
 <defs>
  <clipPath id="p2c5e6b288d">
   <rect x="34.88" y="39.6" width="1032.16" height="215.86"/>
  </clipPath>
 </defs>
</svg>
